<?xml version="1.0" encoding="utf-8"?>
<!-- Generator: Adobe Illustrator 25.4.1, SVG Export Plug-In . SVG Version: 6.00 Build 0)  -->
<svg version="1.1" id="Layer_1" xmlns="http://www.w3.org/2000/svg" xmlns:xlink="http://www.w3.org/1999/xlink" x="0px" y="0px"
	 viewBox="0 0 487.06 511.06" style="enable-background:new 0 0 487.06 511.06;" xml:space="preserve" >
<style type="text/css">
	.st0{fill:none;stroke:#32C0CF;stroke-width:20;stroke-miterlimit:10;}
	.st1{fill:none;stroke:#E8E8E8;stroke-width:20;stroke-miterlimit:10;}
</style>
<path class="st0" d="M421.78,385.46v53.07c0,25.94-19.6,29-34.33,29.15h-92.08"/>
<path class="st1" d="M104.18,415.46L104.18,415.46c-15.79,0-28.58-12.8-28.58-28.58v-144.6c0-15.79,12.8-28.58,28.58-28.58h0
	c15.79,0,28.58,12.8,28.58,28.58v144.6C132.76,402.66,119.97,415.46,104.18,415.46z"/>
<path class="st1" d="M75.6,244.69H50.64c-13.41,0.06-24.98,14.18-24.96,28.73l0.13,85.7c0.02,14.55,10.91,26.34,24.33,26.34H75.6"/>
<path class="st1" d="M387.63,415.46L387.63,415.46c15.78-0.03,28.55-12.85,28.53-28.63l-0.24-144.6
	c-0.03-15.79-12.85-28.57-28.64-28.53h0c-15.78,0.03-28.55,12.85-28.53,28.63l0.24,144.6C359.01,402.71,371.84,415.49,387.63,415.46
	z"/>
<path class="st1" d="M415.91,244.64l24.96-0.05c13.41,0.04,25,14.13,25,28.68l0.01,85.7c0,14.55-10.86,26.36-24.28,26.39
	l-25.45,0.05"/>
<path class="st1" d="M59.6,235.41c0-75.18,44.58-214.94,185.97-214.94c151.8,0,185.97,166.24,185.97,214.94"/>
<ellipse class="st0" cx="276.43" cy="465.59" rx="24.95" ry="27.06"/>
</svg>
