<?xml version="1.0" encoding="utf-8"?>
<!-- Generator: Adobe Illustrator 25.4.1, SVG Export Plug-In . SVG Version: 6.00 Build 0)  -->
<svg version="1.1" id="Layer_1" xmlns="http://www.w3.org/2000/svg" xmlns:xlink="http://www.w3.org/1999/xlink" x="0px" y="0px"
	 viewBox="0 0 86.1 129.6" style="enable-background:new 0 0 86.1 129.6;" xml:space="preserve">
<style type="text/css">
	.st0{fill:none;stroke:#FFFFFF;stroke-width:2;stroke-miterlimit:10;}
	.st1{fill:#B0B0B0;stroke:#FFFFFF;stroke-width:2;stroke-miterlimit:10;}
</style>
<g>
	<path class="st0" d="M21,100.7l-1.9,17.6h-2.8c-0.7,0-1.3-1.6-1.3-3.6v-10.5c0-2,0.6-3.6,1.4-3.6l12.2,0.3c0.7,0,1.4-1.6,1.4-3.6
		v-9.9c0-2.3,0.8-3.5,1.7-3.5c5.4,0,10.4,3.7,15.6,5.6l13.7,13c0.1,0.1,0.3,0.1,0.4,0.2l9.5,0.5c0.7,0,1.3,1.6,1.3,3.6v8.6
		c0,2-0.6,3.6-1.3,3.6h-2.9l-1.5-16"/>
	<line class="st0" x1="29.9" y1="86.7" x2="33.6" y2="23.6"/>
	<line class="st0" x1="47.1" y1="89.5" x2="47.4" y2="17.1"/>
	<line class="st0" x1="60.8" y1="102.5" x2="56.8" y2="25"/>
	<path class="st0" d="M15.1,102.6l8.4-76c0.1-1.2,0.7-2,1.5-2l7.6-0.1c0.6,0,1.2-0.8,1.2-1.8c0,0,0.4-6.7,0.5-9.1
		c0.1-1.2,0.6-2.4,2.3-2c3,0.7,10.6,5.4,10.6,5.4c0.1,0.1,0.3,0.2,0.4,0.3l8.5,7c0.4,0.3,0.9,0.5,1.3,0.5l4.9-0.2
		c0.8,0,1.4,0.8,1.5,2l7.8,78.1"/>
	<line class="st0" x1="29.4" y1="100.2" x2="29.4" y2="100.2"/>
	<path class="st1" d="M19.1,118.3l-3-0.1c-0.5,0-1.1-1.6-1.1-2.4L15,103.6c0-0.8,0.9-2.9,1.4-2.9l4.6,0L19.1,118.3z"/>
	<path class="st1" d="M67.7,119H71c0.5,0.1,0.9-1.6,1-2.3l0-10c0-0.8-0.6-3.2-1.1-3.3l-4.6-0.3L67.7,119z"/>
</g>
</svg>
