<?xml version="1.0" encoding="utf-8"?>
<!-- Generator: Adobe Illustrator 25.4.1, SVG Export Plug-In . SVG Version: 6.00 Build 0)  -->
<svg version="1.1" id="Layer_1" xmlns="http://www.w3.org/2000/svg" xmlns:xlink="http://www.w3.org/1999/xlink" x="0px" y="0px"
	 viewBox="0 0 487.1 511.1" style="enable-background:new 0 0 487.1 511.1;" xml:space="preserve">
<style type="text/css">
	.st0{fill:none;stroke:#E8E8E8;stroke-width:20;stroke-linecap:round;stroke-miterlimit:10;}
	.st1{fill:none;stroke:#32C0CF;stroke-width:20;stroke-linecap:round;stroke-miterlimit:10;}
</style>
<path class="st0" d="M54.9,342.9c82.5,0,162.8,0,245.4,0"/>
<line class="st0" x1="23.7" y1="239.6" x2="430.9" y2="239.6"/>
<line class="st0" x1="50.5" y1="138.6" x2="404.3" y2="138.9"/>
<path class="st0" d="M302.4,357.7c-6.4,52-63.1,83.2-65.4,85.5"/>
<path class="st0" d="M240.5,36.4c72,22.7,89.1,147.7,89.6,203.2c0.3,27.1-3,45.2-3.3,47"/>
<path class="st0" d="M227.3,36C126.2,48.5,126.2,239.6,126.2,239.6s0,189.4,101.1,203.6"/>
<line class="st0" x1="227.3" y1="36" x2="227.3" y2="443.2"/>
<path class="st0" d="M318.7,419.9c-2.1,1.2-44.6,23.5-91.4,23.3c-83.9-0.3-203.6-76.6-203.6-203.6C23.7,127.2,114.9,36,227.3,36
	s203.6,91.2,203.6,203.6c0,6.4,0.4,20.2-4.7,41.2"/>
<path class="st1" d="M300.5,302.6c10.7-27.1,143.7-34.4,167.3-3.5c3.1,4,4.4,60-1.8,87.5c-12.6,56.7-62.1,93.5-78,94.9
	c-17.6,1.6-68.1-38.4-80.8-93.5C303.3,370.8,295.1,316.5,300.5,302.6z"/>
<path class="st1" d="M355.9,380.3l19.3,18.1c0.6,0.7,1.8,0.8,2.4,0.1l51.7-51.3"/>
</svg>
