<?xml version="1.0" encoding="utf-8"?>
<!-- Generator: Adobe Illustrator 25.4.1, SVG Export Plug-In . SVG Version: 6.00 Build 0)  -->
<svg version="1.1" id="_x3C_Layer_x3E_" xmlns="http://www.w3.org/2000/svg" xmlns:xlink="http://www.w3.org/1999/xlink" x="0px"
	 y="0px" viewBox="0 0 1380.2 829.5" style="enable-background:new 0 0 1380.2 829.5;" xml:space="preserve">
<style type="text/css">
	.st0{fill:none;stroke:#E5E5E5;stroke-width:2;stroke-miterlimit:10;}
	.st1{display:none;fill:#501B1B;}
	.st2{opacity:0.24;fill:#3A1010;enable-background:new    ;}
	.st3{display:none;fill:#3A1010;}
	.st4{display:none;}
	.st5{display:inline;}
	.st6{fill:#3A1010;}
	.st7{display:inline;fill:#3A1010;}
	.st8{display:none;fill:#843D20;}
	.st9{display:none;fill:#2D0A0A;}
	.st10{display:inline;fill:#F3E4C9;}
	.st11{display:inline;fill:#D8B382;}
	.st12{display:inline;fill:#FFF9ED;}
	.st13{fill:#725A5A;}
	.st14{fill:#664F4F;}
	.st15{fill:#A08888;}
	.st16{fill:#C8AFAF;}
	.st17{fill:#806A6A;}
	.st18{fill:#8D7878;}
	.st19{opacity:0.25;fill:#3A1010;enable-background:new    ;}
	.st20{fill:#C95D43;}
	.st21{fill:#B54F39;}
	.st22{fill:#963C2B;}
	.st23{fill:#E96347;}
	.st24{fill:#513835;}
	.st25{fill:#6F4B47;}
	.st26{fill:#342221;}
	.st27{fill:#402B29;}
	.st28{fill:#FFA359;}
	.st29{fill:#FFBE8D;}
	.st30{fill:#D3883D;}
	.st31{fill:#F59B4A;}
	.st32{fill:#C5612E;}
	.st33{display:inline;fill:#573C34;}
	.st34{display:inline;fill:#48302A;}
	.st35{display:inline;fill:#684740;}
	.st36{display:inline;fill:#705048;}
	.st37{fill:#9F431F;}
	.st38{fill:#8A6D67;}
	.st39{fill:#B44631;}
	.st40{fill:#B88D86;}
	.st41{fill:#785A53;}
	.st42{opacity:0.22;fill:#BA8956;}
	.st43{opacity:0.26;fill:#C89A66;}
	.st44{fill:#AD8F8C;}
	.st45{fill:#C5A4A2;}
	.st46{fill:#422B26;}
	.st47{fill:#755551;}
	.st48{fill:#805D59;}
	.st49{fill:#83443A;}
	.st50{fill:#8D625E;}
	.st51{fill:#684744;}
	.st52{fill:#60423F;}
	.st53{fill:#FFBD54;}
	.st54{fill:#803C29;}
	.st55{fill:#C54E36;}
	.st56{display:inline;fill:#4C3C3C;}
	.st57{fill:#6F4B4B;}
	.st58{display:inline;fill:#6F4A4A;}
	.st59{fill:#5B3838;}
	.st60{display:inline;fill:#7C7728;}
	.st61{display:inline;fill:#9B953F;}
	.st62{display:inline;fill:#E1B790;}
	.st63{display:inline;fill:#F1CCA6;}
	.st64{display:inline;fill:#FF8759;}
	.st65{display:inline;fill:#FFA87A;}
	.st66{display:inline;fill:#633E3E;}
	.st67{display:inline;fill:#4F2E2E;}
	.st68{display:inline;fill:#5B3939;}
	.st69{display:inline;fill:#6F6822;}
	.st70{display:inline;fill:#3B2C2C;}
	.st71{display:inline;fill:#8D8A3A;}
	.st72{display:inline;fill:#F97146;}
	.st73{display:inline;fill:#7A3F28;}
	.st74{fill:#642B1C;}
	.st75{display:inline;fill:#FCE8AA;}
	.st76{display:inline;fill:#ECAF7A;}
	.st77{display:inline;fill:#642B1C;}
	.st78{display:inline;fill:#0EB0BD;}
	.st79{display:inline;fill:#7AE3EA;}
	.st80{display:inline;fill:#8C6D6D;}
	.st81{display:inline;fill:#7E5E5E;}
	.st82{display:inline;fill:#9B6666;}
	.st83{fill:#9B6666;}
	.st84{display:inline;fill:#D8702E;}
	.st85{fill:#B47878;}
	.st86{display:inline;opacity:0.65;fill:#9B6666;enable-background:new    ;}
	.st87{display:inline;fill:#FA8F3C;}
	.st88{display:inline;fill:#E7B780;}
	.st89{display:inline;fill:#AD5131;}
	.st90{display:inline;fill:#552216;}
	.st91{fill:#ED9D3E;}
	.st92{fill:#E0CF55;}
	.st93{fill:#D69044;}
	.st94{fill:#BD7235;}
	.st95{fill:#793939;}
	.st96{fill:#003C6F;}
	.st97{fill:#364775;}
	.st98{fill:#8E4D1A;}
	.st99{fill:#4C3C3C;}
	.st100{fill:#3B2C2C;}
	.st101{fill:#AF7636;}
	.st102{fill:#88501F;}
	.st103{fill:#8B4646;}
	.st104{fill:#513634;}
	.st105{fill:#DB6930;}
	.st106{fill:#DBD0C3;}
	.st107{fill:#B97D3A;}
	.st108{fill:#B06227;}
	.st109{fill:#F5854B;}
	.st110{fill:#73341B;}
	.st111{fill:#8C3D20;}
	.st112{fill:#F97146;}
	.st113{fill:#C84525;}
	.st114{fill:#715D5D;}
	.st115{fill:#877774;}
	.st116{fill:#A58D8A;}
	.st117{fill:#635050;}
	.st118{fill:#FFAD4A;}
	.st119{fill:#211413;}
	.st120{fill:#A85959;}
	.st121{fill:#ED874C;}
	.st122{fill:#FFBD6C;}
	.st123{fill:#634F4F;}
	.st124{fill:#EA8238;}
	.st125{fill:#FFA84D;}
</style>
<path class="st0" d="M1313.1,710.9L157.6,829.2c-31.5,3.2-59.6-19.7-62.8-51.1L39,233.8c-3.2-31.5,19.7-59.6,51.1-62.8L1245.7,52.6
	c31.5-3.2,59.6,19.7,62.8,51.1l55.8,544.3C1367.5,679.5,1344.6,707.6,1313.1,710.9z"/>
<path class="st0" d="M1247.1,807.7L117.2,744.1c-31.6-1.8-55.7-28.8-54-60.4l32.5-577.2c1.8-31.6,28.8-55.7,60.4-54L1286,116.1
	c31.6,1.8,55.7,28.8,54,60.4l-32.5,577.2C1305.7,785.3,1278.6,809.5,1247.1,807.7z"/>
<rect x="-841.8" y="-485.4" class="st1" width="3170" height="1791.6"/>
<polygon class="st2" points="666.2,353.4 645.3,352.4 642,300.7 556.3,70.2 554.1,70.2 532.4,70.2 465.2,70.2 337.4,70.2 
	337.4,70.2 254,292.5 247.7,333.2 229.2,332.3 221.1,363.5 221.1,363.5 221.1,363.6 219.5,369.8 219.5,369.8 219.5,369.8 
	664.4,369.8 664.9,364.9 664.9,364.9 "/>
<path class="st3" d="M735.3-323.7c691.9,0,1292.5,356.4,1592.9,693.5v-855.2h-3170v837.8C-536.4,24.8,55.3-323.7,735.3-323.7z"/>
<g class="st4">
	<g class="st5">
		<rect x="-629.4" y="-485.4" class="st6" width="9.5" height="1526.3"/>
	</g>
	<g class="st5">
		<path class="st6" d="M-333.9,991.2h-229.6V-201h229.6V991.2z M-553.9,981.5h210.5V-191.3h-210.5V981.5z"/>
	</g>
	<g class="st5">
		<rect x="-283.8" y="-485.4" class="st6" width="9.5" height="1526.3"/>
	</g>
	<g class="st5">
		<path class="st6" d="M14.8,991.2h-229.6V-201H14.8V991.2z M-205.2,981.5H5.3V-191.3h-210.5V981.5z"/>
	</g>
	<g class="st5">
		<rect x="64.9" y="-485.4" class="st6" width="9.5" height="1526.3"/>
	</g>
	<g class="st5">
		<path class="st6" d="M357.2,991.2H127.6V-201h229.6V991.2z M137.1,981.5h210.5V-191.3H137.1V981.5z"/>
	</g>
	<g class="st5">
		<rect x="407.2" y="-485.4" class="st6" width="9.5" height="1526.3"/>
	</g>
	<g class="st5">
		<path class="st6" d="M702.7,991.2H473.2V-201h229.6V991.2H702.7z M482.7,981.5h210.5V-191.3H482.7V981.5z"/>
	</g>
	<g class="st5">
		<rect x="752.7" y="-485.4" class="st6" width="9.5" height="1526.3"/>
	</g>
	<g class="st5">
		<path class="st6" d="M1051.4,991.2H821.9V-201h229.6L1051.4,991.2L1051.4,991.2z M831.4,981.5h210.5V-191.3H831.4V981.5z"/>
	</g>
	<g class="st5">
		<rect x="1101.4" y="-485.4" class="st6" width="9.5" height="1526.3"/>
	</g>
	<g class="st5">
		<path class="st6" d="M1414.4,991.2h-229.6V-201h229.6V991.2z M1194.3,981.5h210.5V-191.3h-210.5V981.5z"/>
	</g>
	<g class="st5">
		<rect x="1464.4" y="-485.4" class="st6" width="9.5" height="1526.3"/>
	</g>
	<g class="st5">
		<path class="st6" d="M1778.9,991.2h-229.6V-201h229.6V991.2z M1558.9,981.5h210.5V-191.3h-210.5V981.5z"/>
	</g>
	<g class="st5">
		<path class="st6" d="M2125.3,991.2h-229.6V-201h229.6V991.2z M1905.2,981.5h210.5V-191.3h-210.5V981.5z"/>
	</g>
	<g class="st5">
		<rect x="1829" y="-485.4" class="st6" width="9.5" height="1526.3"/>
	</g>
	<g class="st5">
		<rect x="2177.7" y="-485.4" class="st6" width="9.5" height="1526.3"/>
	</g>
	<g class="st5">
		<rect x="-841.8" y="1035.3" class="st6" width="3170" height="9.7"/>
	</g>
	<rect x="2271.2" y="1040.1" class="st7" width="28.5" height="262.9"/>
	<rect x="2204" y="1040.1" class="st7" width="28.5" height="262.9"/>
	<rect x="2136.7" y="1040.1" class="st7" width="28.5" height="262.9"/>
	<rect x="2069.5" y="1040.1" class="st7" width="28.5" height="262.9"/>
	<rect x="2002.3" y="1040.1" class="st7" width="28.5" height="262.9"/>
	<rect x="1935.1" y="1040.1" class="st7" width="28.5" height="262.9"/>
	<rect x="1867.8" y="1040.1" class="st7" width="28.5" height="262.9"/>
	<rect x="1800.6" y="1040.1" class="st7" width="28.5" height="262.9"/>
	<rect x="1733.4" y="1040.1" class="st7" width="28.5" height="262.9"/>
	<rect x="1666.2" y="1040.1" class="st7" width="28.5" height="262.9"/>
	<rect x="1598.9" y="1040.1" class="st7" width="28.5" height="262.9"/>
	<rect x="1531.7" y="1040.1" class="st7" width="28.5" height="262.9"/>
	<rect x="1464.5" y="1040.1" class="st7" width="28.5" height="262.9"/>
	<rect x="1397.3" y="1040.1" class="st7" width="28.5" height="262.9"/>
	<rect x="1330" y="1040.1" class="st7" width="28.5" height="262.9"/>
	<rect x="1262.8" y="1040.1" class="st7" width="28.5" height="262.9"/>
	<rect x="1195.6" y="1040.1" class="st7" width="28.5" height="262.9"/>
	<rect x="1128.4" y="1040.1" class="st7" width="28.5" height="262.9"/>
	<rect x="1061.1" y="1040.1" class="st7" width="28.5" height="262.9"/>
	<rect x="993.9" y="1040.1" class="st7" width="28.5" height="262.9"/>
	<rect x="926.7" y="1040.1" class="st7" width="28.5" height="262.9"/>
	<rect x="859.5" y="1040.1" class="st7" width="28.5" height="262.9"/>
	<rect x="792.2" y="1040.1" class="st7" width="28.5" height="262.9"/>
	<rect x="725" y="1040.1" class="st7" width="28.5" height="262.9"/>
	<rect x="657.8" y="1040.1" class="st7" width="28.5" height="262.9"/>
	<rect x="590.6" y="1040.1" class="st7" width="28.5" height="262.9"/>
	<rect x="523.3" y="1040.1" class="st7" width="28.5" height="262.9"/>
	<rect x="456.1" y="1040.1" class="st7" width="28.5" height="262.9"/>
	<rect x="388.9" y="1040.1" class="st7" width="28.5" height="262.9"/>
	<rect x="321.7" y="1040.1" class="st7" width="28.5" height="262.9"/>
	<rect x="254.4" y="1040.1" class="st7" width="28.5" height="262.9"/>
	<rect x="187.2" y="1040.1" class="st7" width="28.5" height="262.9"/>
	<rect x="120" y="1040.1" class="st7" width="28.5" height="262.9"/>
	<rect x="52.8" y="1040.1" class="st7" width="28.5" height="262.9"/>
	<rect x="-14.5" y="1040.1" class="st7" width="28.5" height="262.9"/>
	<rect x="-81.7" y="1040.1" class="st7" width="28.5" height="262.9"/>
	<rect x="-148.9" y="1040.1" class="st7" width="28.5" height="262.9"/>
	<rect x="-216.1" y="1040.1" class="st7" width="28.5" height="262.9"/>
	<rect x="-283.4" y="1040.1" class="st7" width="28.5" height="262.9"/>
	<rect x="-350.6" y="1040.1" class="st7" width="28.5" height="262.9"/>
	<rect x="-417.8" y="1040.1" class="st7" width="28.5" height="262.9"/>
	<rect x="-485" y="1040.1" class="st7" width="28.5" height="262.9"/>
	<rect x="-552.3" y="1040.1" class="st7" width="28.5" height="262.9"/>
	<rect x="-619.5" y="1040.1" class="st7" width="28.5" height="262.9"/>
	<rect x="-686.7" y="1040.1" class="st7" width="28.5" height="262.9"/>
	<rect x="-753.9" y="1040.1" class="st7" width="28.5" height="262.9"/>
	<rect x="-821.2" y="1040.1" class="st7" width="28.5" height="262.9"/>
	<polygon class="st7" points="2328.2,981.5 2253.9,981.5 2253.9,-191.3 2328.2,-191.3 2328.2,-201 2244.4,-201 2244.4,991.2 
		2328.2,991.2 	"/>
	<polygon class="st7" points="-841.8,-201 -841.8,-191.3 -688.9,-191.3 -688.9,981.5 -841.8,981.5 -841.8,991.2 -679.4,991.2 
		-679.4,-201 	"/>
</g>
<path class="st8" d="M-503.8-217v1504.5H23.4V-217C23.4-479.4-503.8-479.4-503.8-217z"/>
<path class="st9" d="M-464.9-191.4v1445.5h449.5V-191.4C-15.5-443.5-464.9-443.5-464.9-191.4z"/>
<g class="st4">
	<rect x="-841.8" y="1211.5" class="st10" width="3170" height="205.1"/>
	<polygon class="st11" points="2328.2,1416.6 405.4,1211.5 2328.2,1211.5 	"/>
	<polygon class="st12" points="464.6,1416.6 -733.7,1416.6 -224.5,1211.5 429.4,1211.5 	"/>
</g>
<g>
	<polygon class="st13" points="595.9,316.7 237.9,316.7 244.1,263.1 309.9,70.9 505.4,70.9 590.8,270.2 	"/>
	<path class="st14" d="M430.1,163.8l-46.7,47.6c6.1,23.1,8.3,58.4-9.3,105.3h110.3c-25-71.1,27.2-173.8,27.2-173.8L430.1,163.8z"/>
	<polygon class="st15" points="613.4,329.9 216.3,329.9 223.5,297.5 614.4,315.7 	"/>
	<path class="st16" d="M613.7,325.7c-55.9-4.4-127.8-7.1-206.3-7.1c-71,0-136.6,2.2-189.9,5.9l-1.2,5.4h397.1L613.7,325.7z"/>
	<path class="st17" d="M309.9,70.9l-53.3,155.7c35.8,20.5,79.2,37.2,127.5,47.4c76.5,16.3,150.1,13.4,206.5-4.3L505.4,70.9H309.9z"
		/>
	<path class="st18" d="M381,259.3c-7.2-67.5,44.1-142.2,122.5-188.3H424c-7.8,64.5-63.2,130.8-140.2,169.9
		c29.7,14,63.3,25.4,99.7,33.2C382.4,269.2,381.5,264.3,381,259.3z"/>
	<rect x="240.7" y="312.6" class="st14" width="14.7" height="10.9"/>
	<rect x="415.7" y="314.8" class="st14" width="14.7" height="10.9"/>
	<rect x="594.8" y="320.1" class="st14" width="9.2" height="6.8"/>
	<path class="st18" d="M484,70.9c29.6,41.2,73.2,119.2,62.3,209.1c15.7-2.5,30.5-5.9,44.3-10.3L505.4,70.9H484z"/>
</g>
<path class="st19" d="M1243.4,255.6l-0.9-48.1c0-2.3-1.8-4.3-4.2-5.2c-0.8-0.3-1.7-0.4-2.6-0.4l0,0h-43.4h-9.1h-11.4
	c-1.8-2.4-4.4-4.6-8.3-6.3l-0.8,6.3h-14l-1.1-6.3c-3.8,1.7-6.4,3.9-8.1,6.3h-29.7h-14.9v-1.7c0-2.1-2-3.7-4.5-3.7h-0.7h-5.3v5.5
	h-7.7v-5.5h-5.9h-0.1c-2.5,0-4.5,1.7-4.5,3.7v1.7h-25c-0.4,0-0.9,0-1.3,0.1c-0.1,0-0.3,0.1-0.4,0.1c-0.3,0.1-0.5,0.1-0.8,0.2
	c-0.2,0-0.3,0.1-0.4,0.2c-0.2,0.1-0.4,0.2-0.6,0.3s-0.3,0.1-0.4,0.2c-0.1,0.1-0.2,0.1-0.3,0.2c0,0-0.1,0-0.1,0.1
	c-0.1,0-0.1,0.1-0.2,0.1c-0.3,0.2-0.6,0.4-0.8,0.7l0,0c0,0-0.1,0.1-0.2,0.1l-0.1,0.1c-0.1,0.1-0.2,0.3-0.3,0.4
	c-0.1,0.2-0.3,0.4-0.4,0.5s-0.1,0.2-0.2,0.3c-0.1,0.3-0.2,0.5-0.3,0.8c0,0.1,0,0.2-0.1,0.3c-0.1,0.3-0.1,0.7-0.1,1l0,0v48.8
	c0,3.2,3.1,5.7,7,5.7l16-0.1c-5.5,24.1,5.3,49.6,14.4,65.5c2.2,3.8,1.8,8.3-0.8,11.9l-2.9,4c-5.5,7.5-6,16.8-1.2,24.6
	c1.1,1.8,4.3,1.6,5.2-0.3l6.9-15.3c4.3-9.6,4-20.1-0.7-29.5c-8.1-16.1-19.1-42.7-14.4-60.8l38.1-0.2c6.4,18-2.1,44.7-8.6,60.9
	c-3.8,9.4-3.1,20,2.1,29.4l8.3,15.1c1,1.9,4.2,2,5.2,0.2c4-7.8,2.7-17.1-3.5-24.4l-3.3-3.9c-3-3.5-3.7-8-1.9-11.8
	c7.6-16,15.9-41.6,8.2-65.5l21.9-0.1l10.4-0.1c-0.1,0.4-0.3,0.8-0.4,1.2c0,0.1,0,0.1-0.1,0.2c-0.2,0.6-0.3,1.1-0.5,1.6
	c0,0.1-0.1,0.2-0.1,0.3c-0.2,0.5-0.3,1-0.4,1.5c0,0.1,0,0.1,0,0.2c-0.1,0.4-0.2,0.8-0.4,1.2c0,0.1,0,0.2-0.1,0.2
	c-0.1,0.4-0.2,0.8-0.3,1.1c0,0.1,0,0.2-0.1,0.2c-0.1,0.3-0.2,0.7-0.3,0.9c-0.1,0.4-0.2,0.8-0.3,1.3c0,0.2-0.1,0.3-0.1,0.5
	c-0.1,0.3-0.2,0.7-0.2,1.1c-0.1,0.2-0.1,0.5-0.2,0.7c-0.1,0.4-0.2,0.7-0.2,1.1c-0.1,0.3-0.1,0.5-0.2,0.8c-0.1,0.4-0.2,0.8-0.3,1.2
	c-0.1,0.3-0.1,0.6-0.2,0.9c-0.1,0.4-0.2,0.9-0.3,1.4c-0.1,0.3-0.1,0.6-0.2,0.9c-0.1,0.5-0.2,1.1-0.3,1.7c-0.1,0.3-0.1,0.5-0.2,0.8
	c-0.2,0.8-0.3,1.7-0.5,2.6v0.1c-0.2,0.9-0.3,1.7-0.5,2.6c-0.1,0.3-0.1,0.7-0.2,1c-0.1,0.6-0.2,1.2-0.3,1.8c-0.1,0.4-0.1,0.7-0.2,1.1
	c-0.1,0.6-0.2,1.2-0.3,1.8c-0.1,0.4-0.1,0.7-0.2,1.1c-0.1,0.6-0.2,1.2-0.3,1.8c-0.1,0.4-0.1,0.8-0.2,1.1c-0.1,0.7-0.2,1.4-0.4,2.1
	c0,0.3-0.1,0.5-0.1,0.8c-0.1,0.8-0.3,1.5-0.4,2.3c0,0.2-0.1,0.5-0.1,0.7c-0.3,2-0.7,4-1,5.9c0,0.3-0.1,0.5-0.1,0.8
	c-0.1,0.7-0.2,1.4-0.3,2c0,0.1,0,0.2-0.1,0.3l0,0c-2,11.9-3.5,21.5-3.5,21.5l12.2-7.6c-0.4-4-0.5-8.1-0.6-12.1
	c-0.1-11.9,1.1-23.9,3.1-35.3c0-0.1,0-0.1,0-0.2c0.6-3.1,1.2-6.2,1.9-9.3c0-0.1,0.1-0.3,0.1-0.4c0.6-2.7,1.3-5.4,2-8l23-0.1
	c0.1,0.4,0.3,0.8,0.4,1.2c0,0.1,0.1,0.3,0.1,0.4c0.3,1.2,0.7,2.3,1,3.5c0,0.1,0,0.1,0,0.2c0.7,2.5,1.4,5.1,2,7.7
	c0,0.2,0.1,0.3,0.1,0.5c0.3,1.1,0.5,2.3,0.8,3.4c0,0.2,0.1,0.4,0.1,0.6c0.6,2.6,1.1,5.3,1.6,8c0,0.1,0,0.3,0.1,0.4
	c0.2,1.2,0.4,2.4,0.6,3.6c0,0.2,0.1,0.5,0.1,0.7c0.2,1.2,0.4,2.5,0.5,3.7c0,0.1,0,0.2,0,0.3c0.2,1.4,0.4,2.8,0.5,4.2l0,0
	c1,8.8,1.3,17.7,0.9,26.3l12.3,7.3c0,0-3.8-19.7-7.6-37.6l0,0c0-0.1,0-0.2-0.1-0.3c-0.1-0.3-0.1-0.7-0.2-1c-0.1-0.5-0.2-1-0.3-1.5
	c-0.1-0.3-0.1-0.6-0.2-1c-0.1-0.6-0.3-1.2-0.4-1.8c0-0.2-0.1-0.4-0.1-0.6c-0.2-0.8-0.3-1.5-0.5-2.3c0-0.2-0.1-0.4-0.1-0.6
	c-0.1-0.6-0.2-1.1-0.4-1.7c-0.1-0.2-0.1-0.5-0.2-0.7c-0.1-0.5-0.2-1.1-0.4-1.6c0-0.2-0.1-0.4-0.1-0.6c-0.2-0.7-0.3-1.4-0.5-2
	c0-0.2-0.1-0.3-0.1-0.5c-0.1-0.5-0.2-1-0.3-1.4c0-0.2-0.1-0.4-0.1-0.6c-0.1-0.5-0.2-0.9-0.3-1.3c0-0.2-0.1-0.3-0.1-0.5
	c-0.1-0.6-0.3-1.1-0.4-1.6c0-0.1,0-0.1-0.1-0.2c-0.1-0.4-0.2-0.9-0.3-1.3c0-0.1-0.1-0.3-0.1-0.4c-0.1-0.3-0.2-0.6-0.3-0.9
	c0-0.1-0.1-0.3-0.1-0.4c-0.1-0.4-0.2-0.8-0.3-1.1c-0.1-0.3-0.2-0.6-0.3-1c0-0.1,0-0.1-0.1-0.2c-0.1-0.4-0.2-0.7-0.4-1.2
	c0-0.1,0-0.1-0.1-0.2c-0.3-0.9-0.6-2-1-3.1v-0.1c-0.3-0.9-0.7-1.9-1-3h5.1l27.4-0.1c1.7,7.2,3.6,14.6,5.3,20.5c1,3.3,1.4,7.4,1.5,12
	c0,2,0,4.1-0.1,6.3c-0.7,17.1-5,38.5-7.6,50.3c0,0,0,0,0,0.1c-0.5,2.1-0.9,3.9-1.2,5.3v0.1c-0.1,0.3-0.2,0.6-0.2,0.9c0,0,0,0,0,0.1
	c-0.1,0.3-0.1,0.5-0.2,0.8l0,0c-0.1,0.2-0.1,0.4-0.2,0.6v0.1c-0.1,0.3-0.1,0.6-0.2,0.7l0,0c0,0.1,0,0.1,0,0.1l10.2-12.2
	c0,0,0,0,0-0.1c0,0,0,0,0-0.1s0-0.2,0.1-0.3c0-0.1,0-0.1,0-0.2s0-0.2,0.1-0.3c0-0.1,0.1-0.3,0.1-0.4s0.1-0.2,0.1-0.4
	c0-0.1,0.1-0.3,0.1-0.5c0-0.1,0-0.2,0.1-0.3c0.1-0.3,0.2-0.7,0.2-1c0-0.1,0-0.1,0-0.2c0.2-0.7,0.4-1.6,0.6-2.5l0,0
	c0.2-0.8,0.4-1.7,0.6-2.7c0.8-3.9,1.7-8.9,2.5-14.4l0,0c0.4-2.6,0.7-5.2,1-8c0-0.2,0-0.3,0-0.5c0.6-5.9,0.9-12,0.8-18
	c-0.1-4.7-0.5-9.3-1.3-13.5c-0.3-1.7-0.7-3.3-1.2-4.9c-0.4-1.4-0.8-2.8-1.2-4.2c0-0.1-0.1-0.3-0.1-0.4c-0.4-1.3-0.7-2.6-1-3.8
	c0-0.2-0.1-0.4-0.1-0.6c-0.3-1.2-0.6-2.4-0.9-3.6c0-0.2-0.1-0.4-0.1-0.5c-0.3-1.2-0.5-2.3-0.8-3.4c0-0.1-0.1-0.2-0.1-0.4
	c0-0.2-0.1-0.4-0.1-0.6l24.8-0.1l0,0l0,0c0.4,0,0.9,0,1.3-0.1c0.1,0,0.3-0.1,0.4-0.1c0.3-0.1,0.5-0.1,0.8-0.2c0.1,0,0.1,0,0.2,0
	s0.2-0.1,0.3-0.1c0.2-0.1,0.4-0.2,0.6-0.3c0.2-0.1,0.3-0.2,0.4-0.3c0.2-0.1,0.3-0.2,0.5-0.4c0.1-0.1,0.3-0.2,0.4-0.3
	c0.1-0.1,0.3-0.3,0.4-0.4s0.1-0.1,0.2-0.2s0.1-0.1,0.2-0.2s0.1-0.2,0.2-0.3c0.1-0.1,0.2-0.3,0.3-0.4c0-0.1,0.1-0.2,0.1-0.2
	s0-0.1,0.1-0.1c0.1-0.2,0.2-0.4,0.2-0.6c0-0.1,0-0.1,0.1-0.2l0,0c0-0.1,0-0.1,0-0.2C1243.4,256.3,1243.4,256,1243.4,255.6z"/>
<g>
	<path class="st20" d="M1228.1,185.7h-193c-2.2,0-4.1,1.8-4.1,4.1v52.7c0,2.2,1.8,4.1,4.1,4.1h193c2.2,0,4.1-1.8,4.1-4.1v-52.7
		C1232.2,187.5,1230.3,185.7,1228.1,185.7z"/>
	<g>
		<path class="st21" d="M1069.9,192.1c-15.2,0-29,8.6-38.9,22.4v26.3c0,3.2,3,5.8,6.6,5.8h84.9
			C1116,215.1,1094.9,192.1,1069.9,192.1z"/>
		<path class="st21" d="M1138.8,225.6c15.4,0,28.7-16.2,35.5-39.9h-71C1110,209.4,1123.4,225.6,1138.8,225.6z"/>
		<path class="st21" d="M1168.5,246.6h57c3.6,0,6.6-2.6,6.6-5.8v-49.3c0-3.2-3-5.8-6.6-5.8h-42.4c-9,13.7-14.7,34.5-14.7,57.8
			C1168.5,244.5,1168.5,245.6,1168.5,246.6z"/>
	</g>
	<path class="st22" d="M1228.6,242.8h-188c-3.6,0-6.6-2.6-6.6-5.8v-49.3c0-0.4,0.1-0.8,0.2-1.2c-1.9,1-3.2,2.8-3.2,5v49.3
		c0,3.2,3,5.8,6.6,5.8h188c3.2,0,5.8-1.9,6.4-4.5C1231,242.5,1229.9,242.8,1228.6,242.8z"/>
	<path class="st23" d="M1225.6,185.7h-188c-2.8,0-5.2,1.6-6.2,3.8c0.7-0.2,1.5-0.4,2.3-0.4h188c3.6,0,6.6,2.6,6.6,5.8v49.3
		c0,0.7-0.2,1.4-0.4,2c2.5-0.8,4.3-2.9,4.3-5.4v-49.3C1232.2,188.3,1229.2,185.7,1225.6,185.7z"/>
	<path class="st22" d="M1067.1,227.4c0,4.3,4,7.9,9,7.9s9-3.5,9-7.9c0-4.3-4-7.9-9-7.9S1067.1,223,1067.1,227.4z"/>
	<g>
		<g>
			<path class="st24" d="M1072,208.7c-5.9-1.6-7.9-4.2-8.5-8.5c-0.6-4.2,3.4-7.5,8-8.4v-11.7h-5.8c-2.4,0-4.3,1.7-4.3,3.8v2.8
				c-6.1,3.1-10,9-9.5,15.7c0.6,7.2,6.5,13.3,14.5,15.1c3.5,0.8,6.8,0.7,9.9-0.1c0,0,0,0,0-0.1C1078.5,214,1076.3,209.8,1072,208.7z
				"/>
			<path class="st24" d="M1078.4,208.7c5.9-1.6,7.9-4.2,8.5-8.5c0.6-4.2-3.4-7.5-8-8.4v-11.7h5.8c2.4,0,4.3,1.7,4.3,3.8v2.8
				c6.1,3.1,10,9,9.5,15.7c-0.6,7.2-6.5,13.3-14.5,15.1c-3.5,0.8-6.8,0.7-9.9-0.1c0,0,0,0,0-0.1
				C1071.9,214,1074.1,209.8,1078.4,208.7z"/>
		</g>
		<path class="st25" d="M1101.2,352.1L1101.2,352.1c-0.9,1.8-3.9,1.7-4.9-0.2l-7.8-15.1c-4.9-9.5-5.5-19.9-1.8-29.3
			c6.6-16.8,15.2-45,7.7-63.2c-7.4-17.9-13-22.8-15.9-24.1c-1.3-0.6-2-1.8-1.8-2.9v-0.1c0.5-1.8,3-2.4,4.6-1
			c34.6,29.8,22.3,72.9,11.8,95.9c-1.7,3.8-1,8.2,1.8,11.8l3.1,3.9C1103.9,335.2,1105.1,344.4,1101.2,352.1z"/>
		<path class="st25" d="M1061.5,352.1L1061.5,352.1c1.1,1.8,4.1,1.7,4.9-0.2l6.6-15.1c4.1-9.5,3.9-19.9-0.5-29.3
			c-7.9-16.8-18.8-45-12.8-63.2c5.9-17.9,11.1-22.8,14-24.1c1.2-0.6,1.9-1.8,1.5-2.9v-0.1c-0.6-1.8-3.2-2.4-4.7-1
			c-32.3,29.8-16.5,72.9-4.1,95.9c2,3.8,1.7,8.2-0.8,11.8l-2.8,3.9C1057.4,335.2,1057,344.4,1061.5,352.1z"/>
		<path class="st24" d="M1067.5,215.1c0,3.7,3.4,6.7,7.7,6.7c4.2,0,7.7-3,7.7-6.7s-3.4-6.7-7.7-6.7
			C1070.9,208.4,1067.5,211.4,1067.5,215.1z"/>
		<path class="st26" d="M1071.9,215.1c0,1.6,1.5,2.9,3.3,2.9s3.3-1.3,3.3-2.9c0-1.6-1.5-2.9-3.3-2.9
			C1073.4,212.2,1071.9,213.5,1071.9,215.1z"/>
		<g>
			<path class="st25" d="M1078.9,180.2v11.7c1.2,0.2,2.3,0.6,3.3,1.1c1.1-3.6,1.8-8,1.8-12.7h-5.1V180.2z"/>
			<path class="st25" d="M1067.8,193.2c1.1-0.6,2.4-1.1,3.7-1.3v-11.7h-5.7C1065.9,185.1,1066.6,189.6,1067.8,193.2z"/>
		</g>
	</g>
	<path class="st22" d="M1194.6,227.4c0,4.3,4,7.9,9,7.9c4.9,0,9-3.5,9-7.9c0-4.3-4-7.9-9-7.9S1194.6,223,1194.6,227.4z"/>
	<g>
		<path class="st24" d="M1199.9,267.4c5.6,21.2-9.1,77.6-9.1,77.6l10-12c0,0,11.6-43.2,4.8-68.7c-7.3-27-7.4-44.6-7.4-44.6
			s4.9-4,14.6-0.8l1.8-7.7c-17.1-5.1-25.6,5-25.6,5S1195,248.9,1199.9,267.4z"/>
		<path class="st25" d="M1199.4,234c-1.4,0.7-3,1.1-4.6,1.1c-0.7,0-1.5-0.1-2.2-0.3c2.1,10.5,4.9,23.3,7.3,32.5
			c5.6,21.2-9.1,77.6-9.1,77.6l10-12c0,0,11.6-43.2,4.8-68.7C1202.3,252,1200.4,241.6,1199.4,234z"/>
		<path class="st27" d="M1208.8,209.9c0.3,1.5,0.4,3.1,0.4,4.8c0,1.1-0.1,2.2-0.2,3.2c1.2,0.2,2.4,0.5,3.8,0.9l1.8-7.7
			C1212.5,210.5,1210.6,210.1,1208.8,209.9z"/>
		<path class="st25" d="M1207,297.8c-1.6-5-3.6-9.1-6-11.9c-1.3,25.1-10.2,59.1-10.2,59.1l10-12
			C1200.8,332.9,1205.2,316.4,1207,297.8z"/>
	</g>
	<path class="st22" d="M1138.6,227.4c0,4.3,4,7.9,9,7.9c4.9,0,9-3.5,9-7.9c0-4.3-4-7.9-9-7.9S1138.6,223,1138.6,227.4z"/>
	<g>
		<path class="st24" d="M1130,312.1c-2.6-35,7-74.7,17.6-94.5c8.7-16.2,18.5-16,18.5-16s3.9-15.6-10.8-22.3l-1.7,12.3
			c0,0,8.5,3.7,7.4,9.3c-0.5,2.7-8.5,2.8-15.4,13.7c-7.5,11.8-14,34.5-15.7,40.8c-3.2,11.9-11.5,64.1-11.5,64.1L1130,312.1z"/>
		<path class="st24" d="M1166.8,312.1c2.2-35-8.3-75.2-19.1-95c-8.9-16.2-18.4-15.5-18.4-15.5s-4.1-15.6,10.6-22.3l1.8,12.3
			c0,0-8.5,3.7-7.3,9.3c0.6,2.7,8.2,2.3,15.3,13.2c7.7,11.8,14.9,35,16.6,41.3c3.3,11.9,12.2,64.1,12.2,64.1L1166.8,312.1z"/>
		<path class="st24" d="M1141.4,213c0,3.1,2.9,5.7,6.5,5.7s6.5-2.5,6.5-5.7c0-3.1-2.9-5.7-6.5-5.7S1141.4,209.9,1141.4,213z"/>
		<path class="st25" d="M1121.9,298c2.1,1.3,4.4,2,6.7,2c0.3,0,0.6,0,1,0c0-27.3,6.4-55.6,14.2-74.2c-0.7-1.3-1.5-2.4-2.3-3.5
			c-5.7,12.1-10.2,28.1-11.6,33.1C1128,262.2,1124.5,282.1,1121.9,298z"/>
		<path class="st25" d="M1166.3,255.4c-1.4-5.1-6.6-21.9-12.6-34.2c-0.9,0.8-1.7,1.8-2.5,2.9c6.9,15.4,13.1,38.2,15.2,61.5
			c2-0.8,3.8-2.1,5.5-4C1169.6,270.4,1167.5,259.9,1166.3,255.4z"/>
		<path class="st27" d="M1144.9,213c0,1.4,1.3,2.6,2.9,2.6s2.9-1.2,2.9-2.6c0-1.4-1.3-2.6-2.9-2.6
			C1146.2,210.4,1144.9,211.6,1144.9,213z"/>
	</g>
	<path class="st28" d="M1140.3,222.8c0,3.5,3.2,6.3,7.2,6.3s7.2-2.8,7.2-6.3s-3.2-6.3-7.2-6.3
		C1143.6,216.5,1140.3,219.3,1140.3,222.8z"/>
	<path class="st28" d="M1068.8,222.8c0,3.5,3.2,6.3,7.2,6.3s7.2-2.8,7.2-6.3s-3.2-6.3-7.2-6.3
		C1072.1,216.5,1068.8,219.3,1068.8,222.8z"/>
	<path class="st28" d="M1196.4,222.8c0,3.5,3.2,6.3,7.2,6.3s7.2-2.8,7.2-6.3s-3.2-6.3-7.2-6.3S1196.4,219.3,1196.4,222.8z"/>
	<path class="st29" d="M1147.7,217.2c-2,0-3.8,0.9-4.9,2.4c0.7,2.1,2.9,3.6,5.5,3.6c2,0,3.8-0.9,4.9-2.4
		C1152.4,218.7,1150.2,217.2,1147.7,217.2z"/>
	<path class="st29" d="M1203.6,217.2c-2,0-3.8,1-4.8,2.4c1,1.4,2.7,2.4,4.8,2.4c2,0,3.8-1,4.8-2.4
		C1207.4,218.2,1205.6,217.2,1203.6,217.2z"/>
	<path class="st29" d="M1076,217.6c-2.1,0-4,1.1-4.9,2.7c0.9,1.6,2.8,2.7,4.9,2.7s4-1.1,4.9-2.7
		C1079.9,218.7,1078.1,217.6,1076,217.6z"/>
</g>
<g class="st4">
	<g class="st5">
		<path class="st30" d="M1163,409.3c-1.5,1.9-3.2,3.5-4.9,5.1c10.8,7,18,18.3,18.4,31.2c0.6,21.3-18,34.9-41.5,34.9
			s-43-13.6-43.6-34.9c-0.4-12.6,6-23.7,16.1-30.8c-1.8-1.6-3.5-3.3-5.1-5.2c-16,8.8-26.6,24.2-26.6,41.7
			c0,27.3,25.6,49.4,57.3,49.4c31.6,0,57.3-22.1,57.3-49.4C1190.2,433.6,1179.3,418.1,1163,409.3z"/>
		<path class="st30" d="M1093.7,420.4c0,0-13.3-11.2-13.3-13.1s13-11,15.8-10.5c2.8,0.4,11.2,18,11.2,18L1093.7,420.4z"/>
		<path class="st30" d="M1171.2,420c0,0,12.7-11.2,12.7-13.1s-12.4-11-15.1-10.5c-2.6,0.4-10.7,18-10.7,18L1171.2,420z"/>
		<path class="st31" d="M1168.8,396.3c-1.1,0.2-3.3,3.6-5.4,7.4c3,5.1,8.8,8.6,15.3,8.6c0.2,0,0.4,0,0.7,0c2.4-2.4,4.5-4.7,4.5-5.5
			C1183.9,404.9,1171.5,395.9,1168.8,396.3z"/>
		<path class="st31" d="M1096.2,396.8c-2.8-0.4-15.8,8.5-15.8,10.5c0,0.6,1.2,2,2.9,3.7c1.3,0.1,2.7,0.2,4.1,0.2
			c6.1,0,11.8-1.3,16.5-3.5C1101.1,402.8,1097.8,397,1096.2,396.8z"/>
		<path class="st31" d="M1076.3,444.1c3.9,24,27.7,42.5,56.6,42.5s52.7-18.5,56.6-42.5c-1.9-11.3-8.3-21.3-17.5-28.8
			c2.6,4.9,4.2,10.3,4.4,16c0.1,2.8-0.2,5.5-0.8,8.1c0.4,2,0.7,4,0.8,6.1c0.6,21.3-18,34.9-41.5,34.9s-43-13.6-43.6-34.9
			c-0.1-2.8,0.2-5.5,0.8-8.1c-0.4-2-0.7-4-0.8-6.1c-0.2-6.2,1.3-12.1,4-17.2C1085.3,421.7,1078.3,432.2,1076.3,444.1z"/>
		<g>
			<path class="st32" d="M1176.2,443.6c0.1-1.4,0.2-2.9,0.2-4.4c-0.3-11.3-6-21.4-14.7-28.5c-1.2,1.3-2.4,2.6-3.7,3.7
				C1168.3,421.1,1175.2,431.6,1176.2,443.6z"/>
			<path class="st32" d="M1132.9,494.4c-30.5,0-55.4-20.7-57.1-46.7c-0.1,1.2-0.2,2.4-0.2,3.6c0,27.3,25.6,49.4,57.3,49.4
				c31.6,0,57.3-22.1,57.3-49.4c0-1.2-0.1-2.4-0.2-3.6C1188.3,473.7,1163.4,494.4,1132.9,494.4z"/>
			<path class="st32" d="M1091.5,441.2c1.1-10.7,7-20.1,15.9-26.3c-1.3-1.1-2.5-2.3-3.6-3.5c-7.9,7-12.7,16.9-12.4,27.9
				C1091.3,439.9,1091.4,440.5,1091.5,441.2z"/>
		</g>
		<path class="st32" d="M1178.7,434.8c0,0.8,0.8,1.4,1.7,1.4c0.9,0,1.7-0.6,1.7-1.4s-0.8-1.4-1.7-1.4S1178.7,434,1178.7,434.8z"/>
		<path class="st32" d="M1085.2,436.1c0,0.8,0.8,1.4,1.7,1.4c0.9,0,1.7-0.6,1.7-1.4s-0.8-1.4-1.7-1.4S1085.2,435.4,1085.2,436.1z"/>
		<path class="st32" d="M1081.4,459.7c0,1.5,1.5,2.7,3.3,2.7s3.3-1.2,3.3-2.7s-1.5-2.7-3.3-2.7S1081.4,458.2,1081.4,459.7z"/>
		<path class="st32" d="M1179.3,456.9c0,1.5,1.5,2.7,3.3,2.7s3.3-1.2,3.3-2.7s-1.5-2.7-3.3-2.7S1179.3,455.4,1179.3,456.9z"/>
		<path class="st32" d="M1101.6,480.3c0,1.5,1.5,2.7,3.3,2.7s3.3-1.2,3.3-2.7s-1.5-2.7-3.3-2.7
			C1103.1,477.6,1101.6,478.8,1101.6,480.3z"/>
		<path class="st32" d="M1091.8,410.5c0,1.5,1.5,2.7,3.3,2.7s3.3-1.2,3.3-2.7s-1.5-2.7-3.3-2.7S1091.8,409,1091.8,410.5z"/>
		<path class="st32" d="M1166.1,409.7c0,1.5,1.5,2.7,3.3,2.7s3.3-1.2,3.3-2.7s-1.5-2.7-3.3-2.7S1166.1,408.2,1166.1,409.7z"/>
		<path class="st32" d="M1133.2,488c0,1.5,1.5,2.7,3.3,2.7s3.3-1.2,3.3-2.7s-1.5-2.7-3.3-2.7C1134.7,485.4,1133.2,486.6,1133.2,488z
			"/>
		<path class="st32" d="M1161.4,479.5c0,1.5,1.5,2.7,3.3,2.7s3.3-1.2,3.3-2.7s-1.5-2.7-3.3-2.7
			C1162.8,476.8,1161.4,478,1161.4,479.5z"/>
	</g>
	<polygon class="st33" points="1058.7,781.9 1011,778 1007.1,798 1058.7,798 	"/>
	<polygon class="st33" points="1254.7,798 1030.7,798 1045.7,524.6 1032.3,517.2 1031.5,497.2 1238.1,497.2 1238.1,509.8 
		1232.2,510.5 	"/>
	<path class="st34" d="M1045.7,524.6l-3.7,67.9c4-1.8,8.1-3.4,12.4-4.7c68.7-20.7,153.4,36.3,189,127.3c2.4,6,4.4,12,6.2,18
		l-17.4-222.5l5.8-0.7v-12.6h-206.6l0.8,20L1045.7,524.6z"/>
	<path class="st35" d="M1169.7,708.2c-4.5-80.4,20.8-159.3,64.5-211h-62.7c5.5,33.9,4.1,72.4-5.5,113.6
		c-18.9,81.1-64.3,148.1-117.9,187.2h140.2C1178.1,770.8,1171.5,740.5,1169.7,708.2z"/>
	<path class="st33" d="M1166.1,610.8c-0.1,0.6-0.3,1.2-0.4,1.8c3.6,2.6,7.2,5.4,10.8,8.3c10.1-47.7,30.3-91.1,57.8-123.7h-62.7
		C1177.1,531,1175.7,569.6,1166.1,610.8z"/>
	<path class="st36" d="M1031.9,506.6c25.7,2.3,54.7,3.7,85.4,3.7c45.9,0,87.9-2.9,120.8-7.8v-5.3h-206.6L1031.9,506.6z"/>
	<g class="st5">
		<path class="st37" d="M1115.2,560.4c-4.4-2.8-19.4-7-21.7-0.9c-2.2,6.1,5,171.2,5,171.2l11.7-0.5
			C1110.2,730.2,1119.7,563.2,1115.2,560.4z"/>
		<polygon class="st38" points="1145.3,798 1068.2,798 1062.7,791.5 1058.7,728.8 1068.7,724.1 1142,728.8 1150.9,734.9 
			1150.3,793.8 		"/>
		<path class="st39" d="M1115.1,630.3c1.4-36.2,2.1-68.7,0.2-69.9c-4.4-2.8-19.4-7-21.7-0.9c-1.2,3.2,0.3,50.8,1.9,95
			C1103.2,649.8,1109.9,641.3,1115.1,630.3z"/>
		<path class="st40" d="M1068.7,724.1l-10,4.7l0.4,6.5c13.9,1.5,29.1,2.3,45.1,2.3c16.5,0,32.3-0.9,46.6-2.5v-0.3l-8.9-6.1
			L1068.7,724.1z"/>
		<path class="st41" d="M1101.5,784.8c-13.7,0-26.8,0.5-39.1,1.5l0.3,5.1l5.4,6.5h77.2l5-4.2l0.1-6.5
			C1135.5,785.7,1118.9,784.8,1101.5,784.8z"/>
		<g>
			<polygon class="st41" points="1068.7,724.1 1068,724.4 1070.6,798 1074.3,798 1071.7,724.3 			"/>
			<polygon class="st41" points="1142,728.8 1139.8,728.6 1137.1,798 1140.8,798 1143.5,729.8 			"/>
		</g>
		<path class="st41" d="M1099,738.3c0,2.4,2.2,4.4,5,4.4s5-2,5-4.4s-2.2-4.4-5-4.4C1101.2,733.9,1099,735.9,1099,738.3z"/>
	</g>
</g>
<path class="st42" d="M1380.2,800.9v-7.3c-377.5,0.3-662.8,1.8-662.8,3.7C717.4,799.1,1002.7,800.6,1380.2,800.9z"/>
<path class="st43" d="M1071.9,822.9c0-3.6-228.3-6.6-509.9-6.6s-509.9,2.9-509.9,6.6c0,3.6,228.3,6.6,509.9,6.6
	S1071.9,826.5,1071.9,822.9z"/>
<g>
	<g>
		<path class="st44" d="M1135.7,696.1c22.8-12.9,13.9-20.5,3.1-18.7c-8.7,1.4-0.8-16.7-9.1-21.4c-1.9-1.1-1.5-3.8,0.7-5
			c6.9-3.9,13.3-10.1,4.8-17.4c-15.4-13.2-31.8-3.4-19.8-11.5c12-8.2,25.4-29,0.4-42.3c-26.2-13.9-42.2,1.2-38.1-8
			c4.2-9.4,1.6-54.5-34.8-65.4c-38.3-11.4-50.4,18.5-57.7,34.9c-7.1,16,12.2,60.3,27.5,54.3s3.5,33.8,38.3,25.9
			c34.2-7.8-5.2,14,12.9,18.5c17.7,4.4-5.5,23.7,13.4,21.9c18.7-1.9,2.8,13.5,19.5,15.2c16.3,1.7-2.1,19.4,14.6,16.4
			C1127.9,690.5,1135.7,696.1,1135.7,696.1z"/>
		<path class="st45" d="M1042.9,506.3c-35.5-10.6-48.5,14.4-56,31.1c3.5,25.7,23.3,45.4,47.2,45.4c19.9,0,36.9-13.6,44.1-33
			C1075.3,533.5,1065.7,513.2,1042.9,506.3z"/>
		<path class="st45" d="M1111.4,617.3c4.4-0.7,8.6-1.7,12.4-3.1c7.9-10,11.1-24.4-7.9-34.5c-16.7-8.8-29.2-5.9-35.1-5
			c-14.5,6.1-22.9,16.2-20,26C1064.6,613.7,1087.3,621.2,1111.4,617.3z"/>
		<path class="st45" d="M1059,602.6c2.3-7.1-1.2-14.3-7.8-16.2c-6.6-1.9-13.9,2.3-16.2,9.4c-2.3,7.1,1.2,14.3,7.8,16.2
			C1049.4,613.9,1056.6,609.7,1059,602.6z"/>
		<path class="st45" d="M1132.3,649.8c6.1-3.9,10.8-9.6,3-16.3c-2.8-2.4-5.7-4.1-8.4-5.2c-3.7-0.5-7.8-0.8-12-0.8
			c-18.4,0-33.3,5.4-33.3,12.1c0,6.7,14.9,12.1,33.3,12.1C1121.2,651.7,1127.2,651,1132.3,649.8z"/>
		<path class="st45" d="M1122.6,672c4.4,0,8.4-0.7,11.6-1.8c-0.2-5.2,0-11.7-4.4-14.2c-0.4-0.2-0.7-0.6-0.9-0.9
			c-2-0.3-4.1-0.5-6.3-0.5c-10.6,0-19.2,3.9-19.2,8.7C1103.4,668.1,1112,672,1122.6,672z"/>
		<path class="st45" d="M1091.2,624.4c0-2.6-3.9-4.7-8.7-4.7c-4.8,0-8.7,2.1-8.7,4.7c0,2.6,3.9,4.7,8.7,4.7
			C1087.3,629.1,1091.2,627,1091.2,624.4z"/>
		<path class="st45" d="M1015.5,582.1c-3.2-2.7-7.8-2.8-10.3-0.3s-1.8,6.7,1.4,9.4s7.8,2.8,10.3,0.3
			C1019.3,589,1018.7,584.8,1015.5,582.1z"/>
	</g>
	<path class="st46" d="M1230.5,587.2c-5.9,1.4-74.9,133.2-74.9,133.2l4.9,3.4L1240,592C1239.9,592,1236.4,585.9,1230.5,587.2z"/>
	<path class="st46" d="M1201.6,591c-5.8,1.9-58.9,139.9-58.9,139.9l5.2,2.9l63.7-139C1211.5,594.9,1207.3,589.1,1201.6,591z"/>
	<path class="st47" d="M1200.3,674.6l-157.6,11c0,0-4.9,74.9,2.8,111.6H1217C1219.9,753.9,1200.3,674.6,1200.3,674.6z"/>
	<path class="st48" d="M1063.9,742.5c-7.1-8.2-14.7-15.5-22.5-21.7c-0.5,24.5,0,56.1,4.2,76.3h48.3
		C1089.7,780,1079.5,760.6,1063.9,742.5z"/>
	<path class="st49" d="M1202.3,588c-2.4,0.8-11.9,22-23,48.7c4.3,1.5,8.9,1.6,13.7,0.5l20.5-44.9
		C1213.6,592.4,1208.8,585.8,1202.3,588z"/>
	<path class="st49" d="M1232.3,582.8c-2.9,0.7-18.6,27.8-35.9,59.2c4.2,1.5,8.8,2,13.7,1.6l33.2-55.1
		C1243.3,588.5,1239.3,581.2,1232.3,582.8z"/>
	<path class="st50" d="M1200.3,674.6l-151.1,10.5c-0.1,9.2,1.4,18.5,4.6,27.7c16.8,48.1,75,73.7,129.9,57.2
		c11.6-3.5,22.2-8.6,31.4-14.9C1210.5,715.9,1200.3,674.6,1200.3,674.6z"/>
	<g>
		<path class="st51" d="M1193.2,698.5c-0.7,0,1.7,32.6,5.2,72.8c0.8,9.2,1.6,17.9,2.4,26h2.3c-0.7-8.1-1.4-16.8-2.2-26
			C1197.3,731,1193.9,698.5,1193.2,698.5z"/>
		<path class="st51" d="M1074,694.3c-0.7,0,0.7,37.6,3.1,84.1c0.3,6.5,0.7,12.8,1,18.9h2.4c-0.3-6.1-0.6-12.4-0.9-18.9
			C1077.2,731.9,1074.7,694.3,1074,694.3z"/>
		<path class="st51" d="M1173.7,781.4c0.7,0-3.2-34.5-8.5-77c-1.2-9.6-2.4-18.7-3.5-27.1l-2.3,0.2c1,8.4,2.1,17.5,3.3,27
			C1168.1,746.9,1173,781.4,1173.7,781.4z"/>
		<path class="st51" d="M1144.3,797.2h2.4c-4.5-34.7-8.3-60.7-8.9-60.7C1137.2,736.5,1140,762.5,1144.3,797.2z"/>
		<path class="st51" d="M1116.2,778.5c0.7,0-3.2-34.5-8.5-77c-0.9-7-1.8-13.8-2.6-20.3l-2.3,0.2c0.8,6.4,1.6,13.2,2.5,20.1
			C1110.6,744,1115.5,778.5,1116.2,778.5z"/>
	</g>
	<g>
		<path class="st52" d="M1204.1,690.9l-162.3,15.6c-0.1,1.7-0.1,3.5-0.2,5.3l163.5-15.7C1204.8,694.3,1204.4,692.5,1204.1,690.9z"/>
		<path class="st52" d="M1209.1,715.8l-167.7,5c0,1.7-0.1,3.5-0.1,5.3l168.7-5C1209.7,719.4,1209.4,717.6,1209.1,715.8z"/>
	</g>
</g>
<g class="st4">
	<g class="st5">
		<path class="st53" d="M525.2,605.5c-28.7-10.8-22.8-30.9-11.5-37.9c11.2-7,7.4-22.8,0.6-23.3c0,0-4.8-19.5,11.3-24.4
			c0,0-12.9,11.9-0.1,17.3c12.8,5.4,15.5,14.9,10.7,28.5C549.5,612.3,525.2,605.5,525.2,605.5z"/>
		<path class="st53" d="M310.9,551.9c-4.9,10.1,3.5,14,3.5,14s11.3,1.4,9.1,20.8l-23.1,2.9C291.6,572.4,310.9,551.9,310.9,551.9z"/>
		<path class="st53" d="M398.8,548.6c6.1,9.9-6.5,15.2-6.5,15.2s-16.5,3-15.2,23.1l33.1-0.1C424.5,567.5,398.8,548.6,398.8,548.6z"
			/>
		<path class="st53" d="M379.9,538.7c6.1,9.9-6.5,15.2-6.5,15.2s-16.5,3-15.2,23.1l33.1-0.1C405.7,557.6,379.9,538.7,379.9,538.7z"
			/>
		<path class="st53" d="M362.2,555.8c9.4-13.3-9.4-24.2-17.4-26c-8-1.7-2-12.1-2-12.1s-18.8,8.4-5.3,19.4c9.2,7.5-4.6,16-4.6,16
			s-20.2,4.9-8.8,28.6l39.5-5.8C363.6,576,352.8,569.1,362.2,555.8z"/>
		<path class="st53" d="M370.5,536.5c-8.3-10.1-7.2-12.9-2.4-15.2c4.7-2.3,1.5-10,1.5-10s4.5,1.3,8.7,9.3
			C382.5,528.7,370.5,536.5,370.5,536.5z"/>
		<path class="st53" d="M317.3,543.4c-5.1-4.2-5.2-6.4-3.1-8.8c2.1-2.3,0.8-7.5,0.8-7.5s2.8,0.9,5.2,6
			C322.5,538.1,317.3,543.4,317.3,543.4z"/>
		<path class="st53" d="M446.1,572.1c-1.4-13.3-11.4-24-21.4-28.5c-10-4.4-0.9-10.2,4.1-14.8c6-5.4-4.5-11.3-4.5-11.3
			s7.2,7.7-4.5,9.8s-30.3,11-17.6,30c12.7,19-2.8,18.1-2.8,18.1l5.5,4.2L446.1,572.1z"/>
		<path class="st53" d="M509,544.7c-12.6-17-30.8-12.3-39.3-13.3s7.6-2.8,2-10.7c-3.7-5.3-10.9-3.3-10.9-3.3s15.4,4.8,0,8.9
			c-9.4,2.4-8,13.3,4.6,13.7s20.9,4.5,20,12.9c-1.3,11.7-12.2,8.5-32.4,0.8c-20.2-7.7-17.4,9.7-13.1,21.8l64.7-0.8
			C504.6,574.5,521.6,561.7,509,544.7z"/>
		<path class="st53" d="M441.2,546.9c2.5-5.1,4.6-4.5,5.5-7c0.9-2.4-5.5-8.4-4.9-9.5c0,0-4.1,5.2-2,8.2
			C442.1,542,441.2,546.9,441.2,546.9z"/>
		<path class="st53" d="M504.4,532.2c2.1-4.3,3.9-3.8,4.6-5.9c0.7-2.1-4.6-7.1-4.2-8c0,0-3.4,4.4-1.7,6.9
			C505.1,528.1,504.4,532.2,504.4,532.2z"/>
	</g>
	<g class="st5">
		<g>
			<path class="st54" d="M445.3,464.2c-1.3,0-2.5-0.6-3.2-1.6c-4.2-6.5-8.4-16.1-4.9-25c2.3-5.9,7.5-10.3,15.5-13.2
				c7.3-2.7,14.7-2.3,21.3,1c8.9,4.5,14,13.1,14.7,17.6c1,6.6-4.3,11.9-9.7,13c-4,0.8-9.6-0.4-11.9-6.6c-0.6-1.7,0.4-3.5,2.3-4.1
				s4,0.4,4.7,2.1c1.1,2.8,2.7,2.4,3.2,2.3c2-0.4,4.6-2.7,4.1-5.9c-0.4-2.8-4.5-9.5-11-12.8c-4.6-2.3-9.5-2.5-14.7-0.6
				c-5.9,2.2-9.8,5.3-11.3,9.3c-2,5.2-0.5,12.2,4.3,19.7c1,1.6,0.4,3.5-1.4,4.4C446.6,464.1,445.9,464.2,445.3,464.2z"/>
		</g>
		<g>
			<path class="st54" d="M410.7,511.4c-12.4,0-26.2-3.3-38.6-12.3c-2.4-1.8-4.8-3.5-7.2-5.3c-26.7-19.7-49.7-36.7-65.2-23.1
				c-11.4,10-4.7,20.8-2.3,23.9c4.1,5.4,10.4,8.6,14,7.3c4.3-1.6,5-4.5,5.1-5.6c0.2-1.7-0.5-2.9-1-3.1c-0.2-0.1-0.7,0.2-0.8,0.2
				c-1.8,0.9-4,0.4-5.1-1.2c-1-1.5-0.4-3.5,1.3-4.4c2.8-1.5,5.9-1.5,8.5-0.1c3.1,1.7,4.8,5.3,4.5,9.2c-0.5,4.9-4.1,9-9.6,11.1
				c-7,2.6-16.7-1.5-23-9.7c-6.5-8.5-9-21.3,3.2-32.1c20.3-17.9,47,1.8,75.2,22.7c2.4,1.7,4.8,3.5,7.2,5.3
				c17,12.5,37.3,12.5,50.6,8.4c9.8-3,17-8.7,18.3-14.3c1.9-8.2,0.2-20.9-7.6-30.8c-5.7-7.1-13.7-11.6-23.3-12.9
				c-19-2.6-33.1,2.4-38.1,8.2c-2.7,3-3.1,6.4-1.4,9.9c1.9,3.8,7.6,7.2,13.6,8.1c4,0.6,7.4-0.1,9.2-1.8c3-2.8,1.8-5.9,1.1-7
				c-1.2-2-3.1-3.1-4.3-3c-2,0.2-3.8-1.1-4-2.9s1.3-3.4,3.3-3.5c4.5-0.4,9.2,2.2,11.6,6.6c2.8,4.9,1.9,10.3-2.2,14.3
				c-3.5,3.4-9.3,4.8-15.8,3.8c-8.6-1.3-16.3-6-19.2-11.9c-2.9-5.7-2-11.6,2.3-16.5c7.9-9,26-13.2,45.1-10.6
				c11.6,1.6,21.4,7,28.2,15.6c8,10.1,11.5,24.1,8.8,35.8c-1.8,7.9-10.7,15.3-23.1,19.1C424.4,510.3,417.8,511.4,410.7,511.4z"/>
		</g>
		<path class="st55" d="M433.1,500.3c-1.7,0.8-3.6,1.6-5.6,2.2c-13.3,4.1-33.5,4.1-50.6-8.4c-2.4-1.8-4.8-3.5-7.2-5.3
			c-1.4-1-2.7-2-4.1-3c-3,0.5-5.9,1.3-8.7,2.1c2.6,1.9,5.3,3.9,8,5.9c2.4,1.8,4.8,3.5,7.2,5.3c12.3,9,26.2,12.3,38.6,12.3
			c7.1,0,13.7-1.1,19.2-2.8c3-0.9,5.7-2,8.3-3.3C436.7,503.5,435,501.9,433.1,500.3z"/>
		<path class="st55" d="M319.5,487.6c-2.5-1.4-5.6-1.4-8.5,0.1c-1.8,0.9-2.4,2.9-1.3,4.4c1,1.5,3.3,2.1,5.1,1.2
			c0.1-0.1,0.6-0.3,0.8-0.2c0.5,0.3,1.2,1.5,1,3.1c-0.1,1.2-0.8,4-5.1,5.6c-3.6,1.3-9.9-1.9-14-7.3c-1.4-1.8-4.2-6.1-4.1-11.4
			c-2.5,1.7-4.8,3.8-6.6,6.2c0.9,3.2,2.5,6.3,4.5,8.9c6.3,8.2,16,12.3,23,9.7c5.6-2.1,9.2-6.2,9.6-11.1
			C324.3,492.9,322.5,489.3,319.5,487.6z"/>
	</g>
	<path class="st56" d="M290,597.2c-5-7.2,46.1-26.7,56.2-20.2c0,0,32.7-14.5,45.3-8c0,0,15.1-5.8,27.7-5.8s33.6,9.4,33.6,9.4
		s17.6-13.7,34.4-10.1c16.8,3.6,21.8,7.2,21.8,7.2s34.4,2.9,41.1,21c6.7,18.1-195.5,33.2-195.5,33.2L290,597.2z"/>
	<g class="st5">
		<path class="st57" d="M503.2,567c-3.4-1.3-8.5-2.9-16-4.5c-14.3-3.1-29.3,6.5-33.3,9.3c5.3,4.4,15.7,6.5,27.1,4.9
			C490.8,575.3,498.9,571.6,503.2,567z"/>
		<path class="st57" d="M437.8,576c4.5-1.2,8.7-2.8,12.6-4.4c-5.8-2.4-21.2-8.4-31.2-8.4c-6.4,0-13.5,1.5-18.9,3
			c-1.4,2.1-2,4-1.7,5.9C400,579.9,417.6,581.7,437.8,576z"/>
		<path class="st57" d="M390.4,568.5c-9.3-3.7-27.2,1.9-37.2,5.6c4.6,2.4,11.2,3.5,18.5,2.7C380.1,575.9,387.1,572.6,390.4,568.5z"
			/>
		<path class="st57" d="M394,578.3c-0.8-2.1-3.5-3.5-7.2-2.7c-6.2,1.3-13.1,8-9.9,13.3c2.9,4.8,10.7,1.9,14.7-2.6
			C394,583.5,394.8,580.3,394,578.3z"/>
		<path class="st57" d="M320.2,585.8c10.5-1.7,19.4-5.2,24.8-9.4c-7.7-2.9-29.3,3.3-43.1,10C307.4,587,313.7,586.8,320.2,585.8z"/>
		<path class="st57" d="M529,582.1c4.8,0,9.3-0.6,12.9-1.6c-11.4-8.4-29.7-10.5-32.5-10.8c-1.5,1.2-2.4,2.5-2.4,3.8
			C507,578.3,516.9,582.1,529,582.1z"/>
		<path class="st57" d="M504.1,582.7c-0.3-3.2-5.3-5.4-11.1-5c-5.8,0.4-10.2,3.4-9.9,6.6c0.3,3.2,5.3,5.4,11.1,5
			C500,588.9,504.4,585.9,504.1,582.7z"/>
		<path class="st57" d="M461.4,584.7c-0.5-5.4-9.4-7.9-19.8-5.6c-10.4,2.3-18.5,8.6-17.9,14c0.5,5.4,9.4,7.9,19.8,5.6
			C453.9,596.3,461.9,590.1,461.4,584.7z"/>
	</g>
	<polygon class="st58" points="561.8,608 264,603.7 261.5,803.9 562.7,816.9 	"/>
	<g class="st5">
		<path class="st59" d="M334.3,784.2c-17.9-3.1-35.2,4.1-55.7,20.4l79.1,3.4C356,800.4,348.6,786.7,334.3,784.2z"/>
		<path class="st59" d="M406.2,809c3.4-4.4-1.7-24.7-15.1-32.4s-37.8-2.6-39.9,4.4c-1.8,5.9,8.4,20.4,23.5,27.7l30.2,1.3
			C405.5,809.8,405.9,809.4,406.2,809z"/>
		<path class="st59" d="M348.7,760.1c-5.9-1.5-24.8,4.8-24.8,10.3s7.4,10,17.6,7.7C345,777.4,354.6,761.6,348.7,760.1z"/>
		<path class="st59" d="M271.2,804.3c13.8-6.5,36-28.3,29.7-35c-6.4-6.9-30-13-38.9-11l-0.5,43.7c0.2,0.7,0.5,1.3,0.7,1.9
			L271.2,804.3z"/>
		<path class="st59" d="M307.5,762.1c12.8,2.9,36.6-20.4,27.1-26s-32.8-13.3-40.2-10.2c-7.5,3.1-18.9,15.5-16.9,20.8
			C279.4,752.1,284.1,756.8,307.5,762.1z"/>
		<path class="st59" d="M272.4,738c1.3-3.7,20.6-21.7,18-29.8c-2.2-7-19.5-16.9-27.5-16.5l-0.7,52.8
			C265.5,747,270.1,744.7,272.4,738z"/>
		<path class="st59" d="M318.1,720.7c1.7,0,7.1-10.3,7.1-16.6s-10.9-11.4-19.7-11c-8.8,0.4-6.3,12.5-6.7,19.5
			C298.4,719.6,305.8,720.7,318.1,720.7z"/>
		<path class="st59" d="M368,725.5c-2.9-7.4-11.3-24.3-23.1-29.1c-11.7-4.8-13.8,17.3-14.3,24.3c-0.4,7,18.2,24.9,25.2,27.6
			C362.6,750.9,371,732.9,368,725.5z"/>
		<path class="st59" d="M420.9,741.3c-3.4-10.3-26-20.2-33.6-20.2s-22,36.2-18.9,41.6c1.3,2.2,36.9,8.1,44,7.4
			C419.6,769.3,424.2,751.6,420.9,741.3z"/>
		<path class="st59" d="M426.8,789.5c-6.8-1.8-16.5,11-10.2,21l31.7,1.4c1.6-0.5,2.9-1.1,3.7-1.8
			C457.4,805.4,433.9,791.4,426.8,789.5z"/>
		<path class="st59" d="M436.8,757.9c-6.7-0.7-16.1,16.6-15.5,21.3c0.4,3.3,24.3,7,28.5,1.8C454,775.9,443.5,758.6,436.8,757.9z"/>
		<path class="st59" d="M372.2,688.7c-6.7,3.7-5.3,15.9,0,22.5c4.2,5.2,29.4-12.1,26.4-16.9C395.7,689.4,378.9,685,372.2,688.7z"/>
		<path class="st59" d="M322.3,687.2c10.5,7.4,20.4,0.8,30.6,1.8c3.8,0.4,6.7-22.1,0.4-27.6c-6.3-5.5-18.9-8.5-28.9-5.5
			C314.3,658.9,311.8,679.9,322.3,687.2z"/>
		<path class="st59" d="M306.4,685.4c3.8-3.3-3.4-20.6-9.6-23.2c-6.3-2.6-24.8,8.8-23.9,16.9c0.8,8.1,6.5,10.2,17.6,12.1
			C294.6,692,302.6,688.7,306.4,685.4z"/>
		<path class="st59" d="M266.1,666.6c6.7,0.4,22.2-17.7,18.9-25.4c-2.7-6.3-15-14.4-21.2-15.7l-0.5,38.9
			C264.1,665.7,265,666.5,266.1,666.6z"/>
		<path class="st59" d="M306.4,654.1c15.5-0.4,22.7-15.1,10.5-16.6C304.7,636.1,294.7,654.4,306.4,654.1z"/>
		<path class="st59" d="M344.5,647.5c10.1,1.1,40.3-22.8,34-26.9c-6.3-4-13.8-4.8-26.4-6.6s-19.3,8.1-21.8,13.2
			C327.8,632.4,334.6,646.4,344.5,647.5z"/>
		<path class="st59" d="M361.7,654.5c-2.9,5.5,1.9,18.2,10.1,22.5c4.2,2.2,15.9-17.3,15.9-17.3s-1.3-9.9-8.4-13.6
			C372.2,642.3,364.7,648.9,361.7,654.5z"/>
		<path class="st59" d="M412.9,688.7c-7.1-0.4-15.6,23.7-6.7,28.3c8.4,4.4,30.2-10.3,28.5-16.2C433.1,694.9,420.1,689.1,412.9,688.7
			z"/>
		<path class="st59" d="M410.4,648.9c-8,0.4-23.1,23.9-23.5,28.7s6.7,5.5,15.1,5.5c2.5,0,36.1-8.5,32.3-15.8
			C430.5,660,418.4,648.6,410.4,648.9z"/>
		<path class="st59" d="M421.7,621.7c-7.6-4.8-30.6-9.9-34.8-2.2c-4.2,7.7,2.9,20.1,7.1,25.4C400.8,653.4,429.3,626.5,421.7,621.7z"
			/>
		<path class="st59" d="M464.9,756.4c-8-1.1-9.6,26.5-10.5,33.5c-0.8,7,6.6,13.9,15.1,21.3c10.5,9.2,25.2-28.7,19.7-35
			C483.8,770,472.9,757.5,464.9,756.4z"/>
		<path class="st59" d="M496.8,794.3c-4.6,1.4-8.3,13.9-8.1,19.4l22.5,1c0.9-0.5,1.7-1,2.3-1.6C519.1,807.9,501.9,792.9,496.8,794.3
			z"/>
		<path class="st59" d="M460.3,735.4c0-5.9-6.3-23.2-13.4-26.1c-7.1-2.9-24.3,9.9-25.2,17.7c-0.8,7.7,23.2,20.9,30.2,25.4
			C458.2,756.4,460.3,741.3,460.3,735.4z"/>
		<path class="st59" d="M454.9,673.2c-7.6-1.8-17.2,5.5-18,10.7s6.5,17.7,19.7,17.7c2.9,0,16.8-8.1,15.9-16.2
			C471.7,677.3,462.4,675.1,454.9,673.2z"/>
		<path class="st59" d="M443.5,661.8c1.7,3.3,22.7-1.5,26.8-5.9c4.2-4.4,1.3-27.6-3.8-32.8c-5-5.2-15.1-6.3-23.9-6.3
			s-16.4,18.8-17.2,25C424.7,648.2,441.1,657,443.5,661.8z"/>
		<path class="st59" d="M505.6,623.2c-5-4.4-20.6-4.4-27.3-1.8c-6.7,2.6-2.9,18.1,2.9,25.8C485.5,652.6,510.7,627.6,505.6,623.2z"/>
		<path class="st59" d="M488.9,680.6c6.7,1.1,22.2-11.8,19.7-17.3s-10.1-9.6-17.2-9.2c-7.1,0.4-15.5,6.6-18,12.5
			C470.8,672.5,478.1,678.8,488.9,680.6z"/>
		<path class="st59" d="M521.2,654.8c4.2,2.6,18,11.8,23.9,9.2s8-32.4,3.4-36.4s-18.5-8.5-26.8-7.4c-8.4,1.1-14.7,19.1-15.5,23.6
			C505.2,648.2,512.4,649.4,521.2,654.8z"/>
		<path class="st59" d="M558.5,626.1c-3.7-0.4-4,42.9,3.6,47.4l-0.2-44.6C560.6,627.3,559.4,626.2,558.5,626.1z"/>
		<path class="st59" d="M540.9,814.6c0.3,0.6,0.8,1,1.5,1.4l20.4,0.9l-0.2-46.7c-0.1-0.1-0.2-0.1-0.2-0.2
			C557.6,767.8,537.4,809,540.9,814.6z"/>
		<path class="st59" d="M525.8,672.5c-2.1,6.6,24,29.7,34.4,34.6c0.8,0.4,1.5,0.2,2.1-0.3l-0.1-25.9
			C556.6,674.1,527.8,666.1,525.8,672.5z"/>
		<path class="st59" d="M493,709.3c5.9,3.7,28.1-22.5,21.4-28.7c-6.7-6.3-25.6,6.3-31.5,9.2C477.1,692.7,485.6,704.6,493,709.3z"/>
		<path class="st59" d="M510.7,714.8c0.4,4,9.2,14.4,19.7,11.8c2.9-0.7,15.1-12.1,12.2-18.4c-2.9-6.3-12.2-14-17.2-16.2
			C520.3,689.8,510.2,710.8,510.7,714.8z"/>
		<path class="st59" d="M554.3,715.9c-4.2-2.2-18.5,19.1-19.3,24.7c-0.8,5.5,15.5,16.7,23.9,19.5c1.6,0.5,2.8-1,3.5-3.6l-0.1-32.6
			c0-0.1,0-0.1,0-0.2C560.6,717,558.5,718.1,554.3,715.9z"/>
		<path class="st59" d="M509,784.8c0,6.6,11.7,16.4,16.8,22.1c4.6,5.2,23.9-27.6,23.9-34.2c0-6.6-4.6-9.6-10.9-12.5
			C532.5,757.1,509,778.1,509,784.8z"/>
		<path class="st59" d="M527.4,742.1c-2.9-5.5-18.5-16.2-22.7-15.1c-4.2,1.1,0.1,34.9,6.3,40.9C515.3,771.9,530.4,747.6,527.4,742.1
			z"/>
		<path class="st59" d="M486.3,725.3c-5.8-1-11.2,16.8-11.3,24.5c-0.1,7.7,6.9,6.4,11.9,10.9c4.8,4.3,12.1,14.3,15.5,14.1
			C505.7,774.6,492.1,726.3,486.3,725.3z"/>
		<path class="st59" d="M467.5,722.2c2.1,0.7,12.6-3.7,12.2-8.5s-2.1-6.3-8.4-7.7C464.9,704.5,459.4,719.4,467.5,722.2z"/>
	</g>
	<path class="st60" d="M701.5,513.1c-10.1-20.6-31-42-29.8-46.4c1.3-4.4,13-17.7,14.7-20.2c1.7-2.6-1.7-8.1,0-12.9
		s13-58.9,25.2-67.7c12.2-8.8,42.8,30.5,43.6,54.5C756.1,444.3,701.5,513.1,701.5,513.1z"/>
	<path class="st61" d="M700.2,385.8c-7.2,19.1-12.7,44.6-13.8,47.8c-0.8,2.1-0.5,4.4-0.1,6.5c6.7-3.5,13-15.7,15-30.8
		C702.5,400.4,702,392.1,700.2,385.8z"/>
	<path class="st61" d="M686.4,446.5c-1.6,2.4-11.9,14.1-14.3,19.3c0.6,0.1,1.3,0.2,1.9,0.2c7.6,0,13.8-6.3,13.8-14.1
		c0-2.1-0.5-4.1-1.3-5.9C686.6,446.2,686.5,446.4,686.4,446.5z"/>
	<path class="st62" d="M713.2,467.1l-5.8,0.4l0.8-3.5c-13.5-11.3-32.9-4.9-32.9-4.9s-4.2,6.9-4.2,7.5l31.4,31.2
		c14.6-0.7,21.2-12.6,21.2-12.6L713.2,467.1z"/>
	<path class="st63" d="M692.9,457.7c-9.5-1.2-17.7,1.4-17.7,1.4s-4.2,6.9-4.2,7.5l7.9,7.8c0.8-0.2,1.7-0.4,2.5-0.6
		C692.3,471.1,696,458.1,692.9,457.7z"/>
	<path class="st64" d="M631.8,516.8c38.9,2.7,79.2-5.7,80.2-6.7c1.1-1-12.8-49-35.4-45c-25.2,4.5-53,22.6-54.4,23.6
		C620.7,489.8,631.8,516.8,631.8,516.8z"/>
	<path class="st65" d="M649.2,495c24.2-2.9,42.6-12.9,41.1-22.3c-0.4-2.7-2.5-5-5.7-6.9c-2.5-0.9-5.2-1.2-8-0.7
		c-25.2,4.5-53,22.6-54.4,23.6c-0.4,0.3,0.2,2.8,1.3,6.2C630.9,496.1,639.8,496.2,649.2,495z"/>
	<path class="st64" d="M659.1,509.8c-12.5,9-22.1,19.1-27.3,21.6c-5.2,2.4-36.6-4.6-40.8-8.1s3-20.5,6.3-25.8s31-11.7,31-11.7
		S668.4,503.1,659.1,509.8z"/>
	<path class="st66" d="M692.9,522c-18.9,107.7,44.7,278.8,44.7,278.8c4.4,2.8,42.2-146.3,46.6-181.6c4.4-35.3-1.9-101.6-1.9-101.6
		L692.9,522z"/>
	<path class="st67" d="M782.3,517.5l-89.4,4.4c-7.9,44.8-1.4,100.6,8.7,150.4c17.2-2.6,37.8,26.5,46,65c1.8,8.6,2.9,16.9,3.2,24.7
		c12.8-46,30.4-119.5,33.3-143C788.6,583.8,782.3,517.5,782.3,517.5z"/>
	<path class="st58" d="M821.3,516.4c12.6,65.7-6.3,289.3-6.3,289.3l-4.4,0.6c0,0-59.1-134.7-66.1-149.1
		c-6.9-14.4-23.3-72.9-23.3-72.9l-11.3-26.5l8.2-38.6L821.3,516.4z"/>
	<path class="st68" d="M764.6,677.2c17.2-3.8,41.4,28.9,54.5,73.3c4.7-70.6,10.8-189.2,2.2-234.1l-103.2,2.8l-8.2,38.6l11.3,26.5
		c0,0,16.4,58.5,23.3,72.9c1.6,3.3,5.9,12.9,11.6,25.8C758.5,679.9,761.3,677.9,764.6,677.2z"/>
	<path class="st69" d="M696.9,535.6c61.2,16.2,128.4,18.4,132.6,14.7c4.2-3.7-5.9-42.7-5.9-42.7s38.6-127.3,10.1-142.1
		c-28.5-14.7-56.2-25-68.8-24.3S712,364,710.4,371.4C708.7,378.8,696.9,535.6,696.9,535.6z"/>
	<path class="st56" d="M679.1,649.5c42.8,14.4,101.9,12.1,101.9,12.1s-2.5-128.1,3.1-147.4c5.7-19.3-42.2-92.2,30.2-159
		c0,0-39.2-16.7-49.4-15.2c-17,2.5-51,21-54.7,27.1c-3.8,6.1-13.5,91.9-14.2,99.1c-0.6,7.2-18.9,102.7-20.1,113.7
		C674.7,591,679.1,649.5,679.1,649.5z"/>
	<path class="st70" d="M814.4,355.2c0,0-39.2-16.7-49.4-15.2c-17,2.5-51,21-54.7,27.1c-1.2,2-3.1,12.5-5.1,26
		c16.9,6.9,42.8,2.2,69.1-11.7c-1.1,11.7-3.8,24.1-8.4,36.8c-15.6,42.8-47.1,73.1-74.1,73.6c-2.9,16-6.7,36.7-9.9,54.2
		c5.2-2.9,10.9-4.7,16.8-5c33.5-1.8,63.9,41.8,67.8,97.4c0.6,8,0.5,15.9,0,23.4c9,0.1,14.6-0.1,14.6-0.1s-2.5-128.1,3.1-147.4
		C789.8,494.9,742,422,814.4,355.2z"/>
	<path class="st71" d="M750.6,468.6c12.6-5.2,21-22.8,21.8-31.7c0.8-8.8,10.1-68.5,42.8-74.3c32.7-5.9,36.9,51.5,36.9,60.4
		s6.7,11.8,4.2,19.1c-2.5,7.4-35.2,69.2-57.9,74.3C775.8,521.6,750.6,468.6,750.6,468.6z"/>
	<path class="st60" d="M852.1,422.8c0-8.8-4.4-66.2-37.1-60.3c-8.6,1.6-15.6,6.9-21.2,14c3.1-1.1,6.4-1.6,9.7-1.5
		c20.6,0.7,34.9,25.7,31.8,54.6c-2.9,27.7-45.2,26.8-68.3,22.8c-3.8,6.8-9.4,13.4-16.3,16.3c0,0,25.4,52.9,48,47.7
		s55.1-67.1,57.6-74.5C858.8,434.6,852.1,431.6,852.1,422.8z"/>
	<path class="st62" d="M810.3,480l-7.9-1.4l2.5-4.4c-12.9-19.3-41.2-17.4-41.2-17.4s-8.5,7.7-8.8,8.6l28,51.6
		c19.5,3.9,33.4-9.7,33.4-9.7L810.3,480z"/>
	<path class="st63" d="M798.9,467.4c-14.1-12-35.1-10.6-35.1-10.6s-8.5,7.7-8.8,8.6l7,12.9c1.2,0.1,2.3,0.1,3.5,0.1
		C781.1,478.3,794.3,473.7,798.9,467.4z"/>
	<path class="st65" d="M707.8,520.5c43.6,4.8,89.4-2.9,90.6-4c1.3-1.1-11.6-55.7-37.3-52.2c-28.6,3.9-60.9,23.1-62.5,24.2
		C696.9,489.6,707.8,520.5,707.8,520.5z"/>
	<path class="st64" d="M761.1,464.3c-0.3,0-0.6,0.1-0.9,0.1c12.4,2.3,19.8,10.1,19.8,16.7c0,12.5-27.3,22.6-61,22.6
		c-5.9,0-11.7-0.3-17.1-0.9c2.7,8.5,5.9,17.7,5.9,17.7c43.6,4.8,89.4-2.9,90.6-4C799.7,515.3,786.9,460.7,761.1,464.3z"/>
	<path class="st71" d="M765,340c-10.7,1.6-28,9.4-40.4,16.6c-8.8,13.4-12.6,32.9-11.3,52.4l52.4,11.4c7.5-36.6,25.9-58.4,38.2-69.4
		C791.6,346.2,771.8,339,765,340z"/>
	<path class="st60" d="M717.1,407.3c-1.3-19.5,2.5-39,11.3-52.4c5.1-3,2.4-1.9-3.8,1.7c-8.8,13.4-12.6,32.9-11.3,52.4l52.4,11.4
		c0.2-0.8,0.4-1.6,0.5-2.4L717.1,407.3z"/>
	<path class="st60" d="M765,340c-10.4,1.5-27,9-39.3,16c-0.7,1.8-0.9,3.6-0.7,5.4c1.5,12.5,25,20.9,54.7,20.5
		c7.9-14.4,17.1-24.5,24.3-30.9C791.6,346.2,771.8,339,765,340z"/>
	<path class="st64" d="M797.1,348.4c-11.9-4.4-26.4-9.2-32.1-8.3c-8.3,1.2-20.5,6.2-31.4,11.7c-0.9,11.9,1.1,23.7,8.6,35.3
		c16.8-18.8,55-38.5,55-38.5L797.1,348.4z"/>
	<path class="st72" d="M791.8,349.5c2-21.1,2.5-41-1.4-57.2l-49.5,0.7l-9.3,51.2c0,0,3.1,11.5,20.3,13.7
		C769,360.2,791.8,349.5,791.8,349.5z"/>
	<path class="st73" d="M795.5,314.5c4.9,11-2.1,18.9-2.1,18.9s4.8,15.9-12.7,12.1c0,0-8.5,6.6-17.2,0.1c0,0-3.6,13.7-15.9,12
		c-14.1-2-13.3-8.5-13.3-8.5s-14.4,1.4-20.4-8s5.5-17.1,5.5-17.1s-5.2-5.2-3-8.9c2.2-3.7,6.8-2.9,6.8-2.9s-6.9-6-4.9-11.6
		c2-5.5,6.8-12.6,6.8-12.6s-10.7-6.5-7.1-13.8c3.6-7.3,7.8-6.5,7.8-6.5s-13.3-3-10.8-8.5c2.4-5.6,6.6-6.3,6.6-6.3s-14-6.8-11.7-18.7
		s17.5-9.4,17.5-9.4s-5.2-4.6,6.8-10.2c12-5.6,27.6,2.8,27.6,2.8s0.7-6.2,13.9-1.9s15.7,12.8,15.7,12.8s11.2-9.5,23.6-1.9
		c12.3,7.5,2.1,23.5,2.1,23.5s5,1.7,5.8,7.6c0.8,5.8-6.7,6.1-6.7,6.1s3.1-3.2,5,5.7c1.9,8.8-9.5,22.8-9.5,22.8s6.3-2.1,6.5,10.8
		C818.3,315.6,795.5,314.5,795.5,314.5z"/>
	<g class="st5">
		<path class="st74" d="M726.3,346.4c0,0-1.5,0.6-3.9,1.1c1.8,0.6,3.6,0.9,5.2,1.1C726.6,347.5,726.3,346.4,726.3,346.4z"/>
		<path class="st74" d="M817.4,302.3c-0.3-12.9-6.5-10.8-6.5-10.8s11.4-14,9.5-22.8c-0.9-3.9-1.9-5.5-2.9-6c2.2-0.5,5.1-2,4.6-5.8
			c-0.8-5.8-5.8-7.6-5.8-7.6s10.2-16-2.2-23.5s-23.6,2-23.6,2s-2.5-8.3-15.4-12.6c0.2,4.4-0.7,7.9-0.7,7.9s5.4,0.4,8.1,6.2
			c1.8,3.7-0.7,6-2.6,7.1c1.1,0.3,2.6,1.6,4.7,5.4c4.7,8.5-1.9,25.8-1.9,25.8s5.4-3.8,9.9,9.3c4.5,13.1-18.1,18-18.1,18
			c8.3,9.9,4.1,19.9,4.1,19.9s9.8,15-8.4,15.7c0,0-6.1,9-16.7,4.6c0,0,0.9,15-11.6,16.5c-3,0.4-5.4,0.3-7.4,0.1
			c1.3,2,4.5,4.5,12.4,5.6c12.3,1.7,15.9-12,15.9-12c8.7,6.5,17.2-0.1,17.2-0.1c17.5,3.9,12.7-12.1,12.7-12.1s7-8,2.1-18.9
			C794.9,314.2,817.7,315.3,817.4,302.3z"/>
	</g>
	<path class="st65" d="M731.9,308c6.9-1.3,35.4,4.8,41.2,6.1c5.8,1.3,6.3-13.3,5.8-16.5c-0.5-3-3.8-18.4-5.1-19.6s-29.7-14-37.1-14
		c-7.4,0-12.4,17.2-12.4,17.2s5.9,4,7.3,9.2C732.9,295.6,727.2,308.9,731.9,308z"/>
	<path class="st64" d="M773.7,278c-0.4-0.3-3.1-1.7-6.9-3.4c-5.9,2.8-11,9.2-12.9,17.3c-1.6,6.9-0.6,13.7,2.2,18.7
		c7.5,1.4,14.4,2.9,17,3.5c5.8,1.3,6.3-13.3,5.8-16.5C778.4,294.6,775.1,279.2,773.7,278z"/>
	<path class="st75" d="M741.8,297.1c-2.7-9.8-10.3-19-16.7-20s-8.8,6.4-5.6,16.1c3.1,9.3,10.2,17.3,16,18.4
		C741.5,312.7,744.4,306.4,741.8,297.1z"/>
	<path class="st76" d="M738,296.9c-2-7.3-7.7-14.2-12.5-15s-6.6,4.8-4.2,12.1c2.3,6.9,7.6,13,12,13.8
		C737.8,308.6,740,303.9,738,296.9z"/>
	<path class="st77" d="M737.3,296.5c-1.7-6.2-6.4-11.9-10.5-12.6c-4-0.7-5.5,4-3.5,10.1c1.9,5.8,6.4,10.9,10.1,11.6
		C737.1,306.4,738.9,302.4,737.3,296.5z"/>
	<path class="st78" d="M736.8,296.4c-1.5-5.3-5.5-10.2-9-10.8c-3.5-0.6-4.8,3.5-3,8.7c1.7,5,5.5,9.4,8.7,10
		C736.7,304.9,738.2,301.5,736.8,296.4z"/>
	<path class="st79" d="M735.7,293.3c-1.9-4-5-7.2-7.7-7.7c0.1,0.2,0.3,0.4,0.4,0.6c2,4.2,0.9,8.6-2.2,11c1.8,3.5,4.5,6.2,7,6.9
		C731.3,299.9,732.4,295.6,735.7,293.3z"/>
	<path class="st65" d="M738.4,283.6c-3.1,8.9-3.5,29.8-1.9,31.7c1.5,1.9,17.3-3.9,18.4-5c1.1-1.1-4.8-10-4.8-10L738.4,283.6z"/>
	<path class="st72" d="M754.6,308.4c-4.8,2-14.7,5.3-15.9,3.8c-1.1-1.4-1.2-13.9,0.2-23.6l-1.6-0.4c-2,10-2.1,25.5-0.8,27.1
		c1.5,1.9,17.3-3.9,18.4-5C755.1,310,755,309.3,754.6,308.4z"/>
	<path class="st65" d="M688.4,492.4c-3.2-1.2-16.3-1.4-21.3-1.2c-5,0.2-14.7,9.5-14.5,11.9s3.8,12.9,6.8,17.8
		c3,4.9,2.8,4.2,11.9,4.7l19.6-5.1C691,520.5,691.7,493.6,688.4,492.4z"/>
	<polygon class="st80" points="460.1,490.5 459.6,496.6 698,519.8 709.3,510.4 	"/>
	<path class="st65" d="M702.5,487.3c-14.2,2.7-37.1,1.7-39.6,6.3c-2.4,4.6,3.4,33.3,7.8,37.4c4.5,4.1,28.4,3.1,34.3,0.5
		c5.9-2.6,14.9-14.2,14.9-14.2S714.2,485.1,702.5,487.3z"/>
	<polygon class="st81" points="468.3,486.1 435.1,482.7 433.1,497.8 466.4,501.1 	"/>
	<path class="st10" d="M689.6,822.7h60.3c-1-8.1-3.3-29.3-5.6-38.2l-12.9-1.5c0,0,1.4,22.3-7.3,26.1
		C715.4,812.8,695.1,811.4,689.6,822.7z"/>
	<path class="st10" d="M833.1,822.7h-38c0,0,2.1-7.7,8.7-12.6c3.1-2.3-1.1-21.7-1.1-21.7l14.4-9.4c0,0,0.4,27.4,4.8,30.3
		C829.9,814.6,833.1,817.3,833.1,822.7z"/>
	<path class="st82" d="M280.8,611.4c-6-0.4,2.5,15.5,12.2,20.2c9.6,4.8,39.4-13.6,31.9-18.8C317.3,607.7,285.8,611.8,280.8,611.4z"
		/>
	<g class="st5">
		<path class="st83" d="M275.1,803c22-18.2,40.3-26.5,59.1-23.2c18.9,3.3,25.8,25.9,23.3,28.7S275.1,803,275.1,803z"/>
		<path class="st83" d="M383.6,807.6c-19.7-4.8-34.4-23.9-32.3-30.9s26.4-12.1,39.9-4.4c13.4,7.7,18.5,28,15.1,32.4
			C402.9,809,383.6,807.6,383.6,807.6z"/>
		<path class="st83" d="M341.6,773.7c-10.2,2.2-17.6-2.2-17.6-7.7s18.9-11.8,24.8-10.3C354.6,757.1,345,773,341.6,773.7z"/>
		<path class="st83" d="M264,801.7c-4.6-0.7-8.4-40.1-5-46s34.4,1.1,41.9,9.2C308.5,773,274.5,803.2,264,801.7z"/>
		<path class="st83" d="M307.5,757.6c-23.4-5.2-28-10-30-15.3s9.4-17.7,16.9-20.8s30.7,4.6,40.2,10.2
			C344.1,737.2,320.2,760.5,307.5,757.6z"/>
		<path class="st83" d="M272.4,733.6c-2.9,8.5-9.6,9.9-12.6,3.3c-2.9-6.6-5-43.8,0-48.6s28.1,7.4,30.6,15.5
			C292.9,711.9,273.6,729.9,272.4,733.6z"/>
		<path class="st83" d="M318.1,716.3c-12.3,0-19.7-1.1-19.3-8.1c0.4-7-2.1-19.1,6.7-19.5c8.8-0.4,19.7,4.8,19.7,11
			C325.2,706,319.8,716.3,318.1,716.3z"/>
		<path class="st83" d="M355.9,743.9c-7-2.7-25.6-20.6-25.2-27.6s2.5-29.1,14.3-24.3c11.7,4.8,20.1,21.7,23.1,29.1
			C371,728.4,362.6,746.5,355.9,743.9z"/>
		<path class="st83" d="M368.5,758.3c-3.1-5.4,11.3-41.6,18.9-41.6s30.2,9.9,33.6,20.2s-1.3,28-8.4,28.7
			C405.4,766.4,369.7,760.5,368.5,758.3z"/>
		<path class="st83" d="M417.5,807.6c-8.3-10.2,2.1-24.3,9.2-22.5s30.6,15.8,25.2,20.6C446.5,810.5,419.6,810.2,417.5,807.6z"/>
		<path class="st83" d="M421.3,774.8c-0.6-4.8,8.8-22.1,15.5-21.3c6.7,0.7,17.2,18,13,23.2C445.6,781.8,421.7,778.1,421.3,774.8z"/>
		<path class="st83" d="M372.2,706.7c-5.3-6.6-6.7-18.8,0-22.5s23.5,0.7,26.4,5.5C401.6,694.6,376.4,711.9,372.2,706.7z"/>
		<path class="st83" d="M352.9,684.6c-10.3-1-20.1,5.5-30.6-1.8c-10.5-7.4-8-28.3,2.1-31.3c10.1-2.9,22.7,0,28.9,5.5
			C359.6,662.6,356.7,685,352.9,684.6z"/>
		<path class="st83" d="M290.4,686.9c-11.1-1.9-16.8-4-17.6-12.1c-0.8-8.1,17.6-19.5,23.9-16.9s13.4,19.9,9.6,23.2
			C302.6,684.3,294.6,687.6,290.4,686.9z"/>
		<path class="st83" d="M266.1,662.2c-7.7-0.4-8.8-38.3-5.5-40.9c3.4-2.6,21,7.7,24.3,15.5C288.3,644.5,272.8,662.6,266.1,662.2z"/>
		<path class="st83" d="M306.4,649.7c-11.7,0.3-1.7-18,10.5-16.6C329,634.6,321.9,649.3,306.4,649.7z"/>
		<path class="st83" d="M344.5,643.1c-9.9-1.1-16.8-15.1-14.3-20.2c2.5-5.2,9.2-15.1,21.8-13.3c12.6,1.8,20.1,2.6,26.4,6.6
			C384.8,620.2,354.6,644.2,344.5,643.1z"/>
		<path class="st83" d="M371.8,672.5c-8.2-4.3-13-16.9-10.1-22.5c2.9-5.5,10.5-12.1,17.6-8.5c7.1,3.7,8.4,13.6,8.4,13.6
			S376,674.7,371.8,672.5z"/>
		<path class="st83" d="M406.2,712.6c-8.8-4.7-0.4-28.7,6.7-28.3s20.1,6.3,21.8,12.1C436.4,702.3,414.6,717,406.2,712.6z"/>
		<path class="st83" d="M402,678.8c-8.4,0-15.5-0.7-15.1-5.5s15.5-28.3,23.5-28.7s20.1,11,23.9,18.4
			C438.1,670.3,404.5,678.8,402,678.8z"/>
		<path class="st83" d="M394,640.5c-4.2-5.3-11.3-17.7-7.1-25.4c4.2-7.7,27.3-2.6,34.8,2.2C429.3,622.1,400.8,648.9,394,640.5z"/>
		<path class="st83" d="M469.6,806.8c-8.5-7.4-15.9-14.4-15.1-21.3c0.8-7,2.5-34.6,10.5-33.5s18.9,13.6,24.3,19.9
			C494.7,778.1,480,816,469.6,806.8z"/>
		<path class="st83" d="M488.9,810.5c-1-4.4,2.9-19.1,8-20.6c5-1.5,22.2,13.6,16.8,18.8C508.1,813.8,489.7,814.2,488.9,810.5z"/>
		<path class="st83" d="M451.9,747.9c-7-4.5-31-17.7-30.2-25.4s18-20.6,25.2-17.7c7.1,2.9,13.4,20.2,13.4,26.1
			C460.3,736.9,458.2,752,451.9,747.9z"/>
		<path class="st83" d="M456.6,697.2c-13.3,0-20.6-12.5-19.7-17.7c0.8-5.2,10.5-12.5,18-10.7c7.6,1.8,16.8,4,17.6,12.1
			C473.3,689.1,459.5,697.2,456.6,697.2z"/>
		<path class="st83" d="M443.5,657.4c-2.5-4.9-18.9-13.6-18-19.9c0.8-6.3,8.4-25,17.2-25c8.8,0,18.9,1.1,23.9,6.3s8,28.3,3.8,32.8
			C466.2,655.9,445.2,660.7,443.5,657.4z"/>
		<path class="st83" d="M481.3,642.7c-5.8-7.7-9.6-23.2-2.9-25.8s22.2-2.6,27.3,1.8C510.7,623.2,485.5,648.2,481.3,642.7z"/>
		<path class="st83" d="M488.9,676.2c-10.8-1.8-18-8.1-15.5-14s10.9-12.1,18-12.5s14.7,3.7,17.2,9.2S495.6,677.3,488.9,676.2z"/>
		<path class="st83" d="M521.2,650.4c-8.8-5.4-15.9-6.6-15.1-11s7.1-22.5,15.5-23.6c8.4-1.1,22.2,3.3,26.8,7.4
			c4.6,4,2.5,33.9-3.4,36.4C539.2,662.2,525.3,653,521.2,650.4z"/>
		<path class="st83" d="M562.3,669.2c-7.8-3.9-7.6-47.8-3.8-47.5c3.8,0.4,11.3,15.8,12.6,23.2C572.3,652.3,568.1,672.1,562.3,669.2z
			"/>
		<path class="st83" d="M540.9,810.2c-3.4-5.6,16.8-46.7,21.4-44.5c4.6,2.2,8,46.7,1.7,47.5C557.6,813.8,543.8,814.9,540.9,810.2z"
			/>
		<path class="st83" d="M560.2,702.7c-10.4-4.9-36.5-28-34.4-34.6s33.1,2.2,36.9,9.2C566.5,684.3,565.6,705.3,560.2,702.7z"/>
		<path class="st83" d="M493,704.9c-7.5-4.7-15.9-16.6-10.1-19.5c5.9-2.9,24.8-15.5,31.5-9.2C521.2,682.4,498.9,708.6,493,704.9z"/>
		<path class="st83" d="M530.4,722.2c-10.6,2.6-19.3-7.7-19.7-11.8c-0.4-4,9.6-25,14.7-22.8c5,2.2,14.3,9.9,17.2,16.2
			C545.5,710,533.3,721.4,530.4,722.2z"/>
		<path class="st83" d="M558.9,755.7c-8.5-2.8-24.8-14-23.9-19.5c0.8-5.5,15.1-26.9,19.3-24.7s6.3,1.1,8,7.7
			C563.9,725.9,565.6,757.9,558.9,755.7z"/>
		<path class="st83" d="M525.8,802.4c-5.1-5.7-16.8-15.5-16.8-22.1s23.5-27.6,29.8-24.7c6.3,2.9,10.9,5.9,10.9,12.5
			C549.7,774.8,530.4,807.6,525.8,802.4z"/>
		<path class="st83" d="M511.1,763.4c-6.2-5.9-10.5-39.8-6.3-40.9c4.2-1.1,19.7,9.6,22.7,15.1C530.4,743.2,515.3,767.5,511.1,763.4z
			"/>
		<path class="st83" d="M486.9,756.3c-5-4.5-12-3.2-11.9-10.9s5.5-25.5,11.3-24.5s19.4,49.3,16,49.5
			C498.9,770.5,491.6,760.6,486.9,756.3z"/>
		<path class="st83" d="M467.5,717.8c-8-2.8-2.5-17.7,3.8-16.2s8,2.9,8.4,7.7C480,714.1,469.6,718.5,467.5,717.8z"/>
	</g>
	<path class="st84" d="M568.6,822.7H244.7c0,0,3.4-20.2,5.9-23.1c2.5-2.9,314.6,10.8,318.8,13C573.6,814.7,568.6,822.7,568.6,822.7z
		"/>
	<g class="st5">
		<path class="st85" d="M298.8,703.2c0.1-1.4,0-3,0-4.7C298.8,700.1,298.8,701.7,298.8,703.2z"/>
		<path class="st85" d="M334.3,779.8c-17.3-3-34.1,3.7-53.8,18.9c17.9,1.8,75,7.3,77.1,5c0-0.1,0.1-0.2,0.1-0.2
			C356,795.8,348.5,782.3,334.3,779.8z"/>
		<path class="st85" d="M391.1,772.2c-13.1-7.5-36.4-2.8-39.6,3.9c2.5,8.6,15.5,22.7,32,26.7c0,0,19.3,1.5,22.7-2.9
			c0.4-0.5,0.6-1.2,0.8-2.1C406,789.8,400.7,777.8,391.1,772.2z"/>
		<path class="st85" d="M348.7,755.7c-5.2-1.3-20.6,3.5-24,8.4c2.1,4,8.6,6.7,16.9,4.9c2.2-0.5,6.9-7.2,8.5-12.3
			C349.8,756.2,349.4,755.8,348.7,755.7z"/>
		<path class="st85" d="M264,796.9c8.7,1.2,33.8-19.5,37.5-31.2c-0.2-0.3-0.4-0.6-0.6-0.9c-7.6-8.1-38.6-15.1-41.9-9.2
			c-0.8,1.3-1.1,4.4-1.3,8.3C258,777.6,260.8,796.5,264,796.9z"/>
		<path class="st85" d="M307.5,752.9c9.7,2.2,25.7-10.7,28.8-19.5c-0.4-0.7-0.9-1.3-1.7-1.7c-9.5-5.6-32.8-13.3-40.2-10.2
			c-6,2.5-14.4,10.8-16.5,16.8C279.9,743.4,285.2,747.9,307.5,752.9z"/>
		<path class="st85" d="M272.4,728.8c1.1-3.1,15.1-16.6,17.8-25.6c-3.3-8.1-25.5-19.6-30.4-14.9c-2,1.9-2.9,9-3,17.3
			c0.2,11.2,1.5,23.1,3,26.5C262.7,738.7,269.5,737.3,272.4,728.8z"/>
		<path class="st85" d="M298.8,703.4c0,0.5,0,1,0,1.4c0-0.5,0-1.1,0-1.6C298.8,703.3,298.8,703.3,298.8,703.4z"/>
		<path class="st85" d="M298.8,703.2c0,0.5,0,1.1,0,1.6c0.6,5.7,7.8,6.7,19.3,6.7c1.4,0,5.6-7.5,6.8-13.6
			c-1.8-5.4-11.4-9.6-19.4-9.2c-5.3,0.2-6.5,4.8-6.7,9.8C298.9,700.2,298.9,701.8,298.8,703.2z"/>
		<path class="st85" d="M345,692c-10.4-4.2-13.2,12.4-14,21.2c2.1,7.8,18.5,23.4,24.9,25.9c5.2,2,11.4-8.4,12.6-16.6
			c-0.1-0.5-0.2-1-0.4-1.4C365.1,713.7,356.7,696.8,345,692z"/>
		<path class="st85" d="M412.5,760.8c5-0.5,8.8-9.5,9.4-18.3c-0.1-2-0.5-3.9-1-5.6c-3.4-10.3-26-20.2-33.6-20.2
			c-6.3,0-17.2,24.8-19,36.4c0,0.1,0.1,0.3,0.2,0.4C369.7,755.7,405.4,761.6,412.5,760.8z"/>
		<path class="st85" d="M426.8,785.1c-4.7-1.2-10.9,4.6-12.1,11.7c0.4,2.1,1.3,4.1,2.8,6c2.1,2.5,28,2.9,34.1-1.6
			C447.4,795.1,432.2,786.5,426.8,785.1z"/>
		<path class="st85" d="M436.8,753.5c-5.4-0.6-12.6,10.6-14.8,17.4c3.8,3,24,5.7,27.9,1c0.3-0.3,0.5-0.7,0.6-1.1
			C448.9,763.7,441.8,754,436.8,753.5z"/>
		<path class="st85" d="M372.2,684.3c-2.5,1.4-3.9,4-4.4,7.1c0.5,3.8,2.1,7.7,4.4,10.6c3.4,4.2,20.8-6.5,25.5-13.2
			C393.2,684.4,378.4,680.9,372.2,684.3z"/>
		<path class="st85" d="M324.4,651.5c-5,1.5-8.1,7.3-8.7,13.7c0.5,5.1,2.6,9.9,6.6,12.8c10.5,7.4,20.4,0.8,30.6,1.8
			c1.9,0.2,3.7-5.7,4-12.1c-0.3-4.5-1.3-8.7-3.6-10.7C347.1,651.5,334.5,648.6,324.4,651.5z"/>
		<path class="st85" d="M296.7,657.8c-5.6-2.3-20.9,6.6-23.5,14.3c1.6,6.4,7.2,8.3,17.2,10c4.2,0.7,12.2-2.6,15.9-5.9
			c0.3-0.3,0.6-0.8,0.7-1.3C305.9,668.5,301.1,659.6,296.7,657.8z"/>
		<path class="st85" d="M266.1,657.4c5.5,0.3,16.8-11.6,19-20.2c0-0.1,0-0.3-0.1-0.4c-3.4-7.7-21-18-24.3-15.5
			c-1,0.8-1.6,4.8-1.8,10.1C259.2,643,261.4,657.1,266.1,657.4z"/>
		<path class="st85" d="M306.4,644.9c8.4-0.2,14.3-4.6,16-8.8c-0.8-1.5-2.6-2.6-5.6-3c-7-0.8-13.3,4.9-15.1,9.8
			C302.5,644.2,303.9,644.9,306.4,644.9z"/>
		<path class="st85" d="M344.5,638.3c8,0.9,28.7-14,33.7-22.2c-6.2-3.9-13.7-4.7-26.2-6.5c-12.6-1.8-19.3,8.1-21.8,13.3
			c-0.1,0.2-0.1,0.4-0.2,0.5C331.5,629.5,337.2,637.5,344.5,638.3z"/>
		<path class="st85" d="M379.4,641.6c-7.1-3.7-14.7,2.9-17.6,8.5c-0.3,0.5-0.5,1.2-0.6,1.9c1,5.8,5,12.8,10.7,15.8
			c3.5,1.9,12.4-11.6,15.1-16C385.9,648.5,383.8,643.9,379.4,641.6z"/>
		<path class="st85" d="M412.9,684.3c-4.5-0.2-9.5,9.2-10.4,17.3c0.4,2.8,1.5,5.1,3.7,6.2c7.1,3.8,23.9-6.3,27.8-13
			C430.7,689.5,419.4,684.6,412.9,684.3z"/>
		<path class="st85" d="M402,674c2.1,0,26.3-6,31.6-12.3c-4.4-7.3-15.7-17.5-23.2-17.1c-7.1,0.3-19.7,18.9-22.8,26.4
			C389.5,673.5,395.3,674,402,674z"/>
		<path class="st85" d="M422.3,617.8c-0.2-0.2-0.3-0.3-0.6-0.5c-7.6-4.8-30.6-9.9-34.8-2.2c-0.5,1-0.9,2.1-1.1,3.2
			c0.9,6.6,5.3,13.7,8.2,17.4C399.4,642.4,418.5,626.9,422.3,617.8z"/>
		<path class="st85" d="M490.3,774.3c-0.2-1-0.5-1.9-1-2.5c-5.5-6.3-16.4-18.8-24.3-19.9c-7.4-1-9.4,23-10.3,31.9
			c1.3,5.9,7.7,11.9,14.9,18.2C477.9,809.4,488.8,787,490.3,774.3z"/>
		<path class="st85" d="M496.8,789.9c-3.8,1.1-7,9.9-7.9,16c1.3,3.5,19.3,3.1,24.7-2c0.2-0.2,0.3-0.4,0.4-0.5
			C511.2,797,500.6,788.8,496.8,789.9z"/>
		<path class="st85" d="M451.9,743.2c5.4,3.5,7.7-7.1,8.2-13.9c-0.9-7-6.7-21.7-13.3-24.4c-6.5-2.7-21.5,7.9-24.6,15.6
			C426,728.3,445.7,739.2,451.9,743.2z"/>
		<path class="st85" d="M454.9,668.8c-7-1.7-15.7,4.4-17.7,9.4c1.7,5.9,8.6,14.1,19.3,14.1c2.6,0,13.4-6.2,15.6-13.1
			C470.3,672.5,461.9,670.5,454.9,668.8z"/>
		<path class="st85" d="M443.5,652.6c1.7,3.3,22.7-1.5,26.8-5.9c1.1-1.2,1.7-3.8,1.9-7c-0.4-8.2-2.7-17.8-5.7-20.9
			c-5-5.2-15.1-6.3-23.9-6.3c-7.9,0-14.8,15.2-16.7,22.8C428.7,641.2,441.4,648.4,443.5,652.6z"/>
		<path class="st85" d="M505.5,618.6c-5.2-4.3-20.4-4.3-27.1-1.7c-2,0.8-3,2.6-3.4,5.1c0.7,5.4,3.2,11.8,6.3,15.9
			C484.7,642.3,501.5,627.1,505.5,618.6z"/>
		<path class="st85" d="M488.9,671.4c5.4,0.9,16.4-7.2,19.3-13.3c-2.8-5.1-10-8.8-16.7-8.4c-7.1,0.4-15.5,6.6-18,12.5
			C475,666.4,481,670.1,488.9,671.4z"/>
		<path class="st85" d="M521.6,615.8c-7.3,1-13.1,14.9-15,21.3c1.9,2.6,7.7,4.3,14.5,8.5c4.2,2.6,18,11.8,23.9,9.2
			c3.4-1.5,5.5-12,5.8-21.4c-0.2-4.9-1-9-2.5-10.3C543.8,619.1,530,614.7,521.6,615.8z"/>
		<path class="st85" d="M562.3,664.4c4.7,2.3,8.3-9.8,8.9-18.6c0-0.3-0.1-0.6-0.1-0.9c-1.3-7.4-8.8-22.8-12.6-23.2
			c-1.5-0.1-2.4,6.3-2.5,14.5C556.2,648.4,558,662.3,562.3,664.4z"/>
		<path class="st85" d="M562.3,765.6c-3.9-1.9-18.9,27.2-21.4,39.7v0.1c2.9,4.8,16.8,3.7,23.1,2.9c2.3-0.3,3.3-6.1,3.4-13.7
			C567.1,781.8,564.9,766.9,562.3,765.6z"/>
		<path class="st85" d="M526.5,667c4.3,9.1,24.8,26.6,33.7,30.9c2.9,1.4,4.5-3.8,4.8-10c-0.2-4.2-1-8.2-2.3-10.6
			C559.1,670.7,531.6,662.5,526.5,667z"/>
		<path class="st85" d="M483,685.4c-0.6,0.3-1.1,0.8-1.4,1.3c1.6,4.6,6.8,10.5,11.5,13.4s19.6-12.9,22.2-22.7
			c-0.2-0.5-0.5-0.9-0.8-1.2C507.7,669.9,488.9,682.4,483,685.4z"/>
		<path class="st85" d="M530.4,717.4c2.3-0.6,10.2-7.6,12.1-13.7c-3-6.2-12.2-13.9-17.2-16.1c-4.2-1.9-12,12.7-14.2,19.8
			C513.3,712,521.1,719.7,530.4,717.4z"/>
		<path class="st85" d="M554.3,711.5c-3.8-2-15.7,15.1-18.7,22.5c3,5.9,16,14.4,23.3,16.8c3.4,1.1,4.7-6.6,4.8-15.3
			c-0.1-7-0.8-13.7-1.5-16.3C560.6,712.6,558.5,713.7,554.3,711.5z"/>
		<path class="st85" d="M549.3,765.4c-1.1-4.7-5.2-7.2-10.6-9.7c-5.7-2.7-25.7,14.5-29.2,22.6c2.3,6.4,11.8,14.4,16.2,19.4
			C530,802.4,546.7,774.9,549.3,765.4z"/>
		<path class="st85" d="M504.8,722.6c-0.9,0.2-1.4,2.1-1.6,4.9c0.5,10.8,3.8,27.2,7.9,31.2c3.4,3.3,14.1-12.2,16.3-21.1
			C524.4,732,509,721.5,504.8,722.6z"/>
		<path class="st85" d="M486.3,720.9c-5.2-0.9-10.1,13.3-11.1,21.8c1.1,5.4,7.2,4.8,11.7,8.8c4.8,4.3,12.1,14.3,15.5,14.1
			c0.1,0,0.1-0.1,0.2-0.1C500.7,753.1,491,721.7,486.3,720.9z"/>
		<path class="st85" d="M467.5,713c1.8,0.6,9.6-2.5,11.7-6.4c-0.9-2.7-3-3.9-7.9-5.1c-3.4-0.8-6.5,3.2-7.5,7.4
			C464.3,710.8,465.4,712.3,467.5,713z"/>
	</g>
	<path class="st86" d="M396.6,624.6c65.7,0,125.8,7.3,174.4,19.8c-1.1-5.6-5.4-15.2-9.1-19.9l-0.1-16.5L264,603.7l-0.2,17.5
		c-1.4-0.3-2.5-0.3-3.1,0.2c-1.3,1-1.9,7.2-1.8,14.5C300.9,628.7,347.7,624.6,396.6,624.6z"/>
	<path class="st84" d="M574.4,586.3c0,0,0.9,37.6-0.9,39.8c-1.7,2.2-322.1-14.5-324.7-14.5s-1.7-19.5,0.9-20.2
		C252.3,590.7,568.5,582.7,574.4,586.3z"/>
	<path class="st87" d="M250.6,799.5c-0.7,0.9-1.6,3.2-2.3,6.1c44.5,6.5,108,10.8,178.5,11.4c52.8,0.4,101.8-1.3,141.7-4.7
		C549.4,809.7,253,796.7,250.6,799.5z"/>
	<path class="st87" d="M406.6,607.5c67.9,0,128.4-2.7,168-7c0-7.7-0.2-14.2-0.2-14.2c-6-3.6-322.1,4.3-324.7,5.1
		c-1.2,0.4-2.1,5.2-2.3,10.1C286.9,605.2,343.6,607.5,406.6,607.5z"/>
	<path class="st64" d="M716,502.5c-19.9,9.5-25.4,17.8-48,14.1c-1-0.2-2-0.4-2.9-0.6c1.7,6.9,3.8,13.2,5.7,14.9
		c4.5,4.1,28.4,3.1,34.3,0.5c5.9-2.6,14.9-14.2,14.9-14.2S718.6,509.9,716,502.5z"/>
	<path class="st65" d="M632.9,531.4c-6.9,2.6-11.2,0.1-11.1-3.7c0.1-3.8,5.5-17.6,9.7-18.1s10.4-0.7,10.4,3.5
		C641.8,517,636,530.3,632.9,531.4z"/>
	<path class="st65" d="M618.1,528.8c-6.6,2.2-11.2,0.1-11.5-3.2s3.6-15,7.7-15.5c4.2-0.4,10.3-0.6,10.7,3
		C625.5,516.5,621,527.8,618.1,528.8z"/>
	<path class="st65" d="M602.3,526c-6.6,2.2-11.2,0.1-11.5-3.2s3.6-15,7.7-15.5c4.2-0.4,10.3-0.6,10.7,3
		C609.7,513.7,605.3,525,602.3,526z"/>
	<path class="st65" d="M628.1,485c-10.9-0.8-30.2,4.4-32.5,7.7c-2.3,3.3-6.7,17.3-3.6,21c3.1,3.7,22.7,6.3,26.2,3.7
		c3.6-2.6,5.2-7,2.7-8.8s-14.3-2.4-14.3-2.4l1.5-2.8c0,0,17.4,0.6,24.5-0.7C639.9,501.3,640.3,485.9,628.1,485z"/>
	<path class="st65" d="M742.2,387.1c2.4-2.6,5.1-5.3,8.2-7.9c-4-2.1-9-4-14.5-5.5C737.3,378.1,739.3,382.6,742.2,387.1z"/>
	<path class="st58" d="M762.7,435.2c-0.7-3.3-2.9-5.7-4.9-5.4c-2.1,0.3-3.2,3.3-2.5,6.6c0.7,3.3,2.9,5.7,4.9,5.4
		C762.3,441.5,763.4,438.5,762.7,435.2z"/>
	<path class="st58" d="M713.9,420.7c0.1-2.5-1.1-4.5-2.6-4.5s-2.8,1.9-2.9,4.4c-0.1,2.5,1.1,4.5,2.6,4.5S713.8,423.1,713.9,420.7z"
		/>
	<path class="st70" d="M710.8,598.9c0,0,2.2,26.2,7.6,59.3c12.5,1.7,24.6,2.6,34.8,3.1L710.8,598.9z"/>
	<path class="st60" d="M791.3,546.8c0,1.4,0.2,2.8,0.5,4.1c21.1,1.5,35.8,1,37.7-0.6c2.8-2.5-0.8-20.7-3.4-32.5
		C805.9,521.6,791.3,533.1,791.3,546.8z"/>
	<path class="st69" d="M852.1,422.8c0-1.2-0.1-3.4-0.3-6.3c-9.1,17.9-21.6,38.3-21.6,38.3s13.7-12.7,24.9-22.2
		C853.7,430,852.1,427.1,852.1,422.8z"/>
	<path class="st60" d="M775.6,452.2l7-16.6c0,0,2.6-33.8,11.3-58.9c-11.2,14.2-17.1,35.6-19.7,49
		C777.3,439.7,775.6,452.2,775.6,452.2z"/>
	<path class="st75" d="M746.6,285.8c0,0-10.8,0-11.1,0.4l0.4,4.5l10.8,2.2L746.6,285.8z"/>
	<polygon class="st88" points="815.6,280.1 760.4,290.9 765.7,298.7 814.4,285.7 	"/>
	<path class="st64" d="M786.6,302.6c-3.8-17.4,8.9-24.3,16.4-17.4c7.6,6.8-6.4,21.2-11,21.5C787.4,306.9,786.6,302.6,786.6,302.6z"
		/>
	<path class="st75" d="M768.3,301.6c-2.2-9.9-9.3-19.3-15.7-20.6c-6.3-1.3-9.1,6-6.4,15.8c2.6,9.3,9.3,17.7,15.2,19
		C767.2,317.2,770.4,311,768.3,301.6z"/>
	<path class="st76" d="M764.8,301.1c-2-7.3-7.7-14.2-12.5-15s-6.6,4.8-4.2,12.1c2.3,6.9,7.6,13,12,13.8
		C764.6,312.8,766.8,308.1,764.8,301.1z"/>
	<path class="st77" d="M764.1,300.8c-1.7-6.2-6.4-11.9-10.5-12.6c-4-0.7-5.5,4-3.5,10.1c1.9,5.8,6.4,10.9,10.1,11.6
		C763.9,310.6,765.7,306.6,764.1,300.8z"/>
	<path class="st78" d="M763.6,300.6c-1.5-5.3-5.5-10.2-9-10.8c-3.5-0.6-4.8,3.5-3,8.7c1.7,5,5.5,9.4,8.7,10
		C763.5,309.1,765,305.7,763.6,300.6z"/>
	<path class="st79" d="M762.5,297.6c-1.9-4-5-7.2-7.7-7.7c0.1,0.2,0.3,0.4,0.4,0.6c2,4.2,0.9,8.6-2.2,11c1.8,3.5,4.5,6.2,7,6.9
		C758.1,304.1,759.2,299.8,762.5,297.6z"/>
	<path class="st89" d="M759.9,281c-4.1,1.2-15.9,1.3-18.4-0.7s-3.6-8.7-2.1-10c1.6-1.3,17.6,2.4,19.7,3.1
		C761.3,274.1,761.9,280.5,759.9,281z"/>
	<path class="st89" d="M717.3,282.2c4.6-1.2,14.5-7.1,14.7-9.7s-5.1-7.7-7.7-7.9c-2.5-0.1-12.4,10.4-13.5,12
		C709.6,278.2,715.1,282.8,717.3,282.2z"/>
	<path class="st90" d="M766.4,318.4c0,0-9.9,7.9-19.4,2.8l-0.4,0.5c11.1,8.5,23.1-0.4,23.1-0.4L766.4,318.4z"/>
	<path class="st90" d="M750,340.1c-0.1-0.6-1.8-0.9-3.8-0.6s-3.5,1-3.4,1.6s1.8,0.9,3.8,0.6C748.6,341.5,750.2,340.8,750,340.1z"/>
</g>
<path class="st91" d="M991.7,69.5l-27.8-11c-5-2-7.5-7.7-5.5-12.7l11-27.8c2-5,7.7-7.5,12.7-5.5l27.8,11c5,2,7.5,7.7,5.5,12.7
	l-11,27.8C1002.4,69.1,996.7,71.5,991.7,69.5z"/>
<path class="st92" d="M1080,43.1l-6.7-3.9c-2.8-1.6-3.8-5.2-2.2-8.1l3.9-6.7c1.6-2.8,5.2-3.8,8.1-2.2l6.7,3.9
	c2.8,1.6,3.8,5.2,2.2,8.1l-3.9,6.7C1086.4,43.8,1082.8,44.7,1080,43.1z"/>
<path class="st91" d="M54.1,613.1l-21.8,7.2c-6.9,2.3-14.4-1.5-16.7-8.4l-7.3-21.7c-2.3-6.9,1.5-14.4,8.4-16.7l21.8-7.2
	c6.9-2.3,14.4,1.5,16.7,8.4l7.2,21.8C64.8,603.3,61,610.8,54.1,613.1z"/>
<path class="st92" d="M78.4,525.4l-6.7-3.9c-2.8-1.6-3.8-5.2-2.2-8.1l3.9-6.7c1.6-2.8,5.2-3.8,8.1-2.2l6.7,3.9
	c2.8,1.6,3.8,5.2,2.2,8.1l-3.9,6.7C84.8,526.1,81.2,527,78.4,525.4z"/>
<g>
	<path class="st93" d="M733.6,205.3c-22.8,46.6-33.3,102.5-31,125.8c0,0-17.3,27.6-18.4,36.7c-1.1,9.2,30.2,43.8,39.4,48.8
		c9.2,4.9,39.4-28.3,48.1-43.1c8.7-14.8,21.1-113,21.1-113L733.6,205.3z"/>
	<path class="st94" d="M733.6,205.3c-3.1,6.4-6,13-8.7,19.7c5.6,10.1,10.3,22.4,13.5,36.1c9.1,38.9,2.3,73.9-15.2,78.2
		c-6.6,1.6-13.9-1.4-20.8-7.9c-1.9,3-17.2,27.8-18.2,36.4c-1.1,9.2,30.2,43.8,39.4,48.8c9.2,4.9,39.4-28.3,48.1-43.1
		c8.7-14.8,21.1-113,21.1-113L733.6,205.3z"/>
	<path class="st95" d="M694.3,336.7c28.4-7.2,71.2,54.2,55.9,74.7c-2.5,3.3-81.4,50.2-90.2,51s-24.1-40.8-22.6-51.4
		C638.9,400.5,694.3,336.7,694.3,336.7z"/>
	<path class="st96" d="M769.5,399.8c0,0-73.7,159.4-75.4,183.1c-1.8,23.7,22.2,143,40.8,208.6h8.9c0,0,31.9-173,37.3-190.4
		C784.3,590.6,916,398.9,916,398.9L769.5,399.8z"/>
	<path class="st97" d="M734.9,791.4h8.9c0,0,7.6-41.1,16-85.3c-0.2-1.4-0.5-2.8-0.7-4.3c-11.8-67.1-40.7-117.9-64.5-113.5
		c-0.2,0-0.3,0.1-0.5,0.1C695.3,621.6,717.4,730.1,734.9,791.4z"/>
	<path class="st96" d="M1055.2,792.3c-20.4-16.4-150.9-121.1-161.5-149.4c-10.6-28.2-66.6-149.4-66.6-149.4l18.6-82.9
		c0,0,102.1-37.3,104.7-31.9c2.7,5.5,12.4,190.4,20.4,220.4c8,30.1,92.3,188.5,92.3,188.5L1055.2,792.3z"/>
	<path class="st97" d="M970.9,599.2c-6.2-23.4-13.5-140.9-17.7-194.2c-20.6,39.1-72.4,149.8-48,232.4l117,71.5
		C999.5,664.5,975,614.8,970.9,599.2z"/>
	<path class="st97" d="M873.9,596.5c8.9,20.1,16.5,37.7,19.8,46.4c10.6,28.2,141.1,133,161.5,149.4l8-4.6c0,0-38.6-72.7-66.1-128.9
		C952,612.5,903.1,587.7,873.9,596.5z"/>
	<path class="st98" d="M948.3,304.4c-0.7-15,0-60.1-8-77.2s-43.3-66.9-95.8-58.1l20.6,224.1c63.9,13.7,89.2,4.8,89.2,4.8
		S948.9,319.4,948.3,304.4z"/>
	<path class="st99" d="M954.7,386c0,0-33.7,0.5-67.5,3.7l-1.8,14.2l68.8,1.1L954.7,386z"/>
	<path class="st99" d="M695.8,556.4c42.6-0.9,167.3,38.9,167.3,38.9S894.4,485.2,897,467c2.7-18.2,4.7-98.1,4.7-98.1
		s-79-147.5-44.4-200.4c0,0-42.6-10-63.9-2.7c-21.3,7.3-55.5,31.9-57.2,47.4c-1.8,15.5,20.9,109.3,29.7,134.8c0,0-7.1,3.6-2.7,10.9
		c4.4,7.3,8,9.1,8,9.1s-6.2,0.9-6.2,9.1s0.9,13.7,0.9,13.7L695.8,556.4z"/>
	<g>
		<path class="st100" d="M765.9,347.9c0,0-3,1.5-3.9,4.6c16.1,1.9,42.8-1.3,42.8-1.3s-7.1,1.1-43.1-16.9
			C763.3,339.8,764.7,344.5,765.9,347.9z"/>
		<path class="st100" d="M765.7,372.8c13.5,0.4,26.1-4.2,26.1-4.2c-9.8-0.9-21-6.4-29.4-11.3c0.2,0.5,0.5,1,0.8,1.5
			c4.4,7.3,8,9.1,8,9.1S767.4,368.5,765.7,372.8z"/>
	</g>
	<path class="st96" d="M951.9,390.1l-12.1,6l20,194.2c-5.8,20.9-17.3,25.8-17.3,25.8l27.1,7.3l92.6,165l1-0.6
		c0,0-84.3-158.5-92.3-188.5C964,573.3,955.8,431.5,951.9,390.1z"/>
	<path class="st100" d="M857.3,168.4c0,0-42.6-10-63.9-2.7c-3.2,1.1-6.6,2.6-10.2,4.3c18.8,14.7,36.5,36.6,49.6,63.6
		c30.4,62.6,24.9,128.7-12.2,147.7c-16.3,8.3-36,6.2-55.5-4.1c0,8.1,0.9,13.4,0.9,13.4l-70.1,165.8c0,0,0,0,0.1,0
		c36-57.1,91.9-96.7,130.3-85c36.1,11,41.1,61.8,17.5,117.9c11.9,3.6,19.4,6,19.4,6S894.4,485.2,897,467c2.7-18.2,4.7-98.1,4.7-98.1
		S822.7,221.3,857.3,168.4z"/>
	<path class="st101" d="M867.6,325.4c-14.6-45.8-12.5-86.6-11.8-107.8s24.3-48.5,41.7-37.6c17.3,10.9,38.8,30,46.8,60.8
		c8,30.7-2.6,139.3-7.3,153c-4.7,13.7-73.9,34.2-82.5,35.5c-8.7,1.4-30.4-49.9-25.3-66.9C831.2,355.6,867.6,325.4,867.6,325.4z"/>
	<path class="st102" d="M944.2,240.9c-8-30.7-29.5-49.9-46.8-60.8c-1-0.6-2-1.1-3.1-1.5c11.4,11.5,21.2,28.1,27.1,47.8
		c13.1,43.6,2.3,85.8-24.3,94.2c-10.6,3.4-22,0.8-32.8-6.2c0.6,2.3,1.3,4.6,2,6.9c5.2,3.3,10.5,8.3,15,14.7
		c10.8,15.2,13.4,32.1,5.8,37.8c-7.6,5.7-22.6-1.9-33.4-17.1c-3.1-4.3-5.4-8.7-7.1-13c-8.5,7.7-16.5,15.7-17.4,18.8
		c-5.1,17,16.6,68.3,25.3,66.9s77.9-21.9,82.5-35.5C941.6,380.2,952.2,271.6,944.2,240.9z"/>
	<path class="st103" d="M841.1,343.3c6,13.7,29.9,84.7,30.6,88.8c0.7,4.1-92.5,21.9-101.2,19.8c-8.7-2-14.6-44.4-10-54
		C765.2,388.4,841.1,343.3,841.1,343.3z"/>
	<path class="st95" d="M812.5,420.2c-19.3,3.1-37.6,3-52.9,0.2c1.5,14.5,5.8,30.3,11,31.5c8.7,2,101.8-15.7,101.2-19.8
		c-0.3-1.6-4.1-13.6-9.1-28.4C849,411.2,831.7,417.1,812.5,420.2z"/>
	<path class="st95" d="M636.7,480.8c-15.2-1.6-28.5-30.5-25.2-41.7s15.8-27.2,19.1-31.7s32.7-22.7,41.8-15s23.5,50.3,17.8,60.4
		C684.5,463,649.9,482.2,636.7,480.8z"/>
	<path class="st103" d="M697.8,336.2c-1.2,0.1-2.4,0.2-3.5,0.5c0,0-34.9,40.1-50,62c7.6,2.3,16,3.9,24.9,4.6
		c36,2.7,66.4-11.1,67.8-30.8C738,357.4,721.7,343.3,697.8,336.2z"/>
	<path class="st103" d="M689.4,469.1c0.4,7.1,14.2,7.8,18.2,3.3c4.1-4.5,15.3-30.9,20.9-34.6c5.6-3.7,11.7-5.8,12.7-11
		s-7-22.4-7-22.4s-15.3,6.9-22.3,11.7C705,420.9,689.2,465.5,689.4,469.1z"/>
	<path class="st95" d="M744.7,461.5c-2.4,5.7-2.4,19,1.5,19.7c3.9,0.6,14.8,2.7,18.6-1.9s4.4-20.3,1.4-22
		C763.1,455.4,747.7,454.3,744.7,461.5z"/>
	<path class="st95" d="M719.5,463.1c-1.2,5.7,1.7,19.2,5.8,19.8c4.1,0.6,15.4,2.7,18.2-1.9c2.8-4.7,0-20.5-3.4-22.2
		C736.7,457,721,455.9,719.5,463.1z"/>
	<path class="st95" d="M700.5,462.6c-1.2,5.7,1.7,19.2,5.8,19.8c4.1,0.6,15.4,2.7,18.2-1.9c2.8-4.7,0-20.5-3.4-22.2
		C717.6,456.6,702,455.4,700.5,462.6z"/>
	<path class="st27" d="M743.9,431.4C702,480.6,565.6,576.9,507.7,574.9l16.6-21.2c0,0,55.2-16.4,112.5-47.8
		c46.8-25.7,108.5-90.9,108.5-90.9L743.9,431.4z"/>
	<path class="st27" d="M687.9,409.5c-58.6,25.4-188.2,123.9-206,179.9l24.4-9.1c0,0,33.4-47.9,80.7-92.7
		c29.3-27.7,81.5-56.3,105.2-68.5c4.2-2.2,3.6-8.6-1-9.8l0,0C690.1,408.9,689,409,687.9,409.5z"/>
	<path class="st103" d="M777.2,451.2c-9.3,10.5-12.6,22.3-20.6,23.7c-8,1.4-42.6,10.5-48.6-4.6c-6-15,2.7-43.7,5.3-51.9
		c2.7-8.2,49.9-28.7,55.2-28.7C773.9,389.8,791.2,435.5,777.2,451.2z"/>
	<path class="st95" d="M759.1,448.4c-16.8,13.5-35.8,20.2-51.8,19.8c0.2,0.7,0.4,1.5,0.7,2.2c6,15,40.6,7.5,48.6,6.1
		s14.6-14.5,24-25c5.6-6.3,2.8-17.7,1.2-28.8C776.3,431.9,768.6,440.7,759.1,448.4z"/>
	<path class="st27" d="M495,568.9l-6.8,13.4c-17.9-9.2-39.2-8.2-54.2,7.7c-7.1,7.6-5.7,21.3-6.3,29.5c-0.5,8.2-7.8,15.5-15,15.5
		s-10.6-3.6-8.9-20C409.7,559.4,470,553.8,495,568.9z"/>
	<path class="st104" d="M403.8,615.1c-1.7,16.3,1.6,19.9,8.9,20c7.2,0,14.4-7.3,15-15.5c0.5-8.2-0.8-21.9,6.3-29.5
		c1.3-1.4,2.7-2.6,4.1-3.8c-3.1-5.6-6.9-10-11.2-13C415,581.7,405.9,595.2,403.8,615.1z"/>
	<path class="st54" d="M374.1,538.7l-15.1,35c50.1,15.9,79,81.1,75.4,137.5l15.1-3.2C471.3,584.2,374.1,538.7,374.1,538.7z"/>
	<path class="st105" d="M374.1,538.7l-15.1,35c20.8,6.6,37.9,21.7,50.6,41.1c8.4,12.8-2-51.7-6.9-56.1
		C387.3,544.8,374.1,538.7,374.1,538.7z"/>
	<path class="st27" d="M505,579.9l-13.8,5.2c6.7,19.1,3.1,40.5-14.2,53.7c-8.2,6.3-21.3,3.2-29.3,2.7s-16,5.9-16.9,13.2
		s2.2,11.1,18.2,11.4C503.7,667.1,516.6,607,505,579.9z"/>
	<path class="st27" d="M508.5,568c-5.2-6.6-16.4-7.1-25-1.2c-8.7,6-11.5,16.1-6.3,22.7c5.2,6.6,16.4,7.1,25,1.2
		C510.8,584.7,513.7,574.5,508.5,568z"/>
	<path class="st106" d="M749.6,815.3h-62.2c0,0,3.7-11.4,14.1-11.4c10.4,0,31.1-12.2,31.1-18.2c0-6.1,11.8-9.9,11.8-9.9
		S749.6,800.1,749.6,815.3z"/>
	<path class="st106" d="M1048.6,815.3h39.5c0,0-4.4-6.4-12-14.6c-7.5-8.2-15.1-23.7-19.1-21.9s-9.3,7.7-6.7,13.2
		C1053,797.6,1043.2,804.4,1048.6,815.3z"/>
	<path class="st107" d="M841,165.4c-14.3-2.2-34.8-4.1-47.6,0.3c-14.4,4.9-36.9,17.8-50.5,30.3c-1,56,15.9,78,15.9,78
		s81.2-22.8,82.5-25.5C842.5,246.1,833.6,195.3,841,165.4z"/>
	<path class="st108" d="M841,165.4c-14.3-2.2-34.8-4.1-47.6,0.3c-14.4,4.9-36.9,17.8-50.5,30.3c-0.2,10,0.2,18.9,1,26.8
		c16.5,17.9,56.4,17.1,94.7-3.3c0.1-0.1,0.3-0.1,0.4-0.2C837.7,202.2,837.2,181,841,165.4z"/>
	<path class="st99" d="M826.5,163.6c-0.2,15.3-6,51.7-30.6,67l-15.5-9.1l-15.1,9.8c0,0-13.1-15.8-8.4-39.6
		C762.5,162.5,809,157.5,826.5,163.6z"/>
	<path class="st109" d="M796.5,111.1c13.8,27.8,25.8,52.3,25.8,52.3s-8.9,42-33.3,52.5c-24.4,10.5-34.6-22.3-36.4-27.8
		c-1.8-5.5-12-46.5-12-46.5L796.5,111.1z"/>
	<path class="st110" d="M814.6,147.8c9.3-7.7,3.2-24.9,3.2-24.9s4.4-6.8-0.4-15.5c-4.9-8.7-4-13.2-4-13.2s12-9.6,3.5-17.3
		c0,0,3.1-23.7-4.9-28.2c-8-4.6-12.9-1.8-12.9-1.8s0-17.3-8.4-20.9s-24.4,1.4-24.4,1.4s0-11.4-11.1-9.6S735.7,31,735.7,31
		s-7.1-11.8-16.4-1.8c-9.3,10-7.1,12.8-7.1,12.8s-30.2,8.7-15.5,25c14.6,16.4,21.7,41.9,21.7,41.9l15.1,40.5l57.2-18.7L814.6,147.8z
		"/>
	<path class="st111" d="M812.1,48.7c-8-4.6-12.9-1.8-12.9-1.8s0-17.3-8.4-20.9s-24.4,1.4-24.4,1.4s0-11.4-11.1-9.6
		S735.8,31,735.8,31s-5.7-9.5-13.6-4.2c0.5,0.6,1,1.2,1.7,1.7c0,0-1.7,23.8,6.5,27.9s13,1,13,1s1,17.3,9.6,20.4
		c8.6,3.1,24.3-2.9,24.3-2.9s0.7,11.4,11.6,8.9c11-2.5,18.7-14.4,18.7-14.4s4.1,5.9,9.7,5.2C817.7,68.4,818.5,52.3,812.1,48.7z"/>
	<path class="st112" d="M807.5,125.2c0.2-10.3-4.1-18.7-9.7-18.7c-5.5,0-10.1,8.4-10.3,18.7s4.1,18.7,9.7,18.7
		C802.7,143.9,807.3,135.5,807.5,125.2z"/>
	<path class="st113" d="M796.8,124.9c2,0,3.7,1.9,4.7,4.8c0.9-1.9,1.5-4.3,1.5-7c0.1-5.9-2.4-10.8-5.6-10.8c-3.2,0-5.8,4.8-5.9,10.8
		c0,2.2,0.3,4.3,0.9,6C793.5,126.4,795.1,124.9,796.8,124.9z"/>
	<path class="st99" d="M813.4,94.2c0,0-16,9.6-35.9,18.2l2.7,17.3l37.3-25L813.4,94.2z"/>
	<path class="st114" d="M732.9,207.7c24.9,10,72.6-22.1,74.9-27.3c2.3-5.2-46.7-133.2-51.2-134.9c-4.4-1.7-69.9,16-74.4,23
		C677.7,75.4,721,202.9,732.9,207.7z"/>
	<path class="st115" d="M742,47.8c-20.8,4.8-56.5,15.6-59.8,20.7c-4.5,6.9,38.7,134.5,50.7,139.2c11.8,4.7,28.7,0,43.5-6.8
		c4-23,2.1-54.3-6.6-87.3C762.9,87.7,753,65,742,47.8z"/>
	<path class="st116" d="M716.2,54.7c-8,2.4-15.8,5-21.9,7.3c23.6,40,49.9,96.1,50,147.6c9-0.1,19.3-3.2,28.9-7.3
		C736.8,158.5,722.1,95.9,716.2,54.7z"/>
	<path class="st114" d="M693.3,137.7l67.4-20.1c2-0.6,4.2,0.3,5.2,2.3l5.9,11.5c1.3,2.5,0.1,5.7-2.6,6.5l-68.4,22.5
		c-2.3,0.7-4.7-0.5-5.6-2.8l-5-13.8C689.5,141.2,690.8,138.4,693.3,137.7z"/>
	<path class="st117" d="M705.6,158.7l20.1-6.6c4.6-10.5,13.4-21.5,25.4-30.4c1-0.8,2-1.4,3.1-2.1l-26.6,7.9
		C724.3,137.9,716.7,149.1,705.6,158.7z"/>
	<path class="st104" d="M491.8,648.7c-1.7-6-4.5-11.4-8.1-16.1c-1.9,2.2-4.1,4.3-6.6,6.3c-8.2,6.3-21.3,3.2-29.3,2.7
		s-16,5.9-16.9,13.2s2.2,11.1,18.2,11.4C468.2,666.5,482.2,659.3,491.8,648.7z"/>
	<path class="st118" d="M359,573.7c14.2,4.5,26.8,13,37.3,24.2c-6.4-21-19-36-31.4-38L359,573.7z"/>
	<path class="st119" d="M499.4,572.3c-2.3-2.9-7.2-3.1-11-0.5s-5.1,7.1-2.8,10c2.3,2.9,7.2,3.1,11,0.5S501.7,575.2,499.4,572.3z"/>
	<path class="st95" d="M787.7,436.4c0.7-18.9-11.3-34.8-11.3-34.8s3.8,22.8-1.8,45.5L787.7,436.4z"/>
	<path class="st103" d="M634.4,404.1c-19.3,14.7-22,27.8-25.8,35.1c-3.8,7.3-16.9,20.5-14.4,24.4c2.4,3.9,8.9,7.1,13.8,4.6
		c4.9-2.5,15.3-16.2,18.6-18.4c3.3-2.3,23.3-15,28-22.8C659.2,419.1,646.4,395,634.4,404.1z"/>
	<path class="st103" d="M634.1,477.7c-4.6-2.6-8.2-26.9-5.8-28.9s12.7-7.2,16.3-4.9c3.5,2.3,5.9,29.8,5.2,31.1
		C649.2,476.3,639.7,480.8,634.1,477.7z"/>
	<path class="st103" d="M653.4,467.6c-4.3-2.8-6.4-28.7-3.9-30.8c2.5-2.1,13-7.5,16.4-5.1c3.4,2.5,3.9,31.8,3.2,33.2
		C668.4,466.4,658.7,471.1,653.4,467.6z"/>
	<path class="st103" d="M674.5,455.6c-4.3-2.8-6.4-28.7-3.9-30.8c2.5-2.1,13-7.5,16.4-5.1c3.4,2.5,3.9,31.8,3.2,33.2
		C689.5,454.3,679.8,459,674.5,455.6z"/>
	<path class="st103" d="M773.9,294.3c-0.7-3.7-3.8-6.7-6.9-6.7c-3.1,0-5,3-4.2,6.7c0.7,3.7,3.8,6.7,6.9,6.7
		C772.7,301,774.6,298,773.9,294.3z"/>
	<path class="st103" d="M850.1,276.2c-0.7-3.7-3.8-6.7-6.9-6.7c-3.1,0-5,3-4.2,6.7c0.7,3.7,3.8,6.7,6.9,6.7
		C849,282.9,850.8,279.9,850.1,276.2z"/>
	<path class="st120" d="M780.3,392.4L780.3,392.4c-1-2.1-0.3-4.6,1.6-6.1c9.5-7,41.1-29.6,49-27.7c8,1.8-31.2,27.7-43.7,35.7
		C784.8,395.9,781.5,395,780.3,392.4z"/>
	<path class="st120" d="M663.4,387.3L663.4,387.3c-1.4-1.5-1.5-3.9-0.2-5.7c6.3-8.7,27.5-37,34.8-37.6c7.4-0.6-19.5,32.6-28.1,43
		C668.1,389,665.1,389.2,663.4,387.3z"/>
	<path class="st120" d="M761.3,410.8c-11.4,2.1-22.2-4.1-17.1-7.7c5.1-3.6,19-10.8,24.1-8.2C773.3,397.5,770.5,409,761.3,410.8z"/>
	<path class="st120" d="M639.4,418.4c-7.8,4.2-17,2.2-14.2-1.6c2.9-3.8,11.4-12.3,15.7-11.6C645.2,405.9,645.7,414.9,639.4,418.4z"
		/>
	<g>
		<g>
			<path class="st53" d="M403.2,770c-39.3-13.4-31.1-38.2-15.7-46.9s10.2-28.2,0.8-28.8c0,0-6.5-24.1,15.5-30.2
				c0,0-17.6,14.8-0.1,21.5s21.2,18.4,14.6,35.2C436.4,778.3,403.2,770,403.2,770z"/>
			<path class="st53" d="M339.5,705.7c6.4,12.2-6.8,18.7-6.8,18.7s-17.4,3.7-16.1,28.6l35-0.1C366.8,729.1,339.5,705.7,339.5,705.7z
				"/>
			<path class="st53" d="M428.7,709.8c6.4,12.2-6.8,18.7-6.8,18.7s-17.4,3.7-16.1,28.6l35-0.1C455.9,733.2,428.7,709.8,428.7,709.8z
				"/>
			<path class="st53" d="M319.6,693.5c6.4,12.2-6.8,18.7-6.8,18.7s-17.4,3.7-16.1,28.6l35-0.1C346.8,716.9,319.6,693.5,319.6,693.5z
				"/>
			<path class="st53" d="M300.9,714.7c9.9-16.4-9.9-30-18.4-32.1s-2.1-15-2.1-15s-19.9,10.4-5.6,24.1c9.7,9.3-4.9,19.8-4.9,19.8
				s-21.4,6.1-9.4,35.4l41.8-7.1C302.3,739.6,291,731.1,300.9,714.7z"/>
			<path class="st53" d="M319,690.8c-8.7-12.5-7.6-15.9-2.6-18.8c5-2.8,1.6-12.4,1.6-12.4s4.8,1.6,9.2,11.5
				C331.7,681.1,319,690.8,319,690.8z"/>
			<path class="st53" d="M257.3,703.4c-5.4-5.1-5.5-7.9-3.3-10.9c2.2-2.9,0.8-9.3,0.8-9.3s2.9,1.1,5.4,7.4
				C262.8,696.8,257.3,703.4,257.3,703.4z"/>
			<path class="st53" d="M389.6,734.8c-1.5-16.5-12-29.7-22.6-35.2s-1-12.6,4.4-18.4c6.3-6.7-4.7-13.9-4.7-13.9s7.6,9.5-4.7,12.1
				c-12.4,2.6-32.1,13.6-18.6,37.1s-2.9,22.4-2.9,22.4l5.8,5.1L389.6,734.8z"/>
			<path class="st53" d="M389.8,668c2.6-6.3,4.9-5.6,5.8-8.6s-5.8-10.4-5.2-11.7c0,0-4.3,6.5-2.1,10.1
				C390.7,662.1,389.8,668,389.8,668z"/>
			<path class="st53" d="M441.9,707.3c2.2-5.3,4.1-4.7,4.9-7.3s-4.9-8.8-4.4-9.9c0,0-3.6,5.4-1.8,8.5
				C442.7,702.3,441.9,707.3,441.9,707.3z"/>
		</g>
		<rect x="219.5" y="729.9" class="st121" width="240.1" height="18.4"/>
		<polygon class="st122" points="326.1,729.9 264.8,729.9 284.7,748.4 345.9,748.4 		"/>
		<polygon class="st122" points="413.8,729.9 382.6,729.9 392.7,748.4 423.9,748.4 		"/>
		<polygon class="st99" points="495,815.3 219.5,815.3 219.5,740.2 477.1,740.2 		"/>
		<path class="st123" d="M412.9,805.2c-22.3-18.6-39.2-41.6-49.5-65h-71.3c18.5,23.8,29.9,50.5,32.6,75.1h101.7
			C421.8,812.2,417.3,808.9,412.9,805.2z"/>
	</g>
	<path class="st100" d="M695.1,144.3l64.6-20.8c1-0.3,2,0.2,2.5,1.1l2.8,5.5c0.6,1.2,0,2.7-1.2,3.1l-65.1,21.9
		c-1.1,0.4-2.3-0.2-2.7-1.3l-2.4-6.6C693.2,146,693.9,144.7,695.1,144.3z"/>
	<path class="st124" d="M760.6,130.2l-2.2-4.2l-57.1,18.4c-1.1,0.3-1.7,1.5-1.3,2.6l1.9,5.4l57.5-19.4
		C760.7,132.6,761.2,131.3,760.6,130.2z"/>
	<path class="st125" d="M725,136.8c0,2.6-0.1,5.3-0.3,8l17.9-6c0.6-2.9,1.3-5.6,2.1-8.3L725,136.8z"/>
	<path class="st99" d="M799.4,178.7c0-1.6-0.8-2.9-1.8-2.9s-1.8,1.3-1.8,2.9c0,1.6,0.8,2.9,1.8,2.9
		C798.5,181.6,799.4,180.3,799.4,178.7z"/>
	<path class="st99" d="M755.6,53.4c-0.8-1.4-2.1-2.1-3-1.6s-1,2.1-0.2,3.5s2.1,2.1,3,1.6S756.4,54.8,755.6,53.4z"/>
	<path class="st99" d="M793.6,154.6c-0.2-1.1-0.9-1.8-1.6-1.7c-0.7,0.1-1.1,1.1-0.9,2.2c0.2,1.1,0.9,1.8,1.6,1.7
		C793.4,156.6,793.8,155.6,793.6,154.6z"/>
	<path class="st99" d="M769.8,92.4c-0.2-1.1-0.9-1.8-1.6-1.7c-0.7,0.1-1.1,1.1-0.9,2.2c0.2,1.1,0.9,1.8,1.6,1.7
		C769.6,94.4,770,93.5,769.8,92.4z"/>
	<path class="st99" d="M782,122.2c-0.2-1.1-0.9-1.8-1.6-1.7c-0.7,0.1-1.1,1.1-0.9,2.2c0.2,1.1,0.9,1.8,1.6,1.7
		C781.8,124.2,782.2,123.3,782,122.2z"/>
</g>
</svg>
