<?xml version="1.0" encoding="utf-8"?>
<!-- Generator: Adobe Illustrator 25.4.1, SVG Export Plug-In . SVG Version: 6.00 Build 0)  -->
<svg version="1.1" id="Layer_1" xmlns="http://www.w3.org/2000/svg" xmlns:xlink="http://www.w3.org/1999/xlink" x="0px" y="0px"
	 viewBox="0 0 564.7 406" style="enable-background:new 0 0 564.7 406;" xml:space="preserve">
<path style="fill:none;stroke:#D1D3D4;stroke-miterlimit:10;" d="M492.8,401.6L23.5,334.4C12.2,332.8,4.3,322.3,5.9,311L47.5,21.2
	C49.1,9.9,59.6,2,70.9,3.6l469.3,67.3c11.3,1.6,19.2,12.1,17.5,23.4l-41.5,289.8C514.6,395.4,504.1,403.3,492.8,401.6z"/>
<path style="fill:none;stroke:#D1D3D4;stroke-miterlimit:10;" d="M510.2,371H50.1c-15.1,0-27.3-12.2-27.3-27.3V59.2
	c0-15.1,12.2-27.3,27.3-27.3h460.1c15.1,0,27.3,12.2,27.3,27.3v284.5C537.5,358.8,525.3,371,510.2,371z"/>
<g>
	<g>
		<rect x="297.3" y="218.1" style="fill:#D7D8D8;" width="8.3" height="9.6"/>
		<rect x="296.5" y="224.8" style="fill:#102F52;" width="13.3" height="7.7"/>
		<path style="fill:#3F9645;" d="M303,227.3c10.1,0,18.3,7.4,18.3,16.4v96.8c0,3.1-1,6-2.6,8.5c-3.5,1.1-7.3,1.8-11.4,1.8h-7.1
			c-4.8,0-9.4-0.9-13.3-2.5c-1.4-2.3-2.2-5-2.2-7.8v-96.8C284.7,234.7,292.9,227.3,303,227.3z"/>
		<rect x="313.6" y="246.3" style="opacity:0.7;fill:#FFFFFF;" width="3.1" height="92.8"/>
		<path style="opacity:0.7;fill:#FFFFFF;" d="M300.3,239.9c0,0-8.3,0.9-10.9-1.8c0,0,1.2-7.1,8.6-7.7L300.3,239.9z"/>
		<path style="fill:#D7D8D8;" d="M307.7,214.4c0-3-2.7-5.5-6.1-5.5c-3.4,0-6.1,2.5-6.1,5.5c0,3,2.7,5.5,6.1,5.5
			C305,219.9,307.7,217.4,307.7,214.4z"/>
		<path style="fill:#A1A2A3;" d="M304.3,214.7c0-1.4-1.2-2.5-2.8-2.5c-1.5,0-2.8,1.1-2.8,2.5c0,1.4,1.2,2.5,2.8,2.5
			C303.1,217.1,304.3,216,304.3,214.7z"/>
		<path style="fill:none;stroke:#A1A2A3;stroke-width:0.7801;stroke-miterlimit:10;" d="M306.6,214.7c0-2.5-2.3-4.5-5-4.5
			c-2.8,0-5,2-5,4.5c0,2.5,2.3,4.5,5,4.5C304.3,219.2,306.6,217.2,306.6,214.7z"/>
		<rect x="294.8" y="219.1" style="fill:#D7D8D8;" width="19.1" height="4.2"/>
		<path style="opacity:0.7;fill:#FFFFFF;" d="M296.2,220.6c0,0.4,0.3,0.7,0.8,0.7h10c0.4,0,0.8-0.3,0.8-0.7l0,0
			c0-0.4-0.3-0.7-0.8-0.7h-10C296.6,219.9,296.2,220.2,296.2,220.6L296.2,220.6z"/>
		<path style="fill:#05233B;" d="M313.2,217.4h5c0.3,0,0.6,0,0.9,0.1c0.6,0.6,1,1.5,1,2.4v2c0,1.4-0.8,2.6-2.1,3.2h-4.8
			c-2.3,0-4.2-1.7-4.2-3.7v-0.2C309,219.1,310.9,217.4,313.2,217.4z"/>
		<g>
			<path style="fill:#FFFFFF;" d="M292.3,281.3c2.2,0,3.9,1,4,3.1c0,1.5-1.1,3.2-3.3,3.5c-0.7,0.1-1.7,0-2.3-0.2
				c-1.5-0.4-2.6-1.6-2.6-3.2C288,282.5,290.2,281.2,292.3,281.3z M291.1,285.8c0.4,0.1,0.8,0.1,1.1,0c0.7-0.2,1.3-0.7,1.4-1.4
				c0-0.1,0-0.2,0-0.3c-0.1-1.5-3.5-1.3-3.5,0.2C290.1,285.1,290.5,285.6,291.1,285.8z"/>
			<path style="fill:#FFFFFF;" d="M296.3,279.2c-0.1,0.5-0.3,1.5-0.8,1.9c-1.3-0.7-2.3-1.3-3.5-2.1c-1.1,0.7-1.7,1.2-3.2,2.2
				c-0.4-0.2-0.8-1.3-0.9-1.9c0.8-0.6,2.1-1.2,2.6-1.5c-0.7-0.4-1.9-1-2.5-1.5c0.1-0.5,0.4-1.6,0.9-1.8c1.2,0.6,1.9,1.2,3.1,1.9
				c1.3-1,2.2-1.6,3.4-2.4c0.4,0.2,0.8,1.3,0.9,1.9c-0.8,0.6-2,1.3-2.5,1.7C294.7,278.1,295.7,278.7,296.3,279.2z"/>
			<path style="fill:#FFFFFF;" d="M287.8,269c0.1-0.6,0.5-1.6,1-1.9c1.3,0.8,2.6,1.5,4,2.5c1.6-0.1,3.1-0.1,3.3,0
				c0.3,0.2,0.3,1.8,0.4,2.2c0,0.4-0.3,0.2-0.3,0.2s-1.4-0.1-2.7-0.2c-0.2,0-0.5,0-0.7,0c-1.1,0.8-2.5,1.6-4,2.4
				c-0.6-0.4-0.8-1.4-0.9-1.9c0.7-0.4,1.9-1.1,2.7-1.6C290.1,270.4,288.6,269.6,287.8,269z"/>
			<path style="fill:#FFFFFF;" d="M292.9,263.5c-0.3,0-0.6,0-0.9,0l-0.1,0l0-0.1c0-0.4-0.1-0.9,0-1.3l0-0.1l3.5-0.4l0,0.1
				c0.6,0.8,0.9,1.8,0.9,2.8c0,0.9-0.3,1.7-1.1,2.3c-1.4,1.1-3.7,1.1-5.3,0.1c-1.6-1-2.1-2.6-2-4.4v-0.1l0.1,0
				c0.5-0.2,1.1-0.3,1.7-0.3h0.1v0.1c0,0.8,0.1,2,0.6,2.6c0.1,0.1,0.1,0.2,0.2,0.3c0.1,0.1,0.3,0.2,0.5,0.3c0.6,0.3,1.4,0.4,2,0.1
				c0.6-0.3,0.8-0.8,0.8-1.4c0-0.1,0-0.3,0-0.4C293.6,263.5,293.3,263.5,292.9,263.5z"/>
			<path style="fill:#FFFFFF;" d="M296.2,256.2c0.1,1.2,0.1,3.5-0.2,4.9c-2.4-0.1-5.2-0.4-7.5-0.5c-0.2-0.9-0.4-2.9-0.3-4.3
				c0.6,0,1.4,0.1,1.7,0.1c0,0.9,0.1,1.8,0.3,2.4l1.4,0c0-1.2,0-1.8,0-2c0.4-0.1,1,0,1.4,0c0.1,0.7,0.1,1.2,0,2c0.5,0,1.1,0,1.6-0.1
				c0-0.8,0-1.5-0.2-2.4C294.7,256.1,295.7,256.2,296.2,256.2z"/>
			<path style="fill:#FFFFFF;" d="M295.9,250.9C295.9,250.9,295.9,250.9,295.9,250.9C295.9,250.9,295.9,250.9,295.9,250.9l0,0.1l0,0
				l0,0c-1.5,0.7-2.7,1.6-4.2,2.2l0,0c0.8,0,4.5,0,4.6,0c0.1,0.2,0,1.7,0,2.1c0,0,0,0.2-0.1,0.2c-2.8,0.1-5.3-0.3-7.9-0.4
				c0,0-0.1,0-0.1-0.1l0-1.8c0,0,0-0.1,0.1-0.1c1.1-0.4,2.5-1.4,3.7-2v0c-1.5-0.1-3.1-0.2-3.6-0.2c-0.1,0-0.1-0.1-0.1-0.2l0-1.2
				c0-0.2,0.1-0.3,0.4-0.3c2.2-0.1,5.2-0.3,7.4-0.2c0.2,0,0.1,1.1,0.1,1.7C296,250.7,296,250.8,295.9,250.9z"/>
		</g>
	</g>
	<rect x="284" y="256.9" style="opacity:0.3;fill:#231F20;" width="37.1" height="8.9"/>
	<rect x="284" y="325.3" style="opacity:0.3;fill:#231F20;" width="37.1" height="8.9"/>
	<rect x="283.5" y="251.3" style="opacity:0.3;fill:#231F20;" width="37.1" height="1.7"/>
	<rect x="283.5" y="321.1" style="opacity:0.3;fill:#231F20;" width="37.1" height="1.7"/>
	<ellipse style="fill:#827E91;" cx="294.6" cy="228.7" rx="8.7" ry="7.8"/>
	<ellipse style="fill:#FFFFFF;" cx="294.6" cy="228.7" rx="6" ry="5.4"/>
	<path style="fill:#827E91;" d="M299.3,227.9h-1.1c-1,0-1,1.4,0,1.4h1.1C300.3,229.2,300.3,227.9,299.3,227.9z"/>
	<path style="fill:#827E91;" d="M291.6,227.9h-1.1c-1,0-1,1.4,0,1.4h1.1C292.6,229.2,292.6,227.9,291.6,227.9z"/>
	<path style="fill:#827E91;" d="M295.6,232.5v-1c0-0.9-1.5-0.9-1.5,0v1C294.1,233.4,295.6,233.4,295.6,232.5z"/>
	<path style="fill:#827E91;" d="M295.6,225.6v-1c0-0.9-1.5-0.9-1.5,0v1C294.1,226.5,295.6,226.5,295.6,225.6z"/>
</g>
<g>
	<polygon style="fill:#667175;" points="114.3,126.4 96.8,137.8 99.6,141.5 118.1,130.2 	"/>
	<path style="fill:#E95A44;" d="M156.9,122.4c0,0,69.9-15.3,75.2-11.7l-1.9,63.7l4.1,20.7l-4.1,4.1c0,0-48.5,30.8-61.4,17.8l7.7-7.4
		C176.5,209.6,152.8,125.9,156.9,122.4z"/>
	<path style="fill:#E95A44;" d="M231.9,110.8c0,0,25.8,28.9,24.7,33.6c0,0-14.7,18.9-20.6,14.7l-12.9-20
		C223.1,139,224.9,112.5,231.9,110.8z"/>
	<path style="fill:#E95A44;" d="M236.1,159.1l-4.7,5.3l12.2,28.6c0,0,13.5,2.4,18.2-6.5l-1-38c0,0-1.8-4.7-8.2-1.8
		C246,149.6,236.1,159.1,236.1,159.1z"/>
	<path style="fill:#E95A44;" d="M199.7,195.8l28.7-9.9l5.7,51.5l-27.9,14l-5.5-26.2C200.7,225,196.3,199.2,199.7,195.8z"/>
	<path style="fill:#E95A44;" d="M176.1,197.1c0,0,23.3,10.4,24.7,10.9c1.5,0.5-4.6,25.7-4.6,25.7l-27.7-1.4
		C168.5,232.2,167.7,199.5,176.1,197.1z"/>
	<path style="fill:#E95A44;" d="M197.9,224.8v26.8l-17.3,43.6l-2.6,22.3l-8-3.3l-7.2-21.7l3.1-39.5l5-31.4
		C170.9,221.5,188.7,229.2,197.9,224.8z"/>
	<path style="fill:#E95A44;" d="M229.9,234.3c0,0-18.6,5-21.6,13.5l1.7,24.7l5,20.6l6,22.2l12.5,1.4l0.6-37.4
		C234.1,279.4,238.4,242.8,229.9,234.3z"/>
	<path style="fill:#463427;" d="M162.1,278.5l25.6,10.3l-11.4,48.5h-26.4c0,0,8.1-5.1,12.5-7.1C166.9,328.2,162.1,278.5,162.1,278.5
		z"/>
	<polygon style="fill:#463427;" points="210.3,288.9 239.1,276.9 233.5,333.3 247.3,338.4 214.7,338.4 	"/>
	<g>
		<path style="fill:#ED9C7A;" d="M216.3,88.4c-0.1-0.4,6.2-4.9,7.5,0c1.4,4.9-2,19-10.4,16.5C213.5,104.9,217.3,94,216.3,88.4z"/>
		<path style="fill:#231F20;" d="M220.2,89.5c-0.8-0.3-1.2,1-0.4,1.3c2.6,1,0.2,5.7-1,7c-0.6,0.6,0.4,1.6,1,1
			C221.8,96.6,224.1,91,220.2,89.5z"/>
	</g>
	<path style="fill:#D17D66;" d="M176.9,103.6l-0.1,27.4c0,0,7.3,10.1,21.4,8.1c5.3-0.8,11.6-10.8,18.8-12.8l-7.9-24.1L176.9,103.6z"
		/>
	<g>
		<path style="fill:#ED9C7A;" d="M170.5,80.7c0.1-0.4-6.2-4.9-7.5,0c-1.4,4.9,2,19,10.4,16.5C173.4,97.2,169.6,86.3,170.5,80.7z"/>
		<path style="fill:#231F20;" d="M166.7,81.8c0.8-0.3,1.2,1,0.4,1.3c-2.6,1-0.2,5.7,1,7c0.6,0.6-0.4,1.6-1,1
			C165.1,88.9,162.8,83.3,166.7,81.8z"/>
		<g>
			<path style="fill:#F8A184;" d="M173.7,56.3c0,0,33.3-5.7,40.6-5.2c7.3,0.5,2.1,51,2.1,51s-10.7,20.4-23.3,19.9
				c-12.6-0.5-22.8-20.9-22.8-20.9S169.8,75.2,173.7,56.3z"/>
			<path style="fill:#3E2716;" d="M196.6,70V73c0,0,9-4.4,15.3-2.9C211.8,70,211.3,64.7,196.6,70z"/>
			<path style="fill:#3E2716;" d="M188.9,72v5.3c0,0-9-7.9-15.3-5.3C173.6,72,174.1,62.3,188.9,72z"/>
			<path style="fill:#3E2716;" d="M206.3,80.9c0,0.8-0.7,1.5-1.5,1.5c-0.8,0-1.5-0.7-1.5-1.5c0-0.8,0.7-1.5,1.5-1.5
				C205.7,79.4,206.3,80.1,206.3,80.9z"/>
			<path style="fill:#3E2716;" d="M182.7,80.9c0,0.8-0.7,1.5-1.5,1.5s-1.5-0.7-1.5-1.5c0-0.8,0.7-1.5,1.5-1.5S182.7,80.1,182.7,80.9
				z"/>
			<path style="opacity:0.51;fill:#3E2716;" d="M172.2,62.3l38.1-5.8l2.2,18.9l5.2,5.3l-4.2-26.3L182.9,53
				C182.9,53,169.7,53.6,172.2,62.3z"/>
			<path style="opacity:0.51;fill:#3E2716;" d="M197.2,75.3l-3.2,5.6v15.3h6.4l-2-18.8l14.1-2.1C212.5,75.3,213.2,69.7,197.2,75.3z"
				/>
			<path style="fill:#441F18;" d="M182.7,104.3c0,0,18.4,0,23.6-2.7c0,0-1.8,10.2-19.5,10.4L182.7,104.3z"/>
			<path style="fill:#F3EBDB;" d="M203.2,105.1v-2.5l0,0c-5.4,1.2-14.3,1.6-18.4,1.6l0,0l1,3.8C185.8,108.1,197.8,108.8,203.2,105.1
				z"/>
			<path style="fill:#8F4C3C;" d="M193.5,108.1c-3.2,0-6.1,0.6-7.9,1.6l1.2,2.3c6-0.1,10.2-1.3,13.1-2.9
				C198.2,108.5,195.9,108.1,193.5,108.1z"/>
			<path style="opacity:0.51;fill:#3E2716;" d="M187.3,115.7c0,0,9.5,0,14.1-3.7C201.3,112,195.5,119.8,187.3,115.7z"/>
			<path style="opacity:0.51;fill:#3E2716;" d="M217.4,85l-5.6,4.7v14.6l-5.5,11.3c0,0,9.8-10.8,10-13.5
				C216.3,102.1,217.4,87.3,217.4,85z"/>
		</g>
		<path style="fill:#3C2517;" d="M211.2,57.8c0,0,6.3,13.2,5.7,25c-0.6,11.8,5.3-1.8,5.3-1.8S228.4,52.5,211.2,57.8z"/>
		<path style="fill:#3C2517;" d="M176.5,57.8c0,0-6.3,13.2-5.7,25c0.6,11.8-5.3-1.8-5.3-1.8S159.3,52.5,176.5,57.8z"/>
		<path style="fill:#3C2517;" d="M172.5,51.3c-0.3,0-14.4,4.1-17.6,12.7l36.2-11.4C191.1,52.6,180.8,51,172.5,51.3z"/>
		<ellipse style="opacity:0.33;fill:#EE2E7B;" cx="211.4" cy="90.6" rx="4.5" ry="4.9"/>
		<ellipse style="opacity:0.33;fill:#EE2E7B;" cx="176.5" cy="90.6" rx="4.5" ry="4.9"/>
		<path style="fill:#3C2517;" d="M192.2,93.3c0,0-12.4-0.4-14.3,4l-1.1,6.2l32.2-1.5C209,102.1,203.6,92.2,192.2,93.3z"/>
		<path style="fill:#3C2517;" d="M172.5,53.7c0,0,3.7-10.3,5.5-10.6c1.8-0.4,37.3-4,42.4,4c5.1,8.1-1.5,19.4-1.5,19.4l-6.9-15
			C212,51.5,178,63.3,172.5,53.7z"/>
	</g>
	<path style="opacity:0.51;fill:#3E2716;" d="M198.2,139c0,0,12.7,0.7,15.9,8.7c0,0,16-12.3,6.9-31
		C221.1,116.8,200.9,132.5,198.2,139z"/>
	<path style="fill:#F69288;" d="M217,111.5c0,0-14.1,6-18.8,27.6c0,0,14.7-6.7,17.4,2.7C215.6,141.7,223.7,119.5,217,111.5z"/>
	<path style="opacity:0.51;fill:#3E2716;" d="M175.3,120.5c0,0-13.3,8-10.6,28.3c0,0,13.3-10.7,26.9-7.8L175.3,120.5z"/>
	<path style="fill:#F69288;" d="M191.5,141c0,0-14.7-14.1-15.4-24.9c0,0-14.1,10.1-6.7,27.6C169.4,143.7,183.5,136.3,191.5,141z"/>
	<path style="fill:#F69288;" d="M198.2,139l-6.7,2l5.4,75.3l4.7,0.7C201.6,217,195.5,141.7,198.2,139z"/>
	<polygon style="fill:#D94434;" points="206.1,150.1 220.9,148.5 220.3,167.5 204,168 	"/>
	<g>
		<g>
			<path style="fill:#3E2716;" d="M252.6,128.3c0,0,8.3,4.2,6.8,11.5l-1.3,6.5c0,0,1.4,5,1.4,5.3c0,0.4-10.4,11.3-10.4,11.3
				s-8.2,1.5-6.5-5.2c1.4-5.3,6.3-8.8,6.3-8.8s2.2-9.1-1.7-15.2C247.2,133.7,248.1,127.7,252.6,128.3z"/>
			<path style="fill:#3E2716;" d="M243.2,159.4l1.3,11.1l-2.4,6.1c0,0,2.6,10.6,7.7,12.5l18-6.6l-9.9-24.1L243.2,159.4z"/>
			<path style="opacity:0.5;fill:#010101;" d="M248.5,157.4L247,165c0,0-3.1,12.1,2.9,15.5l13.2-11.1
				C263.1,169.3,259.8,152.7,248.5,157.4z"/>
			<path style="fill:#3E2716;" d="M269.3,160.2c0,0,3.5,3.3,3.2,5.8l-2,4.1l-20.6,0.6c0,0-2.5-4.7-0.8-7.8l2.5-3.1
				C251.6,159.8,267.6,158.2,269.3,160.2z"/>
			<path style="fill:#3E2716;" d="M250.4,177.3l-1.9,4.9c0,0,4.3,4,11,3.9l8.8-3.8l0.8-4L250.4,177.3z"/>
			<path style="fill:#3E2716;" d="M252.1,150.7l13.1-0.8c0,0,6,3.9,5.4,6.6l-0.7,3.6l-18.4-0.4l-2.5,3.1
				C249.1,162.8,247,154.9,252.1,150.7z"/>
			<path style="fill:#3E2716;" d="M269.9,170.1c0,0,0.3,2.8,1,3.7c0.8,1-0.2,1.8-1.7,4.5c0,0-15.1,1.8-20.3-1.8l0.9-4.7l0.9-1.2
				C250.7,170.6,267.8,167.9,269.9,170.1z"/>
		</g>
		<path style="fill:#683E17;" d="M254.2,159.8c0,0,17.4-1.6,15.8,0.4C268.3,162.1,256.5,162.1,254.2,159.8z"/>
		<path style="fill:#683E17;" d="M267.9,168.4L253,170C253,170,266.7,173.6,267.9,168.4z"/>
		<path style="fill:#683E17;" d="M266,177.5l-12.6,2C253.4,179.5,262.4,180.7,266,177.5z"/>
	</g>
	<path style="fill:#F69288;" d="M202.5,147.9l0.6,11.4l22.9-3.9l-2.5-6.9C223.5,148.5,207.6,142.9,202.5,147.9z"/>
	<polygon style="fill:#D94434;" points="173.6,154.2 188.2,153.6 188.5,169.2 174.5,170.1 	"/>
	<polygon style="fill:#F69288;" points="172.1,150.6 173,160.2 190,157.8 188.8,148.5 	"/>
	<polygon style="opacity:0.51;fill:#3E2716;" points="175.8,167.2 224.1,161.4 227,169.3 178.5,172.1 	"/>
	<polygon style="opacity:0.51;fill:#3E2716;" points="222.3,174.8 218.3,207.1 213.4,205.8 218.3,173.9 	"/>
	<polygon style="opacity:0.51;fill:#3E2716;" points="169.6,145.3 175.4,179.8 192.8,178.4 192.4,182.9 171.8,184.7 167.4,145.3 	
		"/>
	<path style="fill:#E95A44;" d="M135.1,130.9l-12.5,14l18.7,37.4c0,0,10.4,6.2,23.7-14.2C164.9,168.1,143.4,131.2,135.1,130.9z"/>
	<path style="fill:#E95A44;" d="M158,121.8l-13.5,27.6c0,0,12.3,20.4,19.5,19.2l8.1-18C172.1,150.6,165.2,121.4,158,121.8z"/>
	<polygon style="fill:#E7AF22;" points="160.2,127.3 150.3,141.5 156.9,144.4 164,128.3 	"/>
	<g>
		<polygon style="fill:#424143;" points="144.3,96.1 165.4,131.6 162.9,134.1 141.8,99.6 		"/>
		<polygon style="fill:#3E2716;" points="134.1,127.7 118.1,103.5 114.7,106.7 116,113.3 101.4,123.5 115.7,140.9 		"/>
		<g>
			<path style="fill:#3E2716;" d="M141.8,118.4l3.4,5.4c1.7,2.7,5.2,3.4,7.9,1.7l1.9-1.2c2.7-1.7,3.4-5.3,1.7-7.9l-3.4-5.4
				c-0.6-1-1.9-1.3-2.9-0.6l-8,5.1C141.4,116.1,141.1,117.4,141.8,118.4z"/>
			<polygon style="fill:#424143;" points="118.7,115.5 121.6,120.1 125.9,117.4 123,112.8 			"/>
			<path style="fill:#E53D46;" d="M143.4,120.6l-6.5,4.2l-2.8-4.4c0,0-10.8,10.7-26,20.5L99.3,127l16.5-10.6l4.3,0.9l4.8-3.1
				l-6.8-10.8l9.8-6.3L143.4,120.6z"/>
			<polygon style="fill:#EBE2B9;" points="116,64.1 136.7,96.8 140.1,94.6 119.4,62 			"/>
			<path style="fill:#88A5A1;" d="M128.2,86.3L128.2,86.3c0.4,0.7,1.3,0.9,2,0.4l3.3-2.1c0.7-0.4,0.9-1.3,0.4-2l0,0
				c-0.4-0.7-1.3-0.9-2-0.4l-3.3,2.1C128,84.8,127.8,85.7,128.2,86.3z"/>
			<path style="fill:#67918A;" d="M129,88.8L129,88.8c0.5,0.8,1.6,1,2.4,0.5l4-2.5c0.8-0.5,1-1.6,0.5-2.4l0,0
				c-0.5-0.8-1.6-1-2.4-0.5l-4,2.5C128.7,87,128.5,88,129,88.8z"/>
			<path style="fill:#88A5A1;" d="M129.4,91.1L129.4,91.1c0.6,1,1.9,1.3,2.9,0.6l4.8-3.1c1-0.6,1.3-1.9,0.6-2.9l0,0
				c-0.6-1-1.9-1.3-2.9-0.6l-4.8,3.1C129,88.8,128.8,90.1,129.4,91.1z"/>
			<path style="fill:#E53D46;" d="M158.5,116.8l-20.1-31.6l-9.4,6l-3-4.8l-5,3.2l21.1,33.2l9.6-6.1l1.5,2.3
				C153.2,119,158.9,117.4,158.5,116.8z"/>
			<polygon style="fill:#F37783;" points="124.6,88.7 144.6,120 145.8,119.3 125.8,87.9 			"/>
			<polygon style="fill:#F37783;" points="137.5,88.7 152.7,112.5 154.6,111.3 139.4,87.5 			"/>
			<polygon style="fill:#EBE2B9;" points="120.9,59.7 121.1,64.8 117.2,67.3 113.8,65 104.4,47.9 108.7,45.2 			"/>
			<polygon style="fill:#FDFEFC;" points="120.1,66.2 129.3,80.7 128.4,81.3 119.2,66.8 			"/>
			<polygon style="fill:#1C1E1E;" points="117.8,61.2 114.9,64.2 105.8,48.3 107.5,47.2 			"/>
			<polygon style="fill:#FDFEFC;" points="119.7,59.6 118.4,60.4 107.5,47.2 108.8,46.4 			"/>
			<path style="fill:#EBE2B9;" d="M141.7,91l-2.5-4l-7,4.5l4.7,7.4l2.3-1.5l-2.5-3.9C136.7,93.6,141.6,91.1,141.7,91z"/>
			<path style="fill:#EBE2B9;" d="M149.5,110.8c-0.8,0.5-1,1.5-0.5,2.3c0.5,0.8,1.5,1,2.3,0.5c0.8-0.5,1-1.5,0.5-2.3
				C151.4,110.6,150.3,110.3,149.5,110.8z"/>
			<path style="fill:#EBE2B9;" d="M146.8,106.5c-0.8,0.5-1,1.5-0.5,2.3c0.5,0.8,1.5,1,2.3,0.5c0.8-0.5,1-1.5,0.5-2.3
				C148.6,106.2,147.6,106,146.8,106.5z"/>
			<polygon style="fill:#1C1E1E;" points="123.6,100 138.3,123.1 141.3,121.2 126.6,98.1 			"/>
			<path style="fill:#1C1E1E;" d="M121.4,124.5l-16.1,10.3l-1-1.6l16.3-10.5C120.6,122.8,121.7,125,121.4,124.5z"/>
			<path style="fill:#BDBEC0;" d="M128.8,111.8l-5.8-9.2l-2.1,1.4l5.8,9.2C126.7,113.1,129.2,112.3,128.8,111.8z"/>
			<path style="fill:#1C1E1E;" d="M148.9,123.3c1.7,0.4,3-0.6,4.2-1.7c0.8-0.8,2,0.4,1.2,1.1c-1.6,1.5-3.5,2.8-5.8,2.2
				C147.4,124.7,147.8,123,148.9,123.3z"/>
			<path style="fill:#1C1E1E;" d="M156.5,119.6c0.6,0.9-0.8,1.8-1.4,0.9C154.5,119.6,156,118.7,156.5,119.6z"/>
			<path style="fill:#1C1E1E;" d="M132.3,96.4l13.3,21c0.6,1,1.9,1.3,2.9,0.6l3.4-2.2c1-0.6,1.3-1.9,0.6-2.9l-13.3-21
				c-0.6-1-1.9-1.3-2.9-0.6l-3.4,2.2C131.9,94.1,131.7,95.4,132.3,96.4z"/>
		</g>
		<path style="fill:#3E2716;" d="M116,113.3l2.8,7l-11.7,7l-6.6-6.6C100.5,120.7,113,111.5,116,113.3z"/>
		<polygon style="fill:#3E2716;" points="131.5,129 136,134.6 123.1,144.6 119.9,137.1 		"/>
		<g>
			<path style="fill:#8DD3D3;" d="M106.3,46.2l-3.9-1.6c0,0-3.6-10.4-1.5-11.9c0,0,6.5,7.2,6.7,10l-0.3,2.9L106.3,46.2z"/>
			<path style="fill:#D4EDEC;" d="M106.7,45.1l-1.8-4.9l-3.1-3.4l1.1,4.6C102.8,41.4,105.7,44.7,106.7,45.1z"/>
		</g>
	</g>
	<polygon style="opacity:0.51;fill:#3E2716;" points="233.6,135.9 228.8,147.2 236.1,159.1 241.6,149.1 	"/>
	<g>
		
			<rect x="219.8" y="64.5" transform="matrix(8.343767e-03 -1 1 8.343767e-03 159.9151 296.6664)" style="fill:#50505C;" width="19.5" height="6.5"/>
		
			<rect x="148.1" y="63.9" transform="matrix(8.352722e-03 -1 1 8.352722e-03 89.3972 224.3609)" style="fill:#50505C;" width="19.5" height="6.5"/>
		<path style="fill:#3E2716;" d="M222.3,38.4l-53.4-0.1l-8.4,5.7l-2.8,57.4l18.9,24.3l25.9,0.2l23.8-19.3l2.4-58.1L222.3,38.4z
			 M218.1,91.9l-50.7-0.4l1.1-39.8l51.5,1.6L218.1,91.9z"/>
		
			<rect x="170.5" y="44" transform="matrix(8.349298e-03 -1 1 8.349298e-03 119.641 265.4048)" style="opacity:0.44;fill:#5F7482;" width="46.3" height="56.8"/>
		<path style="fill:#50505C;" d="M176.2,40.7l5-6.8l27.8,0.2l3,8.1C212,42.1,175.2,39.7,176.2,40.7z"/>
		<polyline style="opacity:0.37;fill:#FFFFFF;" points="213.8,52.8 168.9,88.1 176.9,93.9 221.4,60.6 216.5,52.1 		"/>
		<polygon style="opacity:0.35;fill:#FFFFFF;" points="188.7,89 217.8,73.9 219.7,80.4 194.1,90.6 		"/>
		
			<rect x="190.8" y="36.1" transform="matrix(8.349378e-03 -1 1 8.349378e-03 144.9079 240.7606)" style="fill:#DF3739;" width="6.1" height="22.5"/>
		
			<rect x="191" y="66.5" transform="matrix(8.348959e-03 -1 1 8.348959e-03 96.0994 289.1168)" style="opacity:0.51;fill:#3E2716;" width="5.7" height="59.1"/>
		
			<rect x="143.2" y="70.6" transform="matrix(8.327741e-03 -1 1 8.327741e-03 92.8473 236.3857)" style="opacity:0.51;fill:#3E2716;" width="44.8" height="1.5"/>
		
			<rect x="198" y="70.5" transform="matrix(8.345293e-03 -1 1 8.345293e-03 146.648 293.0963)" style="opacity:0.51;fill:#3E2716;" width="46.3" height="4.2"/>
		
			<rect x="191.8" y="20.6" transform="matrix(8.350052e-03 -1 1 8.350052e-03 152.0388 234.1803)" style="opacity:0.51;fill:#3E2716;" width="4.6" height="39.7"/>
		
			<rect x="156.5" y="58.2" transform="matrix(8.347088e-03 -1 1 8.347088e-03 102.7341 222.9857)" style="fill:#E7AF22;" width="14.5" height="3.1"/>
		<polygon style="opacity:0.51;fill:#3E2716;" points="168.9,105.9 215.6,103.1 201.7,118.6 177.4,117.7 		"/>
	</g>
	<g>
		<polygon style="fill:#463427;" points="156.1,206.7 233,198.5 236.1,210.2 157.6,219.5 		"/>
		<g>
			<path style="fill:#938454;" d="M162.1,195.3c0,0,3.2,7.5,3.7,15.9c0.5,8.4,5.7,23.8-12.1,16.4L162.1,195.3z"/>
			<path style="fill:#C7BD98;" d="M162.1,195.3c0.5,5.2,1.1,10.5,1.6,15.7c0.3,3.3,0.7,6.7,1,10c0.3,3.4,0.6,6.9-3.6,6.4
				c-2.6-0.3-9.4,1.9-10.5-2.7c-0.4-1.8,0.2-4.5,0.1-6.5c-0.2-3.1-0.4-6.1-0.8-9.1c-0.3-2.1-0.9-4.5-0.5-6.6
				c0.4-2.2,2.2-2.5,3.9-3.2C156.2,198,159.2,196.7,162.1,195.3z"/>
			<path style="fill:#B3AB8B;" d="M161.5,197.5c0,0-2.3,26.4,0.8,28.4C165.4,227.9,161.5,197.5,161.5,197.5z"/>
			<path style="fill:#BDB287;" d="M161.6,195.4c0,0-13,5-12.9,5.9c0.1,0.9-0.8,13.3-0.8,13.3l12.8-3.1
				C160.7,211.5,160.9,200.6,161.6,195.4z"/>
		</g>
		<path style="fill:#938454;" d="M153.7,209.2c0,0-2.9,6.8-1.4,8.1C153.8,218.4,157.8,210.7,153.7,209.2z"/>
		<polygon style="fill:#383739;" points="156.1,206.7 161.1,198.2 165.1,199.9 159.6,208.7 		"/>
		<g>
			<path style="fill:#683E17;" d="M162.6,197c0,0,19.5,12.2,18.6,19.1l-9.2,3.4l-10.9-21C161.1,198.5,160.2,196.9,162.6,197z"/>
			<path style="fill:#938454;" d="M187.5,196.8c0,0-4.9,27.6-6.9,28.6s-16.1-3.7-15.8-5s-0.4-23.5,4.3-25S186.2,193.4,187.5,196.8z"
				/>
			<path style="fill:#C7BD98;" d="M166.8,196.6c0,0-2.3,21.1-0.6,22.1c1.8,1,14.1,2.7,14.1,2.7s5.9-21.3,4.3-23.9
				S169.9,194.8,166.8,196.6z"/>
			<path style="fill:#BDB287;" d="M167.3,194.4c0,0-2.7,6.2-3,11.5c0,0,17.9,3.6,21.7-0.8c0,0,3.3-8.6,1.3-10.1
				C185.4,193.6,170.8,192.6,167.3,194.4z"/>
			<path style="fill:#683E17;" d="M165.5,205.4c0,0,19-2.6,17.8,0.9C182.2,209.7,167,208.5,165.5,205.4z"/>
		</g>
		<polygon style="fill:#938454;" points="170.3,213.3 166.5,213 167,203.3 170.8,203.5 		"/>
	</g>
	<polygon style="opacity:0.51;fill:#3E2716;" points="197.9,224.8 187.2,225.3 191,249.5 176.8,286.3 181,287.6 197.9,251.6 	"/>
	<polygon style="opacity:0.51;fill:#3E2716;" points="228.8,204.2 221.3,211.5 221.7,236.8 226.9,232.6 226.5,263.4 232.1,262.8 	
		"/>
	<polygon style="fill:#E7AF22;" points="231.9,110.8 247.2,133.7 240.7,133.5 227.4,114.5 	"/>
	<polygon style="fill:#FFFFFF;" points="172,250.6 167.8,279 172.5,279 177.2,250 	"/>
	<polygon style="fill:#FFFFFF;" points="216.5,254.9 217.9,276.7 223.2,273.1 222.7,253.7 	"/>
	<g>
		<rect x="238.7" y="355.1" style="fill:#3A4144;" width="6.7" height="4.2"/>
		<rect x="260.5" y="355.1" style="fill:#667175;" width="6.7" height="4.2"/>
		<rect x="292.4" y="355.1" style="fill:#231F20;" width="6.7" height="4.2"/>
		<rect x="264.8" y="355.1" style="fill:#231F20;" width="6.7" height="4.2"/>
		<rect x="236" y="356.7" style="fill:#E53D46;" width="66.4" height="1.1"/>
		<g>
			<path style="fill:#77838B;" d="M277.1,298.6c0,0,5-0.2,8.2,1.1l5.1,4.8l1.1,5.5H288l-2.5-7.1l-7.9-1.8L277.1,298.6z"/>
			<polygon style="fill:#77838B;" points="275.8,303.2 271.9,305.1 271.9,311.1 267.2,311.1 267.2,303.8 273.5,300.7 			"/>
			<path style="fill:#231F20;" d="M264,310.2h4.7l0.8-4.9l2.6-2.1h10l3.5,3.3l-0.1,5.4h4.7l-0.8-5.8l-4.8-5.8c0,0-4.9-4-15.2-0.2
				l-2.5,2.4L264,310.2z"/>
		</g>
		<g>
			<path style="fill:#77838B;" d="M259.7,298.6c0,0,5-0.2,8.2,1.1l5.1,4.8l1.1,5.5h-3.5l-2.5-7.1l-7.9-1.8L259.7,298.6z"/>
			<polygon style="fill:#77838B;" points="258.3,303.2 254.4,305.1 254.4,311.1 249.8,311.1 249.8,303.8 256,300.7 			"/>
			<path style="fill:#3A4144;" d="M246.6,310.2h4.7l0.8-4.9l2.6-2.1h10l3.5,3.3l-0.1,5.4h4.7l-0.8-5.8l-4.8-5.8c0,0-4.9-4-15.2-0.2
				l-2.5,2.4L246.6,310.2z"/>
		</g>
		<polygon style="fill:#E53D46;" points="241.4,309.3 299.3,308.6 301.1,312 302.4,356.9 236.5,357.1 		"/>
		<polygon style="fill:#E53D46;" points="240.5,309.3 234.3,323.8 236.5,357.1 242.3,357.3 238.7,325.2 250.3,309.3 		"/>
		<polygon style="fill:#77838B;" points="241.4,309.3 271.3,308.8 267.2,325 236.5,325.3 		"/>
		<rect x="236.5" y="324.8" style="fill:#9AA7AD;" width="31.1" height="32.6"/>
		<rect x="237.8" y="327.9" style="fill:#4D545A;" width="11.1" height="1.9"/>
		<rect x="237.8" y="330.8" style="fill:#4D545A;" width="11.1" height="1.9"/>
		<rect x="237.8" y="333.8" style="fill:#4D545A;" width="11.1" height="1.9"/>
		<rect x="237.8" y="336.7" style="fill:#4D545A;" width="11.1" height="1.9"/>
		<rect x="237.8" y="339.7" style="fill:#4D545A;" width="11.1" height="1.9"/>
		<rect x="237.8" y="342.6" style="fill:#4D545A;" width="11.1" height="1.9"/>
		<rect x="252.3" y="327.9" style="fill:#4D545A;" width="11.1" height="1.9"/>
		<rect x="252.3" y="330.8" style="fill:#4D545A;" width="11.1" height="1.9"/>
		<rect x="252.3" y="333.8" style="fill:#4D545A;" width="11.1" height="1.9"/>
		<rect x="252.3" y="336.7" style="fill:#4D545A;" width="11.1" height="1.9"/>
		<rect x="252.3" y="339.7" style="fill:#4D545A;" width="11.1" height="1.9"/>
		<rect x="252.3" y="342.6" style="fill:#4D545A;" width="11.1" height="1.9"/>
		<polygon style="fill:#4D545A;" points="238.7,349.1 238.7,356 265.7,356 265.7,348.9 		"/>
		<path style="fill:#717980;" d="M244.3,352.2c0,1.4-1.1,2.5-2.4,2.5c-1.4,0-2.4-1.1-2.4-2.5c0-1.4,1.1-2.5,2.4-2.5
			C243.2,349.7,244.3,350.8,244.3,352.2z"/>
		<path style="fill:#A49667;" d="M243.2,352.2c0,0.7-0.6,1.3-1.3,1.3c-0.7,0-1.3-0.6-1.3-1.3c0-0.7,0.6-1.3,1.3-1.3
			C242.6,350.9,243.2,351.5,243.2,352.2z"/>
		<path style="fill:#717980;" d="M253.8,352.2c0,1.4-1.1,2.5-2.4,2.5c-1.4,0-2.4-1.1-2.4-2.5c0-1.4,1.1-2.5,2.4-2.5
			C252.7,349.7,253.8,350.8,253.8,352.2z"/>
		<path style="fill:#717980;" d="M263.4,352.2c0,1.4-1.1,2.5-2.4,2.5c-1.4,0-2.4-1.1-2.4-2.5c0-1.4,1.1-2.5,2.4-2.5
			C262.3,349.7,263.4,350.8,263.4,352.2z"/>
		<ellipse style="fill:#A49667;" cx="261" cy="352.2" rx="1.3" ry="1.3"/>
		<rect x="238.4" y="347.8" style="opacity:0.51;fill:#3E2716;" width="27.4" height="2.7"/>
		<rect x="265.3" y="326.9" style="opacity:0.51;fill:#3E2716;" width="1.7" height="18.4"/>
		<polygon style="fill:#2DB674;" points="243.3,312.2 240.6,319.5 257.8,319.5 259.5,312 		"/>
		<polygon style="fill:#FFFFFF;" points="240.6,319.5 259.5,312 257.8,319.5 		"/>
		<polygon style="fill:#E53D46;" points="271.3,308.8 265.7,324.5 267.5,357.3 		"/>
		<polygon style="opacity:0.51;fill:#3E2716;" points="234.3,323.8 238.7,325.2 238.7,356 236.5,357.3 		"/>
		<path style="fill:#F3FAFA;" d="M265.7,313.7c0,0.7-0.7,1.2-1.7,1.2c-0.9,0-1.7-0.6-1.7-1.2c0-0.7,0.7-1.2,1.7-1.2
			C264.9,312.4,265.7,313,265.7,313.7z"/>
		<path style="opacity:0.51;fill:#3E2716;" d="M269,356.4c0,0,5.3-36,31.2-38.9l-1.6,36.9L269,356.4z"/>
		<g>
			<rect x="269.9" y="327.3" style="fill:#77838B;" width="6.6" height="1.2"/>
			<rect x="269.9" y="331.1" style="fill:#77838B;" width="6.6" height="1.2"/>
			<rect x="269.9" y="334.9" style="fill:#77838B;" width="6.6" height="1.2"/>
			<rect x="269.9" y="338.6" style="fill:#77838B;" width="6.6" height="1.2"/>
			<rect x="269.9" y="342.4" style="fill:#77838B;" width="6.6" height="1.2"/>
			<rect x="269.9" y="346.2" style="fill:#77838B;" width="6.6" height="1.2"/>
		</g>
		<g>
			<rect x="278.9" y="327.3" style="fill:#77838B;" width="6.6" height="1.2"/>
			<rect x="278.9" y="331.1" style="fill:#77838B;" width="6.6" height="1.2"/>
			<rect x="278.9" y="334.9" style="fill:#77838B;" width="6.6" height="1.2"/>
			<rect x="278.9" y="338.6" style="fill:#77838B;" width="6.6" height="1.2"/>
			<rect x="278.9" y="342.4" style="fill:#77838B;" width="6.6" height="1.2"/>
			<rect x="278.9" y="346.2" style="fill:#77838B;" width="6.6" height="1.2"/>
		</g>
		<g>
			<rect x="287.8" y="327.3" style="fill:#77838B;" width="6.6" height="1.2"/>
			<rect x="287.8" y="331.1" style="fill:#77838B;" width="6.6" height="1.2"/>
			<rect x="287.8" y="334.9" style="fill:#77838B;" width="6.6" height="1.2"/>
			<rect x="287.8" y="338.6" style="fill:#77838B;" width="6.6" height="1.2"/>
			<rect x="287.8" y="342.4" style="fill:#77838B;" width="6.6" height="1.2"/>
			<rect x="287.8" y="346.2" style="fill:#77838B;" width="6.6" height="1.2"/>
		</g>
		<polygon style="fill:#FFFFFF;" points="271.9,311.1 296,311.8 296.8,314.7 271.2,314.2 		"/>
	</g>
	<path style="fill:none;stroke:#3E2716;stroke-width:3.662;stroke-miterlimit:10;" d="M98.2,138.9l-5.7,5.4c0,0,7.9,188.4,15,199.3
		c7.1,10.9,47.5,12.7,47.5,12.7s73.8-1.2,71.9,4.8c-1.9,6.1-131.1-3.6-131.1-3.6l134.6-1.2v-5.8l13.4,0.7"/>
	<path style="opacity:0.51;fill:#3E2716;" d="M167.4,145.3l-12.4,9.1l9.5,9C164.5,163.4,174.5,152.3,167.4,145.3z"/>
	<polygon style="opacity:0.51;fill:#3E2716;" points="191,193.8 227.9,190.4 228.8,198.5 182.9,201.9 183.7,197.1 	"/>
	<polygon style="fill:#FFFFFF;" points="136.1,140.6 127.1,146.3 141.8,170 148.9,163.9 	"/>
	<polygon style="fill:#8DD3D3;" points="97.1,45.7 101.4,45.8 102.4,48.9 	"/>
	<path style="fill:#8DD3D3;" d="M110.4,33.2c0,0,1.3,6.4-1,5.7C107,38.3,110.4,33.2,110.4,33.2z"/>
	<path style="fill:none;stroke:#3E2716;stroke-width:3.662;stroke-miterlimit:10;" d="M217.9,355.7c0,0,22.5,7.6,33.8,6.1l4.5,0.3
		l1.9-10.3l4.8-0.5"/>
	<ellipse style="fill:none;stroke:#3E2716;stroke-width:3.662;stroke-miterlimit:10;" cx="162.7" cy="362.7" rx="39.3" ry="4"/>
	<polygon style="opacity:0.51;fill:#3E2716;" points="173.4,288.5 184.3,290.3 175.8,330.7 169.2,329.5 	"/>
	<polygon style="opacity:0.51;fill:#3E2716;" points="224.9,286.7 215,293.2 218.8,327.7 226.3,327.7 	"/>
	<polygon style="fill:#88A5A1;" points="265.6,108.7 259.8,150.9 261.7,151 266.9,109.2 	"/>
	<g>
		<path style="fill:#FCE046;" d="M118.2,44.1L118.2,44.1c-0.5,0-0.9-0.4-0.9-0.9v-4.3c0-0.5,0.4-0.9,0.9-0.9l0,0
			c0.5,0,0.9,0.4,0.9,0.9v4.3C119,43.7,118.6,44.1,118.2,44.1z"/>
		<path style="fill:#FCE046;" d="M115.1,41L115.1,41c0-0.5,0.4-0.9,0.9-0.9h4.3c0.5,0,0.9,0.4,0.9,0.9l0,0c0,0.5-0.4,0.9-0.9,0.9
			H116C115.5,41.9,115.1,41.5,115.1,41z"/>
	</g>
	<path style="fill:#FCE046;" d="M102.4,59L102.4,59c-0.5,0-0.9-0.4-0.9-0.9v-4.3c0-0.5,0.4-0.9,0.9-0.9l0,0c0.5,0,0.9,0.4,0.9,0.9
		v4.3C103.3,58.6,102.9,59,102.4,59z"/>
	<path style="fill:#FCE046;" d="M116.1,55.9L116.1,55.9c0.1-0.5,0.5-0.8,1-0.8l4.2,0.6c0.5,0.1,0.8,0.5,0.8,1l0,0
		c-0.1,0.5-0.5,0.8-1,0.8l-4.2-0.6C116.3,56.9,116,56.4,116.1,55.9z"/>
	<path style="fill:#FCE046;" d="M108.3,63.3L108.3,63.3c0.5,0.2,0.7,0.7,0.5,1.2l-1.6,4c-0.2,0.5-0.7,0.7-1.1,0.5l0,0
		c-0.5-0.2-0.7-0.7-0.5-1.2l1.6-4C107.3,63.4,107.8,63.1,108.3,63.3z"/>
	<path style="opacity:0.51;fill:#3E2716;" d="M217,111.5l-14.4,14.4l-18.7-0.5l14.4,13.7c0,0,29.7-14,29.2-24.5L217,111.5z"/>
	<polygon style="opacity:0.51;fill:#3E2716;" points="195,141.9 196.6,183 204,183 202.4,141.3 	"/>
	<polygon style="opacity:0.51;fill:#3E2716;" points="179,218.8 214.7,211.8 215.2,218.8 181.7,223.6 	"/>
	<polygon style="opacity:0.51;fill:#3E2716;" points="173.2,207.5 168.4,236.4 174.8,236.4 180.1,209.7 	"/>
	<polygon style="opacity:0.51;fill:#3E2716;" points="232.8,116.2 226.4,123.7 233.3,130.1 239.7,124.8 	"/>
	<polygon style="fill:#FFFFFF;" points="216.3,216.7 219,234.3 214.2,235.4 211,215.6 	"/>
	<polygon style="fill:#FFFFFF;" points="196.6,183 221.6,179.2 221.6,186.2 196.1,189.4 	"/>
	<polygon style="fill:#AEAED0;" points="161.9,47.4 158.8,97.9 165,95.3 166.6,49 	"/>
	<polygon style="fill:#FFFFFF;" points="161.9,47.4 161.2,72.3 165.6,71.4 166.6,46 	"/>
	<polygon style="fill:#FFFFFF;" points="160.9,81 168.6,78 167.2,100.6 159.9,100.2 	"/>
	<polygon style="fill:#FFFFFF;" points="175.3,120.5 156.9,122.4 160.2,133.6 180,130.2 	"/>
	<polygon style="fill:#FFFFFF;" points="251.5,136.6 252.5,146.7 255.5,149.1 255.5,137.9 	"/>
	<polygon style="fill:#FFFFFF;" points="252.1,150.7 249.1,154.1 249.1,162.8 252.2,162.8 252.2,180.5 256.5,180.5 256.5,158.4 
		251.6,158.4 256.2,151.4 	"/>
</g>
<g>
	<g>
		<polygon style="fill:#ED1C24;" points="397.9,78.9 402.9,78.6 402.1,85.1 398.6,85.9 398.9,91.4 403.6,92.5 407.2,90.1 
			405.7,86.5 410.5,89.7 404.7,96.1 396.4,96.5 392.1,85.9 396.9,82.8 		"/>
		<polygon style="fill:#445769;" points="400.1,56.3 400.8,50.1 398.9,50 397.9,57.3 		"/>
		<polygon style="fill:#667B93;" points="400.5,62.9 397.9,57.3 400.1,56.3 402.9,63.4 		"/>
		<path style="fill:#7182A1;" d="M400.1,55l6.5,1.1l1.5-15l-6.4-1.2L400.1,55z M402.6,52.3l0.6-10.2l3.6,0.7
			c-0.1,0.1-1.2,9.8-1.2,9.8L402.6,52.3z"/>
		<path style="fill:#7182A1;" d="M396.9,73.1l6.5,1.1l1.5-15l-6.4-1.2L396.9,73.1z M399.4,70.5l0.6-10.2l3.6,0.7
			c-0.1,0.1-1.2,9.8-1.2,9.8L399.4,70.5z"/>
		<polygon style="fill:#93A6C1;" points="404.4,51.2 402.9,63.4 400.5,62.9 402.8,50.8 		"/>
		<polygon style="fill:#93A6C1;" points="401.9,69.8 401.2,82.6 398.7,82.4 399.6,69.6 		"/>
	</g>
	<path style="fill:#7182A1;" d="M427.5,98.7l-7.9,1l2.1,11.4l7.2,0.7L427.5,98.7z M421.6,101.8l5.1-1l1,7.6l-4.8,0.7L421.6,101.8z"
		/>
	<path style="fill:#7182A1;" d="M427.3,81.5l-6.1,0.6L418,95.9l9.4,1.5L427.3,81.5z M424.9,93.9l-5-0.6l2.1-9.9l4,0.1L424.9,93.9z"
		/>
	<polygon style="fill:#445769;" points="424.6,58.8 423.9,52.6 425.9,52.5 426.8,59.8 	"/>
	<polygon style="fill:#667B93;" points="424.2,65.4 426.8,59.8 424.6,58.8 421.9,65.8 	"/>
	<g>
		<rect x="399.7" y="39.1" style="fill:#576584;" width="19.4" height="7.7"/>
		<rect x="410.7" y="33.5" style="fill:#576584;" width="5.6" height="19.8"/>
		<rect x="401.9" y="33.5" style="fill:#576584;" width="5.6" height="19.8"/>
		<rect x="403.9" y="29.8" style="fill:#7182A1;" width="10.6" height="28.5"/>
	</g>
	<path style="fill:#7182A1;" d="M423,42.3l-6.4,1.2l1.5,15l6.5-1.1L423,42.3z M419.2,55.1c0,0-1.1-9.6-1.2-9.8l3.6-0.7l0.6,10.2
		L419.2,55.1z"/>
	<path style="fill:#7182A1;" d="M426.1,60.5l-6.4,1.2l1.5,15l6.5-1.1L426.1,60.5z M422.4,73.3c0,0-1.1-9.6-1.2-9.8l3.6-0.7l0.6,10.2
		L422.4,73.3z"/>
	<polygon style="fill:#93A6C1;" points="420.3,53.7 421.9,65.8 424.2,65.4 422,53.3 	"/>
	<polygon style="fill:#93A6C1;" points="422.8,72.3 423.5,85.1 426,84.8 425.2,72 	"/>
	<polygon style="fill:#93A6C1;" points="421.9,90.9 422.5,102.9 425.5,102 424.2,91.3 	"/>
	<path style="fill:#7182A1;" d="M420.8,128.7l6.1-0.7l2.8-13.9l-9.5-1.3L420.8,128.7z M422.8,116.2l5,0.4l-1.8,10l-4,0L422.8,116.2z
		"/>
	<path style="fill:#7182A1;" d="M422.5,149.7l6.3-1.4l-1.9-15l-6.5,1.3L422.5,149.7z M425.9,136.8c0,0,1.4,9.6,1.5,9.7l-3.6,0.8
		l-0.8-10.2L425.9,136.8z"/>
	<polygon style="fill:#93A6C1;" points="425.5,137.8 424.4,125 422,125.4 423.2,138.1 	"/>
	<polygon style="fill:#93A6C1;" points="425.9,119.2 424.9,107.2 422,108.1 423.6,118.8 	"/>
</g>
<g>
	<g>
		<g>
			<path style="fill:#878561;" d="M376.5,345.9l1.2,0.1l-0.9,1.8l-0.9,2.4l-2.7,1.2c0,0,1.8,3.2-3.3,2.4l0.1-3.3L376.5,345.9z"/>
			<path style="fill:#B6B588;" d="M374.3,345.6l2.2,0.3c-0.4,0.6-0.5,1.8-0.5,1.8c2.4,1.1,0,2.5,0,2.5l-3.9,0.6c0,0.1,0,0.2,0,0.4
				c-0.1,0-0.2,0.1-0.3,0.1c-0.8,0.5-0.2,1.1,0.5,1.6c0.1,0.3,0.1,0.6,0.1,0.6c-1.7,0.8-2.5,0.3-2.5,0.3l0.1-3.3L374.3,345.6z"/>
		</g>
		<path style="fill:#262221;" d="M382.6,340.6c0,0-3.8-0.9-6.1-1c0,0-3.3,4.7-2.4,6.2c0,0,2.1,0.8,3.7,0.5c0,0,2.5-4.5,3.5-5.2
			l0.7,0.1L382.6,340.6z"/>
		<path style="fill:#FFFFFF;" d="M376.4,340.7l1.6,0.2c0,0-1.3,5.3-2.5,5C375.5,345.9,375.1,342.4,376.4,340.7z"/>
		<polygon style="opacity:0.42;fill:#FFFFFF;" points="374.2,346.9 372.7,349.9 370.1,350.5 		"/>
		<g>
			<polygon style="fill:#A9A977;" points="382,347 382.9,347.1 379.5,352.3 375,354.6 374,354.5 			"/>
			<path style="fill:#DADBA7;" d="M382,347l-2.1-0.4c-0.4,0.6-2,1.5-2,1.5c-3.3,0.1-3.4,1.9-3.4,1.9l2.1,1.7
				c-0.1,0.1-0.3,0.1-0.5,0.3c0,0,0.1,0.1,0,0.2c-0.2,0.6-1.4,0.9-2.6,1c-0.5,0.2-0.9,0.4-0.9,0.4c0.1,1.2,1.5,1,1.5,1l4.5-2.6
				L382,347z"/>
			<path style="fill:#262221;" d="M383.9,340.9c0,0,4.2,0.5,6.1,1.2c0,0-4.1,4.6-6.9,5.4c0,0-2.8,0-3.6-0.8c0,0,4.4-4.2,4.5-5
				l-0.7-0.1L383.9,340.9z"/>
			<path style="fill:#FFFFFF;" d="M389,342.7l-2.4-0.3l-4.4,4.8C382.1,347.2,383.8,348.1,389,342.7z"/>
			<path style="fill:#A8AAAD;" d="M376.7,349.5c-0.2,0.2-0.7,0.3-1.1,0.2c-0.5-0.1-0.7-0.3-0.5-0.5c0.2-0.2,0.7-0.3,1.1-0.2
				C376.6,349.1,376.8,349.3,376.7,349.5z"/>
			<polygon style="opacity:0.42;fill:#FFFFFF;" points="381,348.6 375.9,350.2 376.5,351.7 379.9,350.2 			"/>
		</g>
	</g>
	<path style="fill:#262221;" d="M381,336c-0.5-1.2-1.5-2.6-4.2-3.1c-1.2-0.2-1.8,0.7-0.5,0.9c2.4,0.4,2.8,2.1,3,3.1
		c0.3,1.4-0.5,2.6-0.7,4c-0.1,0.6,1.9,0.6,2,0c0.1-1,0.8-1.9,0.8-2.9C381.4,337.4,381.3,336.7,381,336z"/>
	<path style="fill:#262221;" d="M391.5,327.8c-1.1-1-2.8-2-5.3-2.2c-1.3-0.1-1.3,0.9,0,1c1.6,0.1,2.9,1,3.5,1.7
		c0.9,0.9,0.7,1.6-0.4,2.4c-0.7,0.5,1.1,1,1.7,0.5C392.7,330,392.8,329,391.5,327.8z"/>
	<g>
		<g>
			<path style="fill:#878561;" d="M378.4,323.2l-0.8,0.5l-2.8-1.2l-4-1.5l-0.9-1.7c0,0-6.7-0.7-2.9-2.5l6.1,1.6L378.4,323.2z"/>
			<path style="fill:#B6B588;" d="M380,322.5l-1.7,0.8c-0.8-0.4-3-1.1-3-1.1c-3.1,0.5-4.7-1.2-4.7-1.2l0.6-1.9
				c-0.2,0-0.4-0.1-0.7-0.1c0,0,0-0.1-0.1-0.2c-0.7-0.6-2-0.6-3.2-0.5c-0.6-0.1-1.1-0.2-1.1-0.2c-0.8-1.1,0.6-1.2,0.6-1.2l6.1,1.6
				L380,322.5z"/>
		</g>
		<path style="fill:#262221;" d="M385.4,328.3c0,0,3.5-1.2,4.7-2.1c0,0-7.3-3.6-10.5-3.9c0,0-2.6,0.5-2.7,1.3c0,0,7.2,3.2,7.9,3.9
			l-0.5,0.3L385.4,328.3z"/>
		<path style="fill:#FFFFFF;" d="M388.2,325.7l-1.1,0.6c0,0-9.2-3-8.1-3.4C378.9,322.9,385.6,324.3,388.2,325.7z"/>
		<polygon style="opacity:0.42;fill:#FFFFFF;" points="377.6,321.9 372.8,319.8 373,318.4 		"/>
		<g>
			<polygon style="fill:#A9A977;" points="373.8,325 373.2,325.4 365,321.5 362.9,318.5 363.5,318.2 			"/>
			<path style="fill:#DADBA7;" d="M373.8,325l1.8-0.7c-0.8-0.4-1.9-1.5-1.9-1.5c1.4-1.4-1.9-2.3-1.9-2.3l-4.1,0.1
				c-0.1-0.1-0.1-0.2-0.2-0.3c-0.1,0-0.2,0-0.3-0.1c-1.1-0.4-1.1-1-0.7-1.6c-0.2-0.3-0.3-0.5-0.3-0.5c-2.2-0.5-2.6,0.2-2.6,0.2
				l2.7,3.1L373.8,325z"/>
			<path style="fill:#262221;" d="M384.3,328.7c0,0-2.9,1.5-5.1,2c0,0-6.5-3.9-6.8-5.5c0,0,1.4-1.2,3.2-1.1c0,0,5.7,3.8,7.1,4.2
				l0.6-0.2L384.3,328.7z"/>
			<path style="fill:#FFFFFF;" d="M378.5,330l1.7-0.9l-6.9-4.1C373.3,325,370.8,325.3,378.5,330z"/>
			<path style="fill:#A8AAAD;" d="M371.6,321.6c-0.3-0.2-0.3-0.4,0.1-0.6c0.4-0.2,0.9-0.1,1.2,0c0.3,0.2,0.3,0.4-0.1,0.6
				C372.5,321.8,371.9,321.8,371.6,321.6z"/>
			<polygon style="opacity:0.42;fill:#FFFFFF;" points="371.3,323.9 370.7,321 367.7,320.5 368.9,322.7 			"/>
		</g>
	</g>
	<g>
		<path style="fill:#262221;" d="M421.2,330.1c-1.6-1.1-5-1.7-7.6-2.1c-6-1-12.1-1-17.8-0.3c-6,0.8-11.2,2.3-16.1,3.8
			c-1.4,0.4,0.5,1.4,1.9,1c7.6-2.3,16.3-4.8,27-3.9c2.9,0.2,5.8,0.7,8.3,1.4c0.8,0.2,1.8,0.5,2.1,0.9c0.3,0.5-0.6,1.1-1.1,1.5
			c-2.8,1.8-7.6,2.3-12.9,2c-3.4-0.2-6.7-0.6-10-1c-3.5-0.4-7-0.7-10.6-1.1c-1.8-0.2-1.9,1-0.1,1.2c3.7,0.4,7.4,0.7,11.1,1.1
			c3.3,0.3,6.6,0.7,10,0.9c5.9,0.4,11.5-0.3,14.8-2.3C421.5,332.3,422.8,331.2,421.2,330.1z"/>
		<path style="fill:#262221;" d="M417.8,330.7c0.5-1.7-3.5-1.9-6.1-1.9c-6.7-0.1-13.5,0.3-19.8,1.3c-0.6,0.1-1.2,0.2-1.8,0.3
			c-0.5,0-1,0-1.5,0c-0.9,0-1.4,0.3-1.5,0.6c-1.7,0.3-3.3,0.6-5,1c-1.6,0.3-3.2,0.7-4.7,1.1c-0.2,0-0.4,0-0.7,0
			c-8.9,1-18.9,3.3-19.9,8.2c-0.1,0.5,0.8,0.8,1.7,0.8c5.7-0.2,9.3-2.5,12.4-4.5c1.8-1.1,3.8-2.1,6.3-2.8c2.5-0.8,5.3-1.3,8.1-1.8
			c1.8-0.3,3.5-0.7,5.3-1c6.8,0.2,13.7,0.4,20.5,0.6C413.8,332.4,417.4,332.2,417.8,330.7z M360.1,340.3c1.3-2.6,5.9-4.2,11-5.1
			c-1.7,0.9-3.2,1.9-4.8,2.8C364.6,339,362.6,339.9,360.1,340.3z M411.5,331c-4.2-0.1-8.5-0.2-12.7-0.4c1.3-0.1,2.7-0.3,4.1-0.3
			c3-0.2,6-0.2,9-0.2c0.6,0,3.1-0.1,3,0.4C414.8,331.1,412.3,331,411.5,331z"/>
		<path style="fill:#EE2B37;" d="M420.5,329.7c-0.8-1.1-3.1-1.5-5.3-1.8c-9.7-1.1-19.9,0.2-28.4,2.4c-1.6,0.4-3.2,0.9-4.7,1.4
			c-0.6,0-1.2,0.1-1.8,0.1c-4.8,0.3-9.5,1-13.8,2.1c-2.4,0.6-4.7,1.3-6.9,2.1c-2.3,0.9-4.7,1.9-5.5,3.3c-0.7,1.1-0.3,2.2,1.4,3.1
			c1,0.5,2.4,0.9,3.8,0.9c0.5,0.3,1.7,0.4,2.4,0c6.5-3.6,13.1-7.4,21.3-10.2c1.8-0.1,3.7-0.1,5.5,0c5.2,0.1,10.4,0.6,15.7,0.7
			c4.6,0.1,10.5,0.1,14.3-1.4C420.2,331.7,421.3,330.7,420.5,329.7z M360.8,341.7c-0.2,0-0.3,0-0.5,0.1c-1.6,0.3-3.2-0.5-3.5-1.2
			c-0.5-1.3,2.1-2.5,3.9-3.2c3.8-1.5,8.2-2.6,12.9-3.4c1.2-0.2,2.5-0.4,3.7-0.5C371.2,335.9,365.9,338.8,360.8,341.7z M417.4,331
			c-1.4,0.9-4.1,1.1-6.3,1.3c-5.1,0.4-10.3,0-15.4-0.3c-2.7-0.1-5.3-0.3-8-0.3c7.9-2.2,17.2-3.4,26.3-2.5
			C415.7,329.3,419.1,329.9,417.4,331z"/>
		<path style="fill:#262221;" d="M381.8,332.8c1.2-0.4,0.7-1.4-1-1.3c-5.9,0.5-11.9,1-17.4,2.3c-4.7,1.1-9.4,2.7-11.6,5
			c-2,2-1.3,4.6,3.5,5.5c5.4,1,10.4-0.7,13.9-2.4c5-2.5,9-5.3,13-8.1C382.6,333.4,382.3,333,381.8,332.8z M370.4,339.1
			c-2.8,1.6-6.6,4-11.4,4.1c-2.1,0.1-4.3-0.3-5.1-1.3c-0.7-0.8-0.2-1.7,0.5-2.5c1.8-2,6-3.4,10-4.3c4.8-1.1,10-1.6,15.2-2.1
			C376.7,335.1,373.8,337.2,370.4,339.1z"/>
		<path style="opacity:0.1;fill:#1D1D1B;" d="M411.6,328.3c-7.3-3-18.6-0.1-25.3,2c-7.6,2.3-14.1,5.6-18.6,9.3
			c-0.9,0.8,1.4,1.6,2.3,0.8c4.1-3.4,9.8-6.4,16.6-8.6c3.4-1.1,7-2,10.9-2.7c4-0.7,8.8-1.1,12.3,0.4
			C411.2,330,413,328.9,411.6,328.3z"/>
		<path style="opacity:0.23;fill:#1D1D1B;" d="M417,331c-2.9,1.8-7.8,2.4-12.4,2.3c-5.7-0.1-11.2-1.1-16.7-1.6
			c-9.4-0.9-19,0.2-26.6,3c-4.2,1.5-7.5,3.4-9.8,5.6c-0.8,0.8,1.9,1.3,2.7,0.5c4-3.9,11.9-6.8,20.8-7.7c4.9-0.5,9.7-0.4,14.5,0.2
			c5.4,0.6,10.7,1.5,16.4,1.4c5.1-0.1,10.3-0.8,13.5-2.8C420.5,331.1,418.2,330.3,417,331z"/>
		<path style="fill:#EE2B37;" d="M382.7,333.6c0.1-0.9-2.8-1-2.9-0.1c-0.3,4.4-4,8.7-10.3,11.9c-1.3,0.7,1.1,1.5,2.3,0.8
			C378.5,342.8,382.4,338.3,382.7,333.6z"/>
	</g>
	<g>
		<g>
			<path style="fill:#878561;" d="M404.3,321.9l1.1,0.3l1.9-1.6l2.9-2l-0.2-1.7c0,0,5.9-1.7,1.1-2.8l-4.8,2.4L404.3,321.9z"/>
			<path style="fill:#B6B588;" d="M402.2,321.4l2.1,0.5c0.5-0.5,2.2-1.5,2.2-1.5c3.3,0,3.7-1.8,3.7-1.8l-1.9-1.7
				c0.1-0.1,0.3-0.1,0.5-0.2c0,0,0-0.1,0-0.2c0.3-0.6,1.5-0.9,2.7-1c0.5-0.2,0.9-0.4,0.9-0.4c0-1.2-1.4-1-1.4-1l-4.8,2.4
				L402.2,321.4z"/>
		</g>
		<path style="fill:#EE2B37;" d="M400.9,327.7c0,0-4-0.6-5.8-1.3c0,0,4.5-4.5,7.4-5.3c0,0,2.8,0.1,3.5,0.9c0,0-4.7,4.1-5,4.9
			l0.7,0.2L400.9,327.7z"/>
		<path style="fill:#FFFFFF;" d="M396.6,325.7l1.4,0.4c0,0,6.8-4.2,5.5-4.4C403.5,321.6,398.2,323.9,396.6,325.7z"/>
		<polygon style="opacity:0.42;fill:#FFFFFF;" points="404.1,320.4 407.3,317.8 406.3,316.5 		"/>
		<g>
			<polygon style="fill:#A9A977;" points="409.8,322.9 410.7,323.1 415.9,318.2 415.9,315.1 415.1,314.9 			"/>
			<path style="fill:#DADBA7;" d="M409.8,322.9l-2.2-0.4c0.5-0.5,0.8-1.7,0.8-1.7c-2.3-1.1,0.3-2.5,0.3-2.5l4-0.5c0-0.1,0-0.2,0-0.4
				c0.1,0,0.2,0,0.3-0.1c0.8-0.5,0.4-1.1-0.3-1.6c0-0.3,0-0.6,0-0.6c1.8-0.8,2.5-0.2,2.5-0.2l-0.5,3.3L409.8,322.9z"/>
			<path style="fill:#EE2B37;" d="M402.3,327.9c0,0,3.8,1,6.2,1.1c0,0,3.7-4.6,2.9-6.2c0,0-2.1-0.9-3.8-0.6c0,0-2.9,4.4-4,5.1
				l-0.7-0.1L402.3,327.9z"/>
			<path style="fill:#FFFFFF;" d="M408.6,328.3l-2.2-0.6l3.8-4.9C410.3,322.8,412.8,322.7,408.6,328.3z"/>
			<path style="fill:#A8AAAD;" d="M409.7,319.3c0.2-0.2,0-0.5-0.5-0.5c-0.4-0.1-1,0-1.1,0.2c-0.2,0.2,0,0.5,0.5,0.5
				C409,319.6,409.5,319.5,409.7,319.3z"/>
			<polygon style="opacity:0.42;fill:#FFFFFF;" points="411.4,321.4 410.2,318.6 412.7,317.7 413,319.9 			"/>
		</g>
	</g>
	<g>
		<g>
			<path style="fill:#878561;" d="M356.8,344.8l0.6,0.5l-3.5,0.7l-4.5,1.1l-3.6-0.3c0,0-4.2,2.6-6,0.2l5.6-2L356.8,344.8z"/>
			<path style="fill:#B6B588;" d="M356,343.8l0.8,1c-1.2,0.2-3.3,0.9-3.3,0.9c-0.3,1.5-4.2,1.5-4.2,1.5l-3.4-1.1
				c-0.1,0.1-0.3,0.1-0.6,0.2c-0.1,0-0.2,0-0.3,0c-1.4,0-2,0.6-2.3,1.2c-0.5,0.2-0.9,0.4-0.9,0.4c-2.4-0.1-2-0.8-2-0.8l5.6-2
				L356,343.8z"/>
		</g>
		<path style="fill:#EE2B37;" d="M369.4,343.9c0,0-0.8-2-2.1-2.9c0,0-9.9,1.6-11.9,2.9c0,0-0.1,1.3,1.4,1.7c0,0,9-1.8,10.8-1.8
			l0.3,0.3L369.4,343.9z"/>
		<path style="fill:#FFFFFF;" d="M365.6,341.6l0.6,0.7c0,0-9.6,2.7-9.9,2.1C356.3,344.4,361.8,342.2,365.6,341.6z"/>
		<polygon style="opacity:0.42;fill:#FFFFFF;" points="353.8,344.6 347.9,345.8 345.3,345.2 		"/>
		<g>
			<polygon style="fill:#A9A977;" points="358.3,347.5 358.7,348 347.9,349.9 341.3,349.6 340.9,349.1 			"/>
			<path style="fill:#DADBA7;" d="M358.3,347.5l-0.6-1.1c-1.2,0.2-3.7,0.2-3.7,0.2c-2.1-1.2-5.3-0.1-5.3-0.1l-1.6,1.8
				c-0.2,0-0.4,0-0.7,0c0,0-0.1,0.1-0.2,0.1c-1.2,0.3-2.4,0-3.3-0.3c-0.7,0-1.2-0.1-1.2-0.1c-1.8,0.8-0.8,1.2-0.8,1.2l7,0.1
				L358.3,347.5z"/>
			<path style="fill:#EE2B37;" d="M369.7,344.6c0,0,1.7,1.9,1.6,3c0,0-10.1,1.2-13.3,0.7c0,0-1.7-1.1-0.8-1.8c0,0,9.6-0.9,11.1-1.3
				l-0.2-0.4L369.7,344.6z"/>
			<path style="fill:#FFFFFF;" d="M369.7,347.6l-1-1.1l-10.7,1.3C358,347.8,357.5,348.9,369.7,347.6z"/>
			<path style="fill:#A8AAAD;" d="M350.9,347.1c-0.5,0.1-0.9-0.1-1.1-0.3c-0.1-0.2,0.1-0.4,0.6-0.5s0.9,0.1,1.1,0.3
				S351.3,347,350.9,347.1z"/>
			<polygon style="opacity:0.42;fill:#FFFFFF;" points="355.1,348.1 349.3,347.2 347.2,348.3 351.8,348.7 			"/>
		</g>
	</g>
	<path style="fill:#EE2B37;" d="M404,328c-1.9,1.5-4.5,2.8-8.9,3.4c-3.6,0.5-7.6,0.4-11.4,0.5c-1.7,0-1.8,1,0,1
		c4.4-0.1,9.1,0,13.2-0.7c4.6-0.7,7.5-2.1,9.5-3.7C407.1,327.9,404.7,327.4,404,328z"/>
	<path style="fill:#EE2B37;" d="M387.4,333.9c-1.4-1.8-4.7-3.8-9.1-3.1c-1.2,0.2-0.7,1.1,0.5,0.9c3.3-0.5,5.7,1.2,6.7,2.5
		C385.9,334.8,387.9,334.5,387.4,333.9z"/>
	<path style="fill:#262221;" d="M385.5,334.3c-0.9-0.3-1.2-0.9-2-1.3c-0.7-0.3-1.5-0.6-2.4-0.8c-1.5-0.4-3.9-1.1-5.7-0.7
		c-1.2,0.2-0.7,1.2,0.5,0.9c1.5-0.3,3.7,0.5,4.9,0.9c1.5,0.5,1.9,1.3,3.3,1.8C385.1,335.4,386.6,334.7,385.5,334.3z"/>
	<path style="fill:#EE2B37;" d="M383.5,335.8c-2.5-2.2-7.3-3.2-11.9-4.2c-1.2-0.2-2.2,0.6-1,0.8c4.3,0.9,8.9,1.8,11.2,3.9
		C382.3,336.9,384.1,336.4,383.5,335.8z"/>
	<path style="opacity:0.23;fill:#1D1D1B;" d="M386.7,333c-1.3-0.9-2.8-1.6-4.6-2.2c-1.1-0.3-2.1,0.5-1,0.8c1.6,0.5,2.8,1.1,3.9,1.8
		C385.7,334,387.5,333.5,386.7,333z"/>
	<path style="opacity:0.23;fill:#1D1D1B;" d="M393.5,331.4c-2.1,0.4-4.4,0.5-6.6,0.5c-1.3,0-1.3,1,0,1c2.4,0,4.9-0.1,7.2-0.5
		C395.2,332.1,394.7,331.2,393.5,331.4z"/>
	<path style="opacity:0.23;fill:#1D1D1B;" d="M381,335.3c0.1,2.1-1.6,4-3.4,5.9c-1,1.1-2,2.7-4.4,3.2c-1.2,0.3-0.2,1.1,1,0.8
		c2.9-0.6,4-2.3,5.2-3.6c2-2,3.7-4.1,3.6-6.3C383,334.7,381,334.7,381,335.3z"/>
	<path style="opacity:0.23;fill:#1D1D1B;" d="M372.2,333.6c-3.5,0.8-6.9,1.6-10.1,2.6c-1.1,0.3-0.1,1.2,1,0.8
		c3.2-1,6.7-1.8,10.1-2.6C374.4,334.1,373.3,333.3,372.2,333.6z"/>
	<path style="opacity:0.23;fill:#1D1D1B;" d="M403.8,329.1c-1.6,1.1-3.7,2.1-5.9,3c-1,0.4,0.4,1.1,1.4,0.7c2.4-0.9,4.6-2,6.2-3.2
		C406.3,329.1,404.5,328.6,403.8,329.1z"/>
</g>
<g style="opacity:0.22;">
	<g>
		
			<rect x="337.2" y="115.4" transform="matrix(1 -1.160341e-03 1.160341e-03 1 -0.1811 0.4615)" style="opacity:0.1;fill:#5E5E5E;" width="120.9" height="81.9"/>
		
			<rect x="339.6" y="136.3" transform="matrix(1 -1.161563e-03 1.161563e-03 1 -0.2056 0.4636)" style="opacity:0.1;fill:#5E5E5E;" width="118.8" height="81.9"/>
		<polygon style="fill:#D9D2C6;" points="333.7,160.7 333.7,160.7 333.8,201.4 393.9,201.3 452.5,202.3 452.5,160.6 452.4,120 
			393.9,120.1 333.7,120.1 333.7,120.1 		"/>
		
			<rect x="333.7" y="119.5" transform="matrix(1 -1.159608e-03 1.159608e-03 1 -0.1854 0.4546)" style="fill:#ECE8E2;" width="116.5" height="81.2"/>
		
			<rect x="333.7" y="119.5" transform="matrix(1 -1.162071e-03 1.162071e-03 1 -0.1622 0.4556)" style="opacity:5.000000e-02;fill:#231F20;" width="116.5" height="40.6"/>
		
			<rect x="392.7" y="119.5" transform="matrix(1 -1.159608e-03 1.159608e-03 1 -0.1854 0.4889)" style="opacity:5.000000e-02;fill:#231F20;" width="57.5" height="81.2"/>
		<path style="fill:#F7FAFC;" d="M336.2,194.2c0.1,0,0.2,0.1,0.2,0.2l0,0c0,0.1-0.1,0.2-0.2,0.2l-3.6,0c-0.1,0-0.2-0.1-0.2-0.2l0,0
			c0-0.1,0.1-0.2,0.2-0.2"/>
		<g>
			<g>
				<path style="fill:#A7A9AC;" d="M336.7,194.5c0-0.8,0.6-1.4,1.4-1.4c0.8,0,1.4,0.6,1.4,1.4c0,0.8-0.6,1.4-1.4,1.4
					C337.3,195.9,336.7,195.3,336.7,194.5z"/>
				<path style="fill:#6E6F71;" d="M338.1,193.1c-0.1,0-0.1,0-0.2,0c0.7,0.1,1.2,0.7,1.2,1.4c0,0.7-0.5,1.3-1.2,1.4
					c0.1,0,0.1,0,0.2,0c0.8,0,1.4-0.6,1.4-1.4C339.5,193.7,338.9,193.1,338.1,193.1z"/>
				<path style="fill:#414142;" d="M339.4,194.5c0,0.6-0.5,1.1-1.1,1.1c-0.6,0-1.1-0.5-1.1-1.1c0-0.6,0.5-1.1,1.1-1.1
					C338.9,193.4,339.4,193.9,339.4,194.5z"/>
			</g>
			<path style="fill:#E6E7E7;" d="M338.6,194.4c0,0.5-0.4,0.9-0.9,0.9l-4.7,0c-0.5,0-0.9-0.4-0.9-0.9l0,0c0-0.5,0.4-0.9,0.9-0.9
				l4.7,0C338.2,193.5,338.6,193.9,338.6,194.4L338.6,194.4z"/>
			<path style="opacity:0.4;fill:#231F20;" d="M338.3,194.8c0.1-0.1,0.1-0.1,0.1-0.2l0-0.3c0-0.1,0-0.2-0.1-0.2
				c-0.2,0.1-0.3,0.2-0.3,0.4C338,194.6,338.1,194.8,338.3,194.8z"/>
		</g>
		<g>
			<g>
				<path style="fill:#A7A9AC;" d="M336.7,185.7c0-0.8,0.6-1.4,1.4-1.4c0.8,0,1.4,0.6,1.4,1.4c0,0.8-0.6,1.4-1.4,1.4
					C337.3,187.1,336.7,186.5,336.7,185.7z"/>
				<path style="fill:#6E6F71;" d="M338.1,184.3c-0.1,0-0.1,0-0.2,0c0.7,0.1,1.2,0.7,1.2,1.4c0,0.7-0.5,1.3-1.2,1.4
					c0.1,0,0.1,0,0.2,0c0.8,0,1.4-0.6,1.4-1.4C339.5,184.9,338.9,184.3,338.1,184.3z"/>
				<path style="fill:#414142;" d="M339.4,185.7c0,0.6-0.5,1.1-1.1,1.1c-0.6,0-1.1-0.5-1.1-1.1c0-0.6,0.5-1.1,1.1-1.1
					C338.9,184.6,339.4,185.1,339.4,185.7z"/>
			</g>
			<path style="fill:#E6E7E7;" d="M338.6,185.6c0,0.5-0.4,0.9-0.9,0.9l-4.7,0c-0.5,0-0.9-0.4-0.9-0.9l0,0c0-0.5,0.4-0.9,0.9-0.9
				l4.7,0C338.2,184.7,338.6,185.1,338.6,185.6L338.6,185.6z"/>
			<path style="fill:#F7FAFC;" d="M337.8,185.6c0,0.2-0.1,0.3-0.3,0.3l-4.7,0c-0.2,0-0.3-0.1-0.3-0.3l0,0c0-0.2,0.1-0.3,0.3-0.3
				l4.7,0C337.6,185.3,337.8,185.5,337.8,185.6L337.8,185.6z"/>
			<path style="opacity:0.4;fill:#231F20;" d="M338.3,186c0.1-0.1,0.1-0.1,0.1-0.2l0-0.3c0-0.1,0-0.2-0.1-0.2
				c-0.2,0.1-0.3,0.2-0.3,0.4C338,185.8,338.1,186,338.3,186z"/>
		</g>
		<g>
			<g>
				<path style="fill:#A7A9AC;" d="M336.6,176.9c0-0.8,0.6-1.4,1.4-1.4c0.8,0,1.4,0.6,1.4,1.4c0,0.8-0.6,1.4-1.4,1.4
					C337.3,178.3,336.6,177.7,336.6,176.9z"/>
				<path style="fill:#6E6F71;" d="M338.1,175.5c-0.1,0-0.1,0-0.2,0c0.7,0.1,1.2,0.7,1.2,1.4s-0.5,1.3-1.2,1.4c0.1,0,0.1,0,0.2,0
					c0.8,0,1.4-0.6,1.4-1.4C339.5,176.1,338.9,175.5,338.1,175.5z"/>
				<path style="fill:#414142;" d="M339.4,176.9c0,0.6-0.5,1.1-1.1,1.1c-0.6,0-1.1-0.5-1.1-1.1c0-0.6,0.5-1.1,1.1-1.1
					C338.9,175.8,339.4,176.3,339.4,176.9z"/>
			</g>
			<path style="fill:#E6E7E7;" d="M338.5,176.8c0,0.5-0.4,0.9-0.9,0.9l-4.7,0c-0.5,0-0.9-0.4-0.9-0.9l0,0c0-0.5,0.4-0.9,0.9-0.9
				l4.7,0C338.1,175.9,338.5,176.3,338.5,176.8L338.5,176.8z"/>
			<path style="fill:#F7FAFC;" d="M337.8,176.8c0,0.2-0.1,0.3-0.3,0.3l-4.7,0c-0.2,0-0.3-0.1-0.3-0.3l0,0c0-0.2,0.1-0.3,0.3-0.3
				l4.7,0C337.6,176.5,337.8,176.7,337.8,176.8L337.8,176.8z"/>
			<path style="opacity:0.4;fill:#231F20;" d="M338.2,177.2c0.1-0.1,0.1-0.1,0.1-0.2l0-0.3c0-0.1,0-0.2-0.1-0.2
				c-0.2,0.1-0.3,0.2-0.3,0.4C338,177,338.1,177.2,338.2,177.2z"/>
		</g>
		<g>
			<g>
				<path style="fill:#A7A9AC;" d="M336.6,168.1c0-0.8,0.6-1.4,1.4-1.4c0.8,0,1.4,0.6,1.4,1.4c0,0.8-0.6,1.4-1.4,1.4
					C337.3,169.5,336.6,168.9,336.6,168.1z"/>
				<path style="fill:#6E6F71;" d="M338.1,166.7c-0.1,0-0.1,0-0.2,0c0.7,0.1,1.2,0.7,1.2,1.4c0,0.7-0.5,1.3-1.2,1.4
					c0.1,0,0.1,0,0.2,0c0.8,0,1.4-0.6,1.4-1.4C339.5,167.3,338.8,166.7,338.1,166.7z"/>
				<path style="fill:#414142;" d="M339.4,168.1c0,0.6-0.5,1.1-1.1,1.1c-0.6,0-1.1-0.5-1.1-1.1c0-0.6,0.5-1.1,1.1-1.1
					C338.9,167,339.4,167.5,339.4,168.1z"/>
			</g>
			<path style="fill:#E6E7E7;" d="M338.5,168c0,0.5-0.4,0.9-0.9,0.9l-4.7,0c-0.5,0-0.9-0.4-0.9-0.9l0,0c0-0.5,0.4-0.9,0.9-0.9l4.7,0
				C338.1,167.1,338.5,167.5,338.5,168L338.5,168z"/>
			<path style="fill:#F7FAFC;" d="M337.8,168c0,0.2-0.1,0.3-0.3,0.3l-4.7,0c-0.2,0-0.3-0.1-0.3-0.3l0,0c0-0.2,0.1-0.3,0.3-0.3l4.7,0
				C337.6,167.7,337.8,167.9,337.8,168L337.8,168z"/>
			<path style="opacity:0.4;fill:#231F20;" d="M338.2,168.4c0.1-0.1,0.1-0.1,0.1-0.2l0-0.3c0-0.1,0-0.2-0.1-0.2
				c-0.2,0.1-0.3,0.2-0.3,0.4C338,168.2,338.1,168.4,338.2,168.4z"/>
		</g>
		<g>
			<g>
				<path style="fill:#A7A9AC;" d="M336.6,159.3c0-0.8,0.6-1.4,1.4-1.4c0.8,0,1.4,0.6,1.4,1.4c0,0.8-0.6,1.4-1.4,1.4
					C337.3,160.7,336.6,160.1,336.6,159.3z"/>
				<path style="fill:#6E6F71;" d="M338.1,157.9c-0.1,0-0.1,0-0.2,0c0.7,0.1,1.2,0.7,1.2,1.4c0,0.7-0.5,1.3-1.2,1.4
					c0.1,0,0.1,0,0.2,0c0.8,0,1.4-0.6,1.4-1.4C339.5,158.5,338.8,157.9,338.1,157.9z"/>
				<path style="fill:#414142;" d="M339.4,159.3c0,0.6-0.5,1.1-1.1,1.1c-0.6,0-1.1-0.5-1.1-1.1c0-0.6,0.5-1.1,1.1-1.1
					C338.9,158.2,339.4,158.7,339.4,159.3z"/>
			</g>
			<path style="fill:#E6E7E7;" d="M338.5,159.2c0,0.5-0.4,0.9-0.9,0.9l-4.7,0c-0.5,0-0.9-0.4-0.9-0.9l0,0c0-0.5,0.4-0.9,0.9-0.9
				l4.7,0C338.1,158.3,338.5,158.7,338.5,159.2L338.5,159.2z"/>
			<path style="fill:#F7FAFC;" d="M337.7,159.2c0,0.2-0.1,0.3-0.3,0.3l-4.7,0c-0.2,0-0.3-0.1-0.3-0.3l0,0c0-0.2,0.1-0.3,0.3-0.3
				l4.7,0C337.6,158.9,337.7,159.1,337.7,159.2L337.7,159.2z"/>
			<path style="opacity:0.4;fill:#231F20;" d="M338.2,159.6c0.1-0.1,0.1-0.1,0.1-0.2l0-0.3c0-0.1,0-0.2-0.1-0.2
				c-0.2,0.1-0.3,0.2-0.3,0.4C338,159.4,338.1,159.5,338.2,159.6z"/>
		</g>
		<g>
			<g>
				<path style="fill:#A7A9AC;" d="M336.6,150.5c0-0.8,0.6-1.4,1.4-1.4c0.8,0,1.4,0.6,1.4,1.4c0,0.8-0.6,1.4-1.4,1.4
					C337.3,151.9,336.6,151.3,336.6,150.5z"/>
				<path style="fill:#6E6F71;" d="M338,149.1c-0.1,0-0.1,0-0.2,0c0.7,0.1,1.2,0.7,1.2,1.4c0,0.7-0.5,1.3-1.2,1.4c0.1,0,0.1,0,0.2,0
					c0.8,0,1.4-0.6,1.4-1.4C339.5,149.7,338.8,149.1,338,149.1z"/>
				<path style="fill:#414142;" d="M339.4,150.5c0,0.6-0.5,1.1-1.1,1.1c-0.6,0-1.1-0.5-1.1-1.1c0-0.6,0.5-1.1,1.1-1.1
					C338.9,149.4,339.4,149.9,339.4,150.5z"/>
			</g>
			<path style="fill:#E6E7E7;" d="M338.5,150.4c0,0.5-0.4,0.9-0.9,0.9l-4.7,0c-0.5,0-0.9-0.4-0.9-0.9l0,0c0-0.5,0.4-0.9,0.9-0.9
				l4.7,0C338.1,149.5,338.5,149.9,338.5,150.4L338.5,150.4z"/>
			<path style="fill:#F7FAFC;" d="M337.7,150.4c0,0.2-0.1,0.3-0.3,0.3l-4.7,0c-0.2,0-0.3-0.1-0.3-0.3l0,0c0-0.2,0.1-0.3,0.3-0.3
				l4.7,0C337.6,150.1,337.7,150.3,337.7,150.4L337.7,150.4z"/>
			<path style="opacity:0.4;fill:#231F20;" d="M338.2,150.8c0.1-0.1,0.1-0.1,0.1-0.2l0-0.3c0-0.1,0-0.2-0.1-0.2
				c-0.2,0.1-0.3,0.2-0.3,0.4C338,150.6,338.1,150.8,338.2,150.8z"/>
		</g>
		<g>
			<g>
				<path style="fill:#A7A9AC;" d="M336.6,141.7c0-0.8,0.6-1.4,1.4-1.4c0.8,0,1.4,0.6,1.4,1.4c0,0.8-0.6,1.4-1.4,1.4
					C337.2,143.1,336.6,142.5,336.6,141.7z"/>
				<path style="fill:#6E6F71;" d="M338,140.3c-0.1,0-0.1,0-0.2,0c0.7,0.1,1.2,0.7,1.2,1.4c0,0.7-0.5,1.3-1.2,1.4c0.1,0,0.1,0,0.2,0
					c0.8,0,1.4-0.6,1.4-1.4C339.5,140.9,338.8,140.3,338,140.3z"/>
				<path style="fill:#414142;" d="M339.3,141.7c0,0.6-0.5,1.1-1.1,1.1c-0.6,0-1.1-0.5-1.1-1.1c0-0.6,0.5-1.1,1.1-1.1
					C338.8,140.6,339.3,141.1,339.3,141.7z"/>
			</g>
			<path style="fill:#E6E7E7;" d="M338.5,141.6c0,0.5-0.4,0.9-0.9,0.9l-4.7,0c-0.5,0-0.9-0.4-0.9-0.9l0,0c0-0.5,0.4-0.9,0.9-0.9
				l4.7,0C338.1,140.7,338.5,141.1,338.5,141.6L338.5,141.6z"/>
			<path style="fill:#F7FAFC;" d="M337.7,141.6c0,0.2-0.1,0.3-0.3,0.3l-4.7,0c-0.2,0-0.3-0.1-0.3-0.3l0,0c0-0.2,0.1-0.3,0.3-0.3
				l4.7,0C337.6,141.3,337.7,141.5,337.7,141.6L337.7,141.6z"/>
			<path style="opacity:0.4;fill:#231F20;" d="M338.2,142c0.1-0.1,0.1-0.1,0.1-0.2l0-0.3c0-0.1,0-0.2-0.1-0.2
				c-0.2,0.1-0.3,0.2-0.3,0.4C337.9,141.8,338.1,141.9,338.2,142z"/>
		</g>
		<g>
			<g>
				<path style="fill:#A7A9AC;" d="M336.6,132.9c0-0.8,0.6-1.4,1.4-1.4c0.8,0,1.4,0.6,1.4,1.4c0,0.8-0.6,1.4-1.4,1.4
					C337.2,134.3,336.6,133.7,336.6,132.9z"/>
				<path style="fill:#6E6F71;" d="M338,131.5c-0.1,0-0.1,0-0.2,0c0.7,0.1,1.2,0.7,1.2,1.4c0,0.7-0.5,1.3-1.2,1.4c0.1,0,0.1,0,0.2,0
					c0.8,0,1.4-0.6,1.4-1.4C339.4,132.1,338.8,131.5,338,131.5z"/>
				<path style="fill:#414142;" d="M339.3,132.9c0,0.6-0.5,1.1-1.1,1.1c-0.6,0-1.1-0.5-1.1-1.1c0-0.6,0.5-1.1,1.1-1.1
					C338.8,131.8,339.3,132.3,339.3,132.9z"/>
			</g>
			<path style="fill:#E6E7E7;" d="M338.5,132.8c0,0.5-0.4,0.9-0.9,0.9l-4.7,0c-0.5,0-0.9-0.4-0.9-0.9l0,0c0-0.5,0.4-0.9,0.9-0.9
				l4.7,0C338.1,131.9,338.5,132.3,338.5,132.8L338.5,132.8z"/>
			<path style="fill:#F7FAFC;" d="M337.7,132.8c0,0.2-0.1,0.3-0.3,0.3l-4.7,0c-0.2,0-0.3-0.1-0.3-0.3l0,0c0-0.2,0.1-0.3,0.3-0.3
				l4.7,0C337.6,132.5,337.7,132.7,337.7,132.8L337.7,132.8z"/>
			<path style="opacity:0.4;fill:#231F20;" d="M338.2,133.2c0.1-0.1,0.1-0.1,0.1-0.2l0-0.3c0-0.1,0-0.2-0.1-0.2
				c-0.2,0.1-0.3,0.2-0.3,0.4C337.9,133,338,133.1,338.2,133.2z"/>
		</g>
		<g>
			<g>
				<path style="fill:#A7A9AC;" d="M336.6,124.1c0-0.8,0.6-1.4,1.4-1.4c0.8,0,1.4,0.6,1.4,1.4c0,0.8-0.6,1.4-1.4,1.4
					C337.2,125.5,336.6,124.9,336.6,124.1z"/>
				<path style="fill:#6E6F71;" d="M338,122.7c-0.1,0-0.1,0-0.2,0c0.7,0.1,1.2,0.7,1.2,1.4c0,0.7-0.5,1.3-1.2,1.4c0.1,0,0.1,0,0.2,0
					c0.8,0,1.4-0.6,1.4-1.4C339.4,123.3,338.8,122.7,338,122.7z"/>
				<path style="fill:#414142;" d="M339.3,124.1c0,0.6-0.5,1.1-1.1,1.1c-0.6,0-1.1-0.5-1.1-1.1c0-0.6,0.5-1.1,1.1-1.1
					C338.8,123,339.3,123.5,339.3,124.1z"/>
			</g>
			<path style="fill:#E6E7E7;" d="M338.5,124c0,0.5-0.4,0.9-0.9,0.9l-4.7,0c-0.5,0-0.9-0.4-0.9-0.9l0,0c0-0.5,0.4-0.9,0.9-0.9l4.7,0
				C338.1,123.1,338.5,123.5,338.5,124L338.5,124z"/>
			<path style="fill:#F7FAFC;" d="M337.7,124c0,0.2-0.1,0.3-0.3,0.3l-4.7,0c-0.2,0-0.3-0.1-0.3-0.3l0,0c0-0.2,0.1-0.3,0.3-0.3l4.7,0
				C337.6,123.7,337.7,123.9,337.7,124L337.7,124z"/>
			<path style="opacity:0.4;fill:#231F20;" d="M338.2,124.4c0.1-0.1,0.1-0.1,0.1-0.2l0-0.3c0-0.1,0-0.2-0.1-0.2
				c-0.2,0.1-0.3,0.2-0.3,0.4C337.9,124.2,338,124.3,338.2,124.4z"/>
		</g>
	</g>
	<g id="IymX7V.tif_1_">
		<path style="fill:#818285;" d="M338.2,124.1c0.1-0.8-1.1-0.9-1.2-0.2c-0.6,4-0.9,8.1-1.1,12.2c0,0.8,1.1,0.9,1.2,0.2
			C337.2,132.2,337.6,128.2,338.2,124.1z"/>
		<path style="fill:#818285;" d="M433.2,121.3c-32.2,1.6-64.3,3.1-96.5,4.7c-0.8,0-0.6,1.2,0.1,1.2c32.2-1.6,64.3-3.1,96.5-4.7
			C434.1,122.4,433.9,121.3,433.2,121.3z"/>
		<path style="fill:#818285;" d="M433.5,122.3c0-0.8-1.2-0.6-1.2,0.1c0.5,19.3,0.9,38.7,1.1,58c0,0.8,1.2,0.6,1.2-0.1
			C434.3,161,434,141.7,433.5,122.3z"/>
		<path style="fill:#818285;" d="M338.3,184.1c-1.1-15.4-1.1-30.8,0-46.2c0.1-0.8-1.1-0.9-1.2-0.2c-1.1,15.5-1.1,31,0,46.5
			C337.1,185,338.3,184.9,338.3,184.1z"/>
		<path style="fill:#818285;" d="M350.6,184c-4.3,0.7-8.5,0.6-12.7-0.3c-0.7-0.2-0.9,1-0.2,1.2c4.3,0.9,8.6,1,13,0.3
			C351.5,185,351.4,183.8,350.6,184z"/>
		<path style="fill:#818285;" d="M364.7,184.6c-3.5-4.5-7.9-7.8-13.2-9.9c-0.7-0.3-1.2,0.8-0.5,1.1c5.1,2,9.4,5.2,12.7,9.5
			C364.2,185.9,365.2,185.2,364.7,184.6z"/>
		<path style="fill:#818285;" d="M353.2,178c-0.1-0.8-1.2-0.6-1.2,0.1c0.1,1.9-0.2,3.8-1.1,5.5c-0.3,0.7,0.7,1.2,1.1,0.5
			C352.9,182.2,353.3,180.2,353.2,178z"/>
		<path style="fill:#818285;" d="M435.4,182.6c-22.9,1.9-46,2.3-68.9,1.1c-0.8,0-0.9,1.1-0.2,1.2c23.1,1.2,46.2,0.9,69.3-1.1
			C436.3,183.7,436.2,182.5,435.4,182.6z"/>
		<path style="fill:#818285;" d="M387.2,124.9c-0.1-0.8-1.2-0.6-1.2,0.1c0.8,11.6,1.2,23.3,0.9,34.9c0,0.8,1.2,0.9,1.2,0.2
			C388.4,148.4,388.1,136.6,387.2,124.9z"/>
		<path style="fill:#818285;" d="M393.5,149.3c-1.8,3.6-3.6,7.2-5.4,10.9c-0.3,0.7,0.7,1.2,1.1,0.5c1.8-3.6,3.6-7.2,5.4-10.9
			C394.9,149.1,393.8,148.6,393.5,149.3z"/>
		<path style="fill:#818285;" d="M401.8,158.3c-1.1-3.3-3.5-5.8-6.7-7.1c-0.7-0.3-1.2,0.8-0.5,1.1c2.9,1.2,5.1,3.5,6.1,6.5
			C401,159.5,402.1,159.1,401.8,158.3z"/>
		<path style="fill:#818285;" d="M428.1,157.6c-7.6,0.2-15.3,0.3-22.9,0.5c-0.8,0-0.6,1.2,0.1,1.2c7.6-0.2,15.3-0.3,22.9-0.5
			C429,158.8,428.9,157.6,428.1,157.6z"/>
		<path style="fill:#818285;" d="M390.7,132.3c-0.1-0.8-1.3-0.6-1.2,0.1c0.7,4.4,0.9,8.8,0.4,13.2c-0.1,0.8,1.1,0.9,1.2,0.2
			C391.6,141.3,391.5,136.8,390.7,132.3z"/>
		<path style="fill:#818285;" d="M399.8,132.4c-3.1,0.6-6.2,0.8-9.4,0.8c-0.8,0-0.6,1.2,0.1,1.2c3.2,0,6.3-0.2,9.4-0.8
			C400.7,133.4,400.6,132.3,399.8,132.4z"/>
		<path style="fill:#818285;" d="M400.3,133.1c0.1-0.8-1.1-0.9-1.2-0.2c-0.6,4.3-1,8.6-1.1,13c0,0.8,1.2,0.6,1.2-0.1
			C399.3,141.5,399.6,137.3,400.3,133.1z"/>
		<path style="fill:#818285;" d="M397.7,144.7c-2.6,0.7-5.2,1.1-7.8,1.4c-0.8,0.1-0.6,1.3,0.1,1.2c2.7-0.3,5.4-0.7,8.1-1.4
			C398.9,145.6,398.5,144.5,397.7,144.7z"/>
		<path style="fill:#818285;" d="M410,140.6c-0.6-2.4-1-4.8-1.2-7.3c-0.1-0.8-1.2-0.6-1.2,0.1c0.2,2.6,0.6,5.1,1.3,7.6
			C409.1,141.8,410.2,141.4,410,140.6z"/>
		<path style="fill:#818285;" d="M421.4,133c-4.1,0.6-8.2,1-12.3,1.2c-0.8,0-0.6,1.2,0.1,1.2c4.1-0.2,8.2-0.6,12.3-1.2
			C422.3,134,422.2,132.8,421.4,133z"/>
		<path style="fill:#818285;" d="M420.6,139.3c-3.7,1.3-7.4,1.9-11.3,1.9c-0.8,0-0.6,1.2,0.1,1.2c4,0,7.8-0.7,11.6-2
			C421.7,140.1,421.3,139,420.6,139.3z"/>
		<path style="fill:#818285;" d="M422.5,132.6c0-0.8-1.1-0.9-1.2-0.2c-0.1,2.3-0.2,4.6-0.4,6.9c0,0.8,1.1,0.9,1.2,0.2
			C422.3,137.2,422.4,134.9,422.5,132.6z"/>
		<path style="fill:#818285;" d="M423,146.1c-3,0.4-6,0.8-9,1.2c-0.8,0.1-0.6,1.3,0.1,1.2c3-0.4,6-0.8,9-1.2
			C423.9,147.2,423.8,146,423,146.1z"/>
		<path style="fill:#818285;" d="M415.8,148c-0.1-0.8-1.3-0.6-1.2,0.1c0.3,1.7,0.2,3.3-0.1,4.9c-0.2,0.8,1,0.9,1.2,0.2
			C416.1,151.5,416.1,149.7,415.8,148z"/>
		<path style="fill:#818285;" d="M423.8,147.7c0-0.8-1.2-0.6-1.2,0.1c0,2,0,4,0,6c0,0.8,1.2,0.6,1.2-0.1
			C423.8,151.7,423.8,149.7,423.8,147.7z"/>
		<path style="fill:#818285;" d="M423.8,152.6l-8.8,0.6c-0.8,0.1-0.6,1.2,0.1,1.2l8.8-0.6C424.7,153.7,424.5,152.5,423.8,152.6z"/>
		<path style="fill:#818285;" d="M378.8,181.4c-0.1-2.6-0.2-5.1-0.1-7.7c0-0.8-1.2-0.9-1.2-0.2c-0.1,2.7,0,5.4,0.1,8
			C377.6,182.3,378.8,182.1,378.8,181.4z"/>
		<path style="fill:#818285;" d="M376.2,175.8c0-0.8-1.2-0.6-1.2,0.1c0,1.7,0.1,3.4,0.1,5.1c0,0.8,1.2,0.6,1.2-0.1L376.2,175.8z"/>
		<path style="fill:#818285;" d="M401.2,172.2c-7.1,0.3-14.2,0.7-21.2,1.3c-0.8,0.1-0.6,1.2,0.1,1.2c7.1-0.5,14.2-1,21.2-1.3
			C402.1,173.3,402,172.1,401.2,172.2z"/>
		<path style="fill:#818285;" d="M401.2,173.5c0.1-0.8-1.1-0.9-1.2-0.2c-0.2,2.3-0.3,4.6-0.5,6.8c-0.1,0.8,1.1,0.9,1.2,0.2
			C400.9,178.1,401,175.8,401.2,173.5z"/>
		<path style="fill:#818285;" d="M406.4,178.1c-0.1-0.8-0.4-1.6-1-2.2c-0.2-0.2-0.6-0.3-0.8-0.1c-0.2,0.2-0.3,0.6-0.1,0.8
			c0.4,0.5,0.7,1,0.8,1.7C405.3,179,406.5,178.9,406.4,178.1z"/>
		<path style="fill:#818285;" d="M411,178.7c-0.8-3.2-1.3-6.4-1.4-9.7c0-0.8-1.2-0.6-1.2,0.1c0.1,3.4,0.6,6.7,1.5,10
			C410.1,179.9,411.2,179.4,411,178.7z"/>
		<path style="fill:#818285;" d="M414.1,178.3c-0.4-1.3-0.8-2.5-1.1-3.8c-0.2-0.7-1.3-0.3-1.1,0.4c0.4,1.3,0.8,2.5,1.1,3.8
			C413.3,179.4,414.4,179,414.1,178.3z"/>
		<path style="fill:#818285;" d="M428.2,172.5c-4.8,0.6-9.7,1-14.6,1.4c-0.8,0.1-0.6,1.2,0.1,1.2c4.9-0.4,9.7-0.8,14.6-1.4
			C429.1,173.6,429,172.4,428.2,172.5z"/>
		<path style="fill:#818285;" d="M429.6,177.6c-0.7-1.3-1.1-2.7-1.2-4.2c0-0.8-1.2-0.6-1.2,0.1c0.1,1.6,0.5,3.1,1.3,4.5
			C428.9,178.7,430,178.3,429.6,177.6z"/>
		<path style="fill:#818285;" d="M430.3,176.4c-5.8,0.9-11.6,1.7-17.4,2.3c-0.8,0.1-0.6,1.3,0.1,1.2c5.8-0.6,11.7-1.4,17.4-2.3
			C431.2,177.5,431.1,176.3,430.3,176.4z"/>
		<path style="fill:#818285;" d="M384.7,148.2c-3.3,2.9-6.6,5.9-9.9,8.8c-0.6,0.5,0.1,1.5,0.7,1c3.3-2.9,6.6-5.9,9.9-8.8
			C385.9,148.7,385.2,147.7,384.7,148.2z"/>
		<path style="fill:#818285;" d="M385.1,150.6c0-0.8-1.1-0.9-1.2-0.2c-0.1,2.5-0.2,5-0.3,7.5c0,0.8,1.1,0.9,1.2,0.2
			C384.9,155.6,385,153.1,385.1,150.6z"/>
		<path style="fill:#818285;" d="M375.6,158.5c0-0.8-1.1-0.9-1.2-0.2c-0.1,2.7-0.2,5.4-0.3,8.1c0,0.8,1.1,0.9,1.2,0.2
			C375.4,163.9,375.5,161.2,375.6,158.5z"/>
		<path style="fill:#818285;" d="M365.4,158.9c0-0.8-1.2-0.6-1.2,0.1c0,2,0,4,0,6c0,0.8,1.2,0.6,1.2-0.1
			C365.4,162.9,365.4,160.9,365.4,158.9z"/>
		<path style="fill:#818285;" d="M374.7,164.6c-4.1,0.5-8.1,1.1-12.1,2c-0.7,0.2-0.6,1.4,0.1,1.2c4-0.9,8-1.6,12.1-2
			C375.6,165.7,375.4,164.5,374.7,164.6z"/>
		<path style="fill:#818285;" d="M372.3,158.7c-2.6,0.1-5.3,0.2-7.9,0.3c-0.8,0-0.6,1.2,0.1,1.2c2.6-0.1,5.3-0.2,7.9-0.3
			C373.2,159.9,373.1,158.7,372.3,158.7z"/>
		<path style="fill:#818285;" d="M361.9,146c-3.5,0.1-6.7,1.3-9.2,3.8c-1.3,1.3-2,3.1-3.5,4c-2.2,1.2-5.7,0.9-8.2,0.9
			c-0.8,0-0.6,1.2,0.1,1.2c2.7,0,7.8,0.6,9.9-1.6c0.6-0.6,0.9-1.7,1.5-2.4c0.8-1,1.8-1.9,2.9-2.7c2-1.3,4.3-1.9,6.7-2
			C362.8,147.1,362.7,146,361.9,146z"/>
		<path style="fill:#818285;" d="M362.6,147.9c0-0.8-1.2-0.6-1.2,0.1c0.1,2.2,0.1,4.4,0.2,6.6c0,0.8,1.2,0.6,1.2-0.1
			C362.8,152.3,362.7,150.1,362.6,147.9z"/>
		<path style="fill:#818285;" d="M351.2,147.4c0-1.8,0-3.6,0-5.3c0-0.8,0.4-2.5-0.4-3.2c-0.6-0.6-2-0.2-2.7-0.2
			c-1.9,0.1-3.7,0.2-5.6,0.3c-0.7,0-0.7,1.1,0,1.2c0.1,0,0.2,0,0.2,0c0.1,0,0.3,0,0.4-0.1l0.1,0c-0.1,0.1-0.2,0.2-0.2,0.4
			c-0.1,2.6-0.2,5.3-0.1,7.9c0,0.3,0.4,0.6,0.7,0.5c2.3-0.5,4.7-0.8,7.1-0.9C351.1,148,351.2,147.7,351.2,147.4z M344.3,140.7
			c0-0.3-0.2-0.5-0.4-0.6c0.8,0,1.7-0.1,2.5-0.1c0.7,0,1.3-0.1,2-0.1c0.3,0,0.5,0,0.8,0c0.7-0.2,1-0.1,0.9,0.5c0.4,0.8,0,2.6,0,3.4
			c0,1.1,0,2.1,0,3.2c-2,0.1-3.9,0.4-5.9,0.8C344.1,145.4,344.1,143,344.3,140.7z"/>
		<path style="fill:#818285;" d="M373.9,152.3c-2.8,0.2-5.5,0.4-8.3,0.7c-0.8,0.1-0.6,1.2,0.1,1.2c2.8-0.2,5.5-0.4,8.3-0.7
			C374.8,153.4,374.7,152.3,373.9,152.3z"/>
		<path style="fill:#818285;" d="M372.7,129.4c-0.2-0.7-1.3-0.3-1.1,0.4c0.8,2.5,1,5,0.6,7.6c-0.1,0.8,1.1,0.9,1.2,0.2
			C373.7,134.9,373.5,132.1,372.7,129.4z"/>
		<path style="fill:#818285;" d="M380.1,130c-2.7,0.8-5.4,1.1-8.2,1c-0.8,0-0.9,1.1-0.2,1.2c3,0.2,5.9-0.2,8.8-1
			C381.3,130.9,380.9,129.8,380.1,130z"/>
		<path style="fill:#818285;" d="M378.6,137.2c-2.8,0.7-5.6,0.6-8.3-0.2c-0.7-0.2-1.2,0.9-0.5,1.1c2.9,0.9,5.9,1.1,9,0.3
			C379.4,138.2,379.3,137,378.6,137.2z"/>
		<path style="fill:#818285;" d="M381,128.6c0-0.8-1.1-0.9-1.2-0.2c-0.2,2.9-0.4,5.8-0.6,8.6c0,0.8,1.1,0.9,1.2,0.2
			C380.7,134.4,380.9,131.5,381,128.6z"/>
		<path style="fill:#818285;" d="M370.3,118.5c-0.7-0.1-1.5,0.2-2,0.7c0-0.3,0-0.5,0-0.8c0-0.8-1.2-0.6-1.2,0.1c0,1.3,0,2.6,0.1,3.9
			c0,0.3,0,0.6,0,0.9c0,0.8,1.2,0.6,1.2-0.1c0-0.3,0-0.6,0-0.9c0-0.2,0-0.3,0-0.5c0.1,0.1,0.3,0.1,0.4,0c0.9-0.3,2.6-0.5,2.9-1.6
			C372,119.3,371.1,118.6,370.3,118.5z M370.1,120.1c-0.5,0.2-0.9,0.3-1.4,0.5c0.2-0.3,0.4-0.6,0.7-0.8
			C369.9,119.6,371,119.8,370.1,120.1z"/>
		<path style="fill:#818285;" d="M377.4,121.7c-0.8,0.2-1.7,0.3-2.6,0.3c0.1-0.7,0.3-1.3,0.6-1.9c0.3-0.7-0.8-1.2-1.1-0.5
			c-0.4,0.9-0.6,1.9-0.8,2.9c0,0.3,0.2,0.7,0.5,0.7c1.2,0.1,2.3,0,3.5-0.3C378.3,122.8,378.1,121.6,377.4,121.7z"/>
		<path style="fill:#818285;" d="M384.6,121.2c-0.3-1.1-0.7-2.2-1.2-3.2c-0.2-0.4-0.7-0.6-1-0.2c-0.2,0.2-0.3,0.4-0.5,0.7
			c-0.2,0-0.5,0.1-0.6,0.3c-0.6,1-1.1,2-1.7,3c-0.3,0.6,0.6,1.2,1,0.6c0.2-0.3,0.4-0.5,0.6-0.8l1.5,0c0.4,0.1,0.8,0.1,1.2,0.2
			C384.3,122.2,384.8,121.8,384.6,121.2z M383.2,120.6c-0.2,0-0.3,0-0.5,0c-0.2,0-0.5,0-0.7-0.1c0.2-0.4,0.5-0.7,0.7-1.1
			C382.9,119.8,383.1,120.2,383.2,120.6z"/>
		<path style="fill:#818285;" d="M389.6,117.9c-0.1,0.6-0.2,1.1-0.4,1.7c-0.1,0.3-0.3,0.6-0.4,0.8c-0.1,0.1-0.1,0.1-0.2,0.2
			c-0.3,0.2-0.4,0.1-0.4-0.2c-0.2-0.3-0.2-0.8-0.3-1.1c-0.1-0.3-0.4-0.7-0.7-0.9c-0.5-0.4-1.3-0.3-1.5,0.3c-0.3,0.9-0.1,2.1,0.3,3
			c0.3,0.6,1.3,0.4,1.1-0.3c-0.1-0.4-0.1-0.7-0.1-1.1c0.1,0.4,0.2,0.8,0.3,0.9c0.3,0.5,0.8,0.9,1.4,0.8c0.7-0.1,1-0.8,1.3-1.3
			c0.5-0.8,0.7-1.7,0.8-2.6C390.8,117.3,389.7,117.1,389.6,117.9z"/>
		<path style="fill:#818285;" d="M412.9,187.5c0-0.8-1.2-0.6-1.2,0.1c0.1,1.4-0.1,2.7-0.4,4c-0.2,0.7,1,0.9,1.2,0.2
			C412.8,190.4,413,189,412.9,187.5z"/>
		<path style="fill:#818285;" d="M418,187c-0.8-0.1-0.9,1.1-0.2,1.2C418.6,188.2,418.8,187.1,418,187z"/>
		<path style="fill:#818285;" d="M418.5,190c-0.8-0.1-0.9,1.1-0.2,1.2C419,191.3,419.2,190.1,418.5,190z"/>
		<path style="fill:#818285;" d="M422.7,187.4c0-0.8-1.1-0.9-1.2-0.2c-0.1,1.7-0.4,3.4-0.9,5.1c-0.2,0.7,0.9,1.2,1.1,0.5
			C422.3,191,422.6,189.2,422.7,187.4z"/>
		<path style="fill:#818285;" d="M430.4,189.5c0-1.5-1.5-2.7-2.9-2.4c-0.3,0.1-0.4,0.2-0.5,0.4c-0.6,0.3-1.1,0.9-1.2,1.6
			c-0.3,1.4,0.7,2.5,2,2.6C429.2,191.7,430.5,190.9,430.4,189.5z M428,190.5c-0.6,0-1.2-0.4-1.1-1.1c0.1-0.7,0.9-1.3,1.6-1
			c0,0,0,0,0,0c0.4,0.2,0.6,0.6,0.6,1C429.3,190.1,428.6,190.5,428,190.5z"/>
	</g>
</g>
<g>
	<g>
		<polygon style="fill:#424143;" points="507.6,316.6 516.7,339.3 514.6,340.4 505.4,318.3 		"/>
		<polygon style="fill:#3E2716;" points="496.3,333.3 489,317.6 486.3,319 486.2,322.9 475,326.9 482.1,338.5 		"/>
		<g>
			<path style="fill:#3E2716;" d="M502.7,328.9l1.5,3.5c0.8,1.7,3,2.6,5,2l1.4-0.5c2-0.6,3-2.6,2.3-4.3l-1.5-3.5
				c-0.3-0.6-1.1-1-1.8-0.7l-6.1,1.9C502.8,327.6,502.5,328.3,502.7,328.9z"/>
			<polygon style="fill:#424143;" points="487.7,324.5 489,327.4 492.3,326.4 491,323.4 			"/>
			<path style="fill:#E53D46;" d="M503.5,330.4l-4.9,1.6l-1.2-2.8c0,0-8.7,4.8-20.3,8.4l-3.9-9l12.5-4l2.8,1.1l3.6-1.2l-3-6.9
				l7.4-2.4L503.5,330.4z"/>
			<polygon style="fill:#EBE2B9;" points="493.3,295 502.5,316 505,315.2 495.8,294.2 			"/>
			<path style="fill:#88A5A1;" d="M498.3,309.1L498.3,309.1c0.2,0.4,0.8,0.6,1.3,0.5l2.5-0.8c0.5-0.2,0.8-0.6,0.6-1.1l0,0
				c-0.2-0.4-0.8-0.6-1.3-0.5l-2.5,0.8C498.3,308.2,498.1,308.6,498.3,309.1z"/>
			<path style="fill:#67918A;" d="M498.4,310.6L498.4,310.6c0.2,0.5,0.9,0.8,1.5,0.6l3-1c0.6-0.2,0.9-0.8,0.7-1.3l0,0
				c-0.2-0.5-0.9-0.8-1.5-0.6l-3,1C498.5,309.5,498.2,310.1,498.4,310.6z"/>
			<path style="fill:#88A5A1;" d="M498.4,311.9L498.4,311.9c0.3,0.6,1.1,0.9,1.8,0.7l3.7-1.2c0.7-0.2,1.1-0.9,0.8-1.6l0,0
				c-0.3-0.6-1.1-0.9-1.8-0.7l-3.7,1.2C498.5,310.6,498.1,311.3,498.4,311.9z"/>
			<path style="fill:#E53D46;" d="M514.2,330.1l-8.9-20.4l-7.1,2.3l-1.3-3.1l-3.8,1.2l9.4,21.4l7.3-2.3l0.6,1.5
				C510.3,330.7,514.3,330.4,514.2,330.1z"/>
			<polygon style="fill:#F37783;" points="495.5,309.9 504.4,330.2 505.3,329.9 496.5,309.6 			"/>
			<polygon style="fill:#F37783;" points="504.1,311.5 510.9,326.9 512.3,326.4 505.6,311.1 			"/>
			<polygon style="fill:#EBE2B9;" points="497.2,293.1 496.6,296 493.6,296.9 491.7,295.2 487.8,284.4 491.1,283.4 			"/>
			<polygon style="fill:#FDFEFC;" points="495.7,296.7 499.8,306 499.1,306.2 495,296.9 			"/>
			<polygon style="fill:#1C1E1E;" points="494.9,293.5 492.5,294.9 488.7,284.8 490,284.3 			"/>
			<polygon style="fill:#FDFEFC;" points="496.4,292.9 495.4,293.2 490,284.3 491,284 			"/>
			<path style="fill:#EBE2B9;" d="M506.6,313.4l-1.1-2.6l-5.4,1.7l2.1,4.8l1.8-0.6l-1.1-2.5C502.9,314.2,506.5,313.4,506.6,313.4z"
				/>
			<path style="fill:#EBE2B9;" d="M509,325.6c-0.6,0.2-0.9,0.8-0.7,1.3c0.2,0.5,0.9,0.8,1.5,0.6c0.6-0.2,0.9-0.8,0.7-1.3
				C510.3,325.6,509.6,325.4,509,325.6z"/>
			<path style="fill:#EBE2B9;" d="M507.8,322.8c-0.6,0.2-0.9,0.8-0.7,1.3c0.2,0.5,0.9,0.8,1.5,0.6c0.6-0.2,0.9-0.8,0.7-1.3
				C509,322.8,508.4,322.6,507.8,322.8z"/>
			<polygon style="fill:#1C1E1E;" points="493.2,316.2 499.7,331.1 502,330.4 495.5,315.5 			"/>
			<path style="fill:#1C1E1E;" d="M488.3,329.9l-12.3,3.9l-0.4-1l12.4-3.9C487.9,328.8,488.4,330.2,488.3,329.9z"/>
			<path style="fill:#BDBEC0;" d="M495,323.6l-2.6-5.9l-1.6,0.5l2.6,5.9C493.4,324.1,495.2,323.9,495,323.6z"/>
			<path style="fill:#1C1E1E;" d="M506.8,332.6c1.1,0.5,2.1,0,3-0.5c0.6-0.3,1.3,0.5,0.7,0.8c-1.3,0.7-2.8,1.2-4.2,0.6
				C505.6,333.2,506.1,332.3,506.8,332.6z"/>
			<path style="fill:#1C1E1E;" d="M512.4,331.4c0.3,0.6-0.8,0.9-1.1,0.3C511.1,331.1,512.2,330.8,512.4,331.4z"/>
			<path style="fill:#1C1E1E;" d="M499.5,315.3l5.9,13.5c0.3,0.6,1.1,1,1.8,0.7l2.6-0.8c0.7-0.2,1.1-0.9,0.8-1.6l-5.9-13.5
				c-0.3-0.6-1.1-1-1.8-0.7l-2.6,0.8C499.6,313.9,499.3,314.6,499.5,315.3z"/>
		</g>
		<path style="fill:#3E2716;" d="M486.2,322.9l0.8,4.3l-8.8,2.5l-3.4-4.5C474.8,325.2,484.5,321.5,486.2,322.9z"/>
		<polygon style="fill:#3E2716;" points="494.4,333.7 496.5,337.4 486.5,341.5 485.5,336.8 		"/>
		<g>
			<path style="fill:#8DD3D3;" d="M489.4,283.6l-2.4-1.4c0,0-0.9-6.4,0.7-6.9c0,0,3.3,4.9,3,6.5l-0.6,1.6L489.4,283.6z"/>
			<path style="fill:#D4EDEC;" d="M489.7,283l-0.5-3l-1.6-2.3l0.1,2.7C487.7,280.5,489.1,282.7,489.7,283z"/>
		</g>
	</g>
	<path style="fill:#3E2716;" d="M480.6,303.1c-1.4-0.1-1.4,1.8,0,1.9c3,0.2,6.1,2.1,5.1,5c-0.5,1.6-2.5,2.5-4.2,3.1
		c-2.6,0.9-5.4,1.3-8.1,1.9c-6.1,1.3-12.3,2.4-18.4,3.9c-10.8,2.7-24.7,7.1-27.3,17.7c-0.1,0.4,0.1,0.8,0.5,1
		c14.7,9.1,35.6,2,50.9-2c1.3-0.4,0.8-2.1-0.6-1.8c-14.6,3.8-34.4,10.7-48.5,2.6c3.9-12.6,24.9-15.8,37.5-18.3
		c5.6-1.1,13.4-1.7,18-4.8C491,309.5,486.6,303.5,480.6,303.1z"/>
	<g>
		<rect x="428.8" y="306.6" style="fill:#3A4144;" width="5.7" height="3.1"/>
		<rect x="447.5" y="306.6" style="fill:#667175;" width="5.7" height="3.1"/>
		<rect x="474.8" y="306.6" style="fill:#231F20;" width="5.7" height="3.1"/>
		<rect x="451.2" y="306.6" style="fill:#231F20;" width="5.7" height="3.1"/>
		<rect x="426.5" y="307.7" style="fill:#E53D46;" width="56.9" height="0.8"/>
		<g>
			<path style="fill:#77838B;" d="M461.7,265.4c0,0,4.3-0.1,7,0.8l4.4,3.5l0.9,4h-3l-2.2-5.2l-6.8-1.3L461.7,265.4z"/>
			<polygon style="fill:#77838B;" points="460.6,268.8 457.2,270.2 457.2,274.5 453.3,274.5 453.3,269.2 458.6,267 			"/>
			<path style="fill:#231F20;" d="M450.5,273.9h4l0.7-3.6l2.2-1.5h8.6l3,2.4l-0.1,3.9h4l-0.7-4.2l-4.1-4.2c0,0-4.2-2.9-13-0.1
				l-2.2,1.8L450.5,273.9z"/>
		</g>
		<g>
			<path style="fill:#77838B;" d="M446.8,265.4c0,0,4.3-0.1,7,0.8l4.4,3.5l0.9,4h-3l-2.2-5.2l-6.8-1.3L446.8,265.4z"/>
			<polygon style="fill:#77838B;" points="445.7,268.8 442.3,270.2 442.3,274.5 438.3,274.5 438.3,269.2 443.7,267 			"/>
			<path style="fill:#3A4144;" d="M435.5,273.9h4l0.7-3.6l2.2-1.5h8.6l3,2.4l-0.1,3.9h4l-0.7-4.2l-4.1-4.2c0,0-4.2-2.9-13-0.1
				l-2.2,1.8L435.5,273.9z"/>
		</g>
		<polygon style="fill:#3F9645;" points="431.2,273.2 480.8,272.7 482.3,275.2 483.4,307.9 426.9,308 		"/>
		<polygon style="fill:#E53D46;" points="430.4,273.2 425,283.8 426.9,308 431.9,308.2 428.8,284.8 438.8,273.2 		"/>
		<polygon style="fill:#77838B;" points="431.2,273.2 456.8,272.9 453.3,284.6 426.9,284.8 		"/>
		<rect x="426.9" y="284.5" style="fill:#9AA7AD;" width="26.6" height="23.7"/>
		<rect x="428.1" y="286.7" style="fill:#4D545A;" width="9.5" height="1.4"/>
		<rect x="428.1" y="288.9" style="fill:#4D545A;" width="9.5" height="1.4"/>
		<rect x="428.1" y="291" style="fill:#4D545A;" width="9.5" height="1.4"/>
		<rect x="428.1" y="293.2" style="fill:#4D545A;" width="9.5" height="1.4"/>
		<rect x="428.1" y="295.3" style="fill:#4D545A;" width="9.5" height="1.4"/>
		<rect x="428.1" y="297.5" style="fill:#4D545A;" width="9.5" height="1.4"/>
		<rect x="440.5" y="286.7" style="fill:#4D545A;" width="9.5" height="1.4"/>
		<rect x="440.5" y="288.9" style="fill:#4D545A;" width="9.5" height="1.4"/>
		<rect x="440.5" y="291" style="fill:#4D545A;" width="9.5" height="1.4"/>
		<rect x="440.5" y="293.2" style="fill:#4D545A;" width="9.5" height="1.4"/>
		<rect x="440.5" y="295.3" style="fill:#4D545A;" width="9.5" height="1.4"/>
		<rect x="440.5" y="297.5" style="fill:#4D545A;" width="9.5" height="1.4"/>
		<polygon style="fill:#4D545A;" points="428.8,302.2 428.8,307.2 451.9,307.2 451.9,302 		"/>
		<path style="fill:#717980;" d="M433.6,304.4c0,1-0.9,1.8-2.1,1.8c-1.2,0-2.1-0.8-2.1-1.8s0.9-1.8,2.1-1.8
			C432.7,302.7,433.6,303.5,433.6,304.4z"/>
		<path style="fill:#A49667;" d="M432.6,304.4c0,0.5-0.5,1-1.1,1c-0.6,0-1.1-0.4-1.1-1c0-0.5,0.5-1,1.1-1
			C432.1,303.5,432.6,303.9,432.6,304.4z"/>
		<path style="fill:#717980;" d="M441.8,304.4c0,1-0.9,1.8-2.1,1.8c-1.2,0-2.1-0.8-2.1-1.8s0.9-1.8,2.1-1.8
			C440.8,302.7,441.8,303.5,441.8,304.4z"/>
		<path style="fill:#717980;" d="M450,304.4c0,1-0.9,1.8-2.1,1.8c-1.2,0-2.1-0.8-2.1-1.8s0.9-1.8,2.1-1.8
			C449.1,302.7,450,303.5,450,304.4z"/>
		<path style="fill:#A49667;" d="M449.1,304.4c0,0.5-0.5,1-1.1,1c-0.6,0-1.1-0.4-1.1-1c0-0.5,0.5-1,1.1-1
			C448.5,303.5,449.1,303.9,449.1,304.4z"/>
		<rect x="428.6" y="301.3" style="opacity:0.51;fill:#3E2716;" width="23.5" height="2"/>
		<rect x="451.6" y="286" style="opacity:0.51;fill:#3E2716;" width="1.4" height="13.4"/>
		<polygon style="fill:#2DB674;" points="432.7,275.3 430.4,280.7 445.2,280.7 446.6,275.2 		"/>
		<polygon style="fill:#FFFFFF;" points="430.4,280.7 446.6,275.2 445.2,280.7 		"/>
		<polygon style="fill:#E53D46;" points="456.8,272.9 451.9,284.3 453.5,308.2 		"/>
		<polygon style="opacity:0.51;fill:#3E2716;" points="425,283.8 428.8,284.8 428.8,307.2 426.9,308.2 		"/>
		<path style="fill:#F3FAFA;" d="M451.9,276.4c0,0.5-0.6,0.9-1.4,0.9c-0.8,0-1.4-0.4-1.4-0.9c0-0.5,0.6-0.9,1.4-0.9
			C451.3,275.5,451.9,275.9,451.9,276.4z"/>
		<path style="opacity:0.51;fill:#3E2716;" d="M454.8,307.5c0,0,4.6-26.2,26.7-28.3l-1.3,26.8L454.8,307.5z"/>
		<g>
			<rect x="455.6" y="286.3" style="fill:#77838B;" width="5.6" height="0.8"/>
			<rect x="455.6" y="289.1" style="fill:#77838B;" width="5.6" height="0.8"/>
			<rect x="455.6" y="291.8" style="fill:#77838B;" width="5.6" height="0.8"/>
			<rect x="455.6" y="294.6" style="fill:#77838B;" width="5.6" height="0.8"/>
			<rect x="455.6" y="297.3" style="fill:#77838B;" width="5.6" height="0.8"/>
			<rect x="455.6" y="300.1" style="fill:#77838B;" width="5.6" height="0.8"/>
		</g>
		<g>
			<rect x="463.2" y="286.3" style="fill:#77838B;" width="5.6" height="0.8"/>
			<rect x="463.2" y="289.1" style="fill:#77838B;" width="5.6" height="0.8"/>
			<rect x="463.2" y="291.8" style="fill:#77838B;" width="5.6" height="0.8"/>
			<rect x="463.2" y="294.6" style="fill:#77838B;" width="5.6" height="0.8"/>
			<rect x="463.2" y="297.3" style="fill:#77838B;" width="5.6" height="0.8"/>
			<rect x="463.2" y="300.1" style="fill:#77838B;" width="5.6" height="0.8"/>
		</g>
		<g>
			<rect x="470.9" y="286.3" style="fill:#77838B;" width="5.6" height="0.8"/>
			<rect x="470.9" y="289.1" style="fill:#77838B;" width="5.6" height="0.8"/>
			<rect x="470.9" y="291.8" style="fill:#77838B;" width="5.6" height="0.8"/>
			<rect x="470.9" y="294.6" style="fill:#77838B;" width="5.6" height="0.8"/>
			<rect x="470.9" y="297.3" style="fill:#77838B;" width="5.6" height="0.8"/>
			<rect x="470.9" y="300.1" style="fill:#77838B;" width="5.6" height="0.8"/>
		</g>
		<polygon style="fill:#FFFFFF;" points="457.2,274.5 477.9,275 478.7,277.1 456.7,276.8 		"/>
	</g>
</g>
</svg>
