<svg version="1.1" id="Layer_1" xmlns="http://www.w3.org/2000/svg" xmlns:xlink="http://www.w3.org/1999/xlink" x="0px" y="0px" viewBox="0 0 273.82 175.06" style="enable-background:new 0 0 273.82 175.06;" xml:space="preserve">
				<style type="text/css">
					.st0jhbfr{fill:silver;}
				</style>
				<g class="st0jhbfr">
					<g>
						<path d="M255.47,2.82c0,1.26,0.49,2.44,0.93,3.6c0.47,1.16,1,2.29,1.54,3.41l3.34,6.71c0.07,0.13,0.01,0.3-0.12,0.37
							c-0.13,0.07-0.3,0.01-0.37-0.12c0,0,0-0.01,0-0.01l-3.1-6.83c-0.5-1.15-0.99-2.3-1.42-3.48C255.87,5.3,255.42,4.08,255.47,2.82z"></path>
						<path d="M265.49,25.65c1.9,4.64,3.53,9.46,4.14,14.53c0.04,0.35-0.21,0.67-0.56,0.71s-0.67-0.21-0.71-0.56c0,0,0-0.01,0-0.01
							l0-0.01c-0.45-4.89-1.92-9.69-3.68-14.34c-0.09-0.23,0.03-0.48,0.25-0.57C265.15,25.32,265.4,25.43,265.49,25.65z"></path>
						<path d="M268.74,50.38c-0.86,2.47-2.36,4.74-4.27,6.55c-0.96,0.9-2.01,1.69-3.11,2.39l-3.26,1.93c-0.46,0.27-1.05,0.12-1.33-0.34
							c-0.27-0.46-0.12-1.05,0.34-1.33c0,0,0.01-0.01,0.01-0.01l0.03-0.02l3.23-1.83c1.03-0.61,2-1.31,2.89-2.09
							c1.77-1.58,3.16-3.56,4.01-5.79c0.15-0.4,0.6-0.6,1-0.45C268.67,49.55,268.87,49.99,268.74,50.38z"></path>
						<path d="M249.18,65.93c-4.52,2.19-9.12,4.21-13.77,6.1c-0.62,0.25-1.34-0.05-1.59-0.67s0.05-1.34,0.67-1.59
							c0.01,0,0.02-0.01,0.02-0.01c4.64-1.78,9.24-3.68,13.75-5.76c0.54-0.25,1.17-0.01,1.42,0.52
							C249.93,65.05,249.7,65.67,249.18,65.93z"></path>
						<path d="M226.05,75.63c-4.71,1.72-9.46,3.34-14.24,4.87c-0.73,0.23-1.51-0.17-1.74-0.9c-0.23-0.73,0.17-1.51,0.9-1.74
							c0,0,0.01,0,0.02-0.01c4.76-1.46,9.5-3.01,14.2-4.66c0.67-0.24,1.41,0.12,1.65,0.79C227.06,74.65,226.71,75.38,226.05,75.63z"></path>
						<path d="M202.21,83.44c-4.81,1.41-9.66,2.74-14.52,3.97c-0.83,0.21-1.66-0.29-1.87-1.12c-0.21-0.83,0.29-1.66,1.12-1.87
							c0,0,0.02,0,0.02,0c4.84-1.17,9.66-2.42,14.46-3.77c0.77-0.22,1.57,0.23,1.79,1C203.42,82.42,202.97,83.21,202.21,83.44z"></path>
						<path d="M177.92,89.75c-4.9,1.1-9.83,2.1-14.8,2.93c-0.92,0.15-1.8-0.47-1.95-1.39c-0.15-0.92,0.47-1.8,1.39-1.95
							c0,0,0.02,0,0.02,0c4.9-0.76,9.79-1.68,14.66-2.71c0.87-0.18,1.72,0.37,1.9,1.24C179.33,88.71,178.78,89.56,177.92,89.75z"></path>
						<path d="M153.1,94.05c-2.53,0.25-5.07,0.43-7.68,0.42c-2.54-0.01-5.08-0.1-7.62-0.29c-1.04-0.07-1.82-0.98-1.75-2.01
							c0.07-1.04,0.98-1.82,2.01-1.75c0.01,0,0.03,0,0.04,0c2.44,0.23,4.9,0.37,7.36,0.43c2.4,0.04,4.85-0.1,7.3-0.31l0.01,0
							c0.97-0.08,1.82,0.63,1.9,1.6C154.77,93.11,154.06,93.96,153.1,94.05z"></path>
						<path d="M127.68,92.93c-5.03-0.92-10.04-2.25-14.82-4.29c-1.08-0.46-1.59-1.71-1.12-2.8s1.71-1.59,2.8-1.12l0.02,0.01
							c4.42,1.91,9.09,3.33,13.88,4.29c1.08,0.21,1.78,1.26,1.56,2.34C129.78,92.43,128.74,93.12,127.68,92.93z"></path>
						<path d="M103.71,83.63c-2.15-1.52-4.19-3.25-6-5.25c-1.81-1.99-3.39-4.26-4.54-6.8c-0.52-1.14-0.01-2.48,1.13-3
							c1.14-0.52,2.48-0.01,3,1.13c0,0,0,0.01,0,0.01l0.01,0.02c1.79,4.08,5.11,7.57,8.93,10.32l0.01,0.01c0.98,0.71,1.2,2.07,0.49,3.05
							C106.04,84.09,104.69,84.32,103.71,83.63z"></path>
						<path d="M91.85,60.37c0.65-2.88,2.21-5.55,4.27-7.58c2.04-2.01,4.43-3.49,6.87-4.62c1.19-0.55,2.61-0.04,3.16,1.16
							c0.55,1.19,0.04,2.61-1.16,3.16l-0.02,0.01c-2.09,0.95-4.01,2.16-5.55,3.66c-1.51,1.47-2.59,3.28-3.07,5.28
							c-0.3,1.25-1.56,2.01-2.8,1.71c-1.24-0.3-2-1.53-1.72-2.77L91.85,60.37z"></path>
						<path d="M113.08,45.06c5.11-0.98,10.23-1.35,15.33-1.43c1.33-0.02,2.43,1.04,2.45,2.37c0.02,1.33-1.04,2.43-2.37,2.45l0,0l-0.01,0
							c-4.89,0.07-9.77,0.42-14.49,1.32l-0.01,0c-1.3,0.25-2.56-0.61-2.8-1.91C110.93,46.56,111.78,45.31,113.08,45.06z"></path>
						<path d="M138.55,43.86c5.06,0.29,10.08,0.8,15.08,1.47c1.33,0.18,2.26,1.4,2.08,2.73s-1.4,2.26-2.73,2.08l-0.01,0
							c-4.89-0.67-9.79-1.18-14.7-1.46c-1.33-0.08-2.35-1.22-2.27-2.55C136.08,44.8,137.22,43.78,138.55,43.86z"></path>
						<path d="M163.6,46.9c4.97,0.89,9.91,1.92,14.82,3.09c1.32,0.31,2.13,1.64,1.82,2.95c-0.31,1.32-1.64,2.13-2.95,1.82l0,0
							c-4.82-1.16-9.67-2.18-14.54-3.06c-1.33-0.24-2.21-1.51-1.97-2.83C161.01,47.54,162.28,46.66,163.6,46.9z"></path>
						<path d="M188.19,52.52c4.86,1.36,9.69,2.85,14.47,4.52c1.29,0.45,1.97,1.86,1.52,3.15s-1.86,1.97-3.15,1.52l0,0
							c-4.66-1.63-9.39-3.11-14.16-4.45c-1.31-0.37-2.07-1.72-1.7-3.03C185.53,52.92,186.89,52.15,188.19,52.52z"></path>
						<path d="M212.14,60.62c4.7,1.93,9.33,4.06,13.81,6.63c1.19,0.68,1.61,2.21,0.92,3.4c-0.68,1.19-2.21,1.61-3.4,0.92l0,0l-0.01,0
							c-4.19-2.41-8.66-4.48-13.21-6.36l-0.01,0c-1.27-0.52-1.87-1.97-1.34-3.24C209.43,60.7,210.88,60.09,212.14,60.62z"></path>
						<path d="M234.56,73.35c1,0.94,1.97,1.98,2.83,3.2c0.84,1.22,1.62,2.69,1.89,4.49c0.12,0.89,0.1,1.86-0.12,2.77
							c-0.11,0.46-0.26,0.9-0.44,1.32c-0.15,0.36-0.29,0.64-0.45,0.95c-0.61,1.23-1.31,2.41-2.09,3.53c-0.78,1.13-2.32,1.41-3.45,0.63
							c-1.13-0.78-1.41-2.32-0.63-3.44c0.64-0.94,1.22-1.91,1.71-2.92c0.12-0.24,0.25-0.53,0.35-0.75c0.06-0.15,0.12-0.31,0.15-0.46
							c0.07-0.3,0.08-0.61,0.03-0.95c-0.09-0.68-0.47-1.52-1.05-2.33c-0.58-0.82-1.32-1.63-2.14-2.4L231.14,77
							c-1.01-0.94-1.06-2.52-0.12-3.53S233.54,72.4,234.56,73.35L234.56,73.35z"></path>
						<path d="M228.72,97.33c-4.22,3.23-8.9,5.63-13.69,7.55c-1.24,0.5-2.66-0.11-3.16-1.35c-0.5-1.24,0.11-2.66,1.35-3.16l0,0
							c4.48-1.82,8.78-4.06,12.49-6.94l0.01-0.01c1.07-0.83,2.62-0.63,3.45,0.44C230,94.94,229.8,96.49,228.72,97.33L228.72,97.33z"></path>
						<path d="M205.3,108.11c-4.92,1.36-9.92,2.33-14.93,3.08c-1.27,0.19-2.46-0.69-2.65-1.96c-0.19-1.26,0.68-2.44,1.93-2.64
							c4.85-0.79,9.66-1.81,14.36-3.11c1.28-0.36,2.61,0.39,2.96,1.67C207.33,106.43,206.58,107.75,205.3,108.11L205.3,108.11z"></path>
						<path d="M180.31,112.37c-5.04,0.45-10.09,0.69-15.14,0.76c-1.2,0.02-2.18-0.94-2.2-2.14c-0.02-1.19,0.93-2.16,2.11-2.2
							c4.95-0.13,9.89-0.44,14.8-0.94c1.24-0.13,2.36,0.78,2.48,2.02c0.13,1.24-0.78,2.36-2.02,2.48
							C180.34,112.37,180.32,112.37,180.31,112.37z"></path>
						<path d="M155.07,113.03c-5.05-0.18-10.08-0.54-15.11-1.09c-1.06-0.12-1.83-1.07-1.71-2.13c0.12-1.05,1.05-1.8,2.09-1.71
							c4.93,0.44,9.88,0.68,14.83,0.75c1.16,0.02,2.08,0.97,2.07,2.13s-0.97,2.08-2.13,2.07C155.11,113.03,155.08,113.03,155.07,113.03z
							"></path>
						<path d="M129.94,110.51c-2.5-0.45-4.99-0.96-7.47-1.61c-2.48-0.65-4.95-1.41-7.38-2.58c-0.82-0.39-1.16-1.37-0.77-2.19
							c0.38-0.8,1.34-1.15,2.14-0.79l0.03,0.01c2.11,0.93,4.46,1.59,6.82,2.16c2.37,0.57,4.79,1.01,7.23,1.39l0.01,0
							c1,0.16,1.67,1.09,1.52,2.09c-0.16,1-1.09,1.67-2.09,1.52C129.97,110.52,129.95,110.52,129.94,110.51z"></path>
						<path d="M106.93,100.04c-3.89-2.98-8.07-5.6-12.46-7.8c-0.7-0.35-0.98-1.19-0.63-1.89c0.34-0.69,1.17-0.97,1.87-0.64
							c4.6,2.2,8.98,4.84,13.08,7.87c0.68,0.5,0.83,1.47,0.32,2.15c-0.5,0.68-1.47,0.83-2.15,0.32
							C106.94,100.05,106.93,100.04,106.93,100.04z"></path>
						<path d="M85.42,88.47c-4.65-1.56-9.46-2.63-14.34-3.03c-0.64-0.05-1.12-0.61-1.07-1.25c0.05-0.63,0.6-1.1,1.22-1.07
							c5.11,0.28,10.15,1.3,15,2.84c0.69,0.22,1.08,0.96,0.86,1.66c-0.22,0.69-0.96,1.08-1.66,0.86C85.43,88.47,85.42,88.47,85.42,88.47
							z"></path>
						<path d="M61.34,85.68c-4.82,0.66-9.54,2.24-13.66,4.84c-0.4,0.25-0.93,0.13-1.19-0.27c-0.25-0.4-0.13-0.92,0.25-1.18
							c4.28-2.85,9.23-4.64,14.28-5.45c0.57-0.09,1.1,0.29,1.2,0.86c0.09,0.57-0.29,1.1-0.86,1.2C61.36,85.67,61.34,85.68,61.34,85.68z"></path>
						<path d="M40.36,96.9c-3.16,3.75-5.46,8.19-7.05,12.87c-0.1,0.29-0.42,0.45-0.71,0.35c-0.29-0.1-0.44-0.41-0.35-0.7
							c1.5-4.82,3.76-9.47,6.97-13.46c0.26-0.32,0.72-0.37,1.04-0.11c0.32,0.26,0.37,0.72,0.11,1.04C40.37,96.89,40.36,96.9,40.36,96.9z
							"></path>
						<path d="M31.03,119.39c-0.65,4.91-0.48,9.94,0.44,14.84c0.02,0.09-0.04,0.17-0.13,0.18c-0.08,0.02-0.17-0.04-0.18-0.12
							c-1.09-4.89-1.51-9.97-0.98-15c0.02-0.24,0.24-0.41,0.47-0.38c0.24,0.02,0.41,0.24,0.38,0.47
							C31.03,119.39,31.03,119.39,31.03,119.39z"></path>
						<g>
							<path d="M43.94,170.73c-9.81-11.54-24.28-25.02-36.96-32.03l25.29-0.05l19.4-16.21C46.45,135.96,44.03,155.59,43.94,170.73z"></path>
						</g>
					</g>
				</g>
			</svg>