<?xml version="1.0" encoding="utf-8"?>
<!-- Generator: Adobe Illustrator 25.4.1, SVG Export Plug-In . SVG Version: 6.00 Build 0)  -->
<svg version="1.1" id="Layer_1" xmlns="http://www.w3.org/2000/svg" xmlns:xlink="http://www.w3.org/1999/xlink" x="0px" y="0px"
	 viewBox="0 0 70 25" style="enable-background:new 0 0 70 25;" xml:space="preserve">
<style type="text/css">
	.st0{fill:#D4D4D4;}
</style>
<path class="st0" d="M24,14.1c-3-0.3-5.9-0.9-8.8-1.6c-1.4-0.4-5.2-0.7-5.9-2c2.6-0.7,5.3-0.3,7.9-1.3c1.1-0.4,2.6-1.1,2.9-2.4
	c0.4-2-1.5-1.4-2.8-1.3c-2.8,0.3-5.6,0.3-8.4,0.4C6.8,5.9,1.8,5,0.6,7.4s2.4,5,3.9,6.4c2.4,2.3,4.9,4.7,7.3,7
	c0.7,0.6,1.9,2.1,3.1,1.9c1.5-0.3,1-1.8,0.5-2.8c-0.3-0.7-5.3-6.8-5.3-6.8c0.5-0.1,3.1,1,3.5,1.2c1.8,0.5,3.6,1,5.5,1.3
	c4.8,1,9.9,2.1,14.9,1.9c2.3-0.1,4.1-0.9,6.1-1.8c2-0.8,3.7,0.4,5.7,0.9c4.3,1,8.8,1,13-0.2c2.9-0.7,9.5-3.3,6.9-7.6
	C65.2,7.8,64,7.1,64,8.6c0,1,0.8,1.2,0.3,2.3c-0.4,0.8-1.1,1.3-1.9,1.6c-3.7,1.9-8.9,2.3-12.9,1.8c-1.5-0.2-4.5-0.8-5.8-1.8
	c-1.1-0.9-0.3-2.1-0.5-3.7c-0.5-4.1-5.1-7.9-9.3-6.3c-6.2,2.2,1,9,3.9,10.6C34.7,15.9,27.5,14.5,24,14.1z M36.6,5.5
	c3.1,0.5,4,2.5,3.5,5.3C39.1,10.2,31.8,4.9,36.6,5.5C37.1,5.6,36.1,5.5,36.6,5.5z"/>
</svg>
