<?xml version="1.0" encoding="utf-8"?>
<!-- Generator: Adobe Illustrator 25.4.1, SVG Export Plug-In . SVG Version: 6.00 Build 0)  -->
<svg version="1.1" id="Layer_1" xmlns="http://www.w3.org/2000/svg" xmlns:xlink="http://www.w3.org/1999/xlink" x="0px" y="0px"
	 viewBox="0 0 487.1 511.1" style="enable-background:new 0 0 487.1 511.1;" xml:space="preserve">
<style type="text/css">
	.st0{fill:none;stroke:#E8E8E8;stroke-width:20;stroke-linecap:round;stroke-miterlimit:10;}
	.st1{fill:none;stroke:#E8E8E8;stroke-width:20;stroke-miterlimit:10;}
	.st2{fill:none;stroke:#32C0CF;stroke-width:20;stroke-linecap:round;stroke-miterlimit:10;}
</style>
<path class="st0" d="M292.8,467.5c-18.2,6.4-57.6,16.9-108.5,15.7c-66.2-1.6-98.5-9.9-123.9-29.9C26,426.2,14.8,381.2,24.1,330.6
	c9.1-49.5,37.7-98.8,85.5-125.5c7.6-4.2,21.2-11.6,25.9-13.4"/>
<path class="st0" d="M240.1,191.7c5.2,1.4,24.9,10.2,37.4,19.3c4.9,3.5,22.1,16.3,36.5,39"/>
<path class="st0" d="M242.5,191.7H133.2c-14.3,0-25.9-11.6-25.9-25.9v-5.6c0-14.3,11.6-25.9,25.9-25.9h109.3
	c14.3,0,25.9,11.6,25.9,25.9v5.6C268.4,180.1,256.8,191.7,242.5,191.7z"/>
<path class="st0" d="M436.8,307.4H324.6c-14.3,0-25.9-11.6-25.9-25.9v-5.6c0-14.3,11.6-25.9,25.9-25.9h112.1
	c14.3,0,25.9,11.6,25.9,25.9v5.6C462.6,295.8,451.1,307.4,436.8,307.4z"/>
<path class="st0" d="M436.8,482.5H324.6c-14.3,0-25.9-11.6-25.9-25.9V451c0-14.3,11.6-25.9,25.9-25.9h112.1
	c14.3,0,25.9,11.6,25.9,25.9v5.6C462.6,470.9,451.1,482.5,436.8,482.5z"/>
<path class="st0" d="M436.8,425.1H324.6c-14.3,0-25.9-11.6-25.9-25.9v-5.6c0-14.3,11.6-25.9,25.9-25.9h112.1
	c14.3,0,25.9,11.6,25.9,25.9v5.6C462.6,413.5,451.1,425.1,436.8,425.1z"/>
<path class="st0" d="M436.8,366.2H324.6c-14.3,0-25.9-11.6-25.9-25.9v-5.6c0-14.3,11.6-25.9,25.9-25.9h112.1
	c14.3,0,25.9,11.6,25.9,25.9v5.6C462.6,354.6,451.1,366.2,436.8,366.2z"/>
<path class="st1" d="M133.4,134.3c-8.8-29.8-19.7-59-26.3-89.3c0-0.1,0-0.4,0-0.3c0,0.3,53.2,0.2,53.2,0.2
	c5.8-26,18.5-29.5,28.4-29.5c7.7,0,21,5.9,25.4,23.5c0.6,2.6,3,4.4,5.6,4.3c11.4-0.5,43.9,1.3,48.2,1.6c0.3,0,0.6,0.2,0.6,0.5
	c0.1,10.9-26.1,89.2-26.1,89.2"/>
<line class="st0" x1="214.8" y1="40.6" x2="214.8" y2="74.9"/>
<path class="st2" d="M215.3,313.8c0.9-17-12.4-31.1-27.8-31.1c-17-0.1-28.6,17-27.8,28.8c0.4,6-3.3,25.9,27.8,30.5
	c22.4,3.3,27.2,23.5,27.6,29.9c0.7,11.3-11,27.2-27.6,27.4c-15.5,0.2-28.9-13.3-28.6-29.9"/>
<line class="st2" x1="187.5" y1="282.7" x2="187.2" y2="250.8"/>
<line class="st2" x1="187.5" y1="399.3" x2="187.5" y2="425.1"/>
</svg>
