<?xml version="1.0" encoding="utf-8"?>
<!-- Generator: Adobe Illustrator 25.4.1, SVG Export Plug-In . SVG Version: 6.00 Build 0)  -->
<svg version="1.1" id="Layer_1" xmlns="http://www.w3.org/2000/svg" xmlns:xlink="http://www.w3.org/1999/xlink" x="0px" y="0px"
	 viewBox="0 0 487.1 511.1" style="enable-background:new 0 0 487.1 511.1;" xml:space="preserve">
<style type="text/css">
	.st0{fill:none;stroke:#E8E8E8;stroke-width:20;stroke-linecap:round;stroke-miterlimit:10;}
	.st1{fill:none;stroke:#32C0CF;stroke-width:20;stroke-linecap:round;stroke-miterlimit:10;}
</style>
<path class="st0" d="M353.6,479H129c-12.9,0-23.3-10.4-23.3-23.3V49.9c0-12.9,10.4-23.3,23.3-23.3h224.6c12.9,0,23.3,10.4,23.3,23.3
	v405.8C376.9,468.6,366.5,479,353.6,479z"/>
<line class="st0" x1="207.4" y1="57" x2="277.2" y2="57.3"/>
<path class="st1" d="M184,143.6c19.1-22,146.9,15.6,158.9,52.6c1.6,4.8-16,58-30.9,81.9c-30.8,49.2-89.8,67.4-105.2,63.4
	c-17.1-4.4-51.4-58.9-44.9-115.2C163.8,208.7,174.3,154.8,184,143.6z"/>
<path class="st1" d="M210.3,235.2l12.1,23.5c0.4,0.9,1.4,1.3,2.3,0.9l65.9-31.1"/>
<line class="st0" x1="105.7" y1="417" x2="376.9" y2="417.3"/>
</svg>
