<?xml version="1.0" encoding="utf-8"?>
<!-- Generator: Adobe Illustrator 25.4.1, SVG Export Plug-In . SVG Version: 6.00 Build 0)  -->
<svg version="1.1" id="Layer_1" xmlns="http://www.w3.org/2000/svg" xmlns:xlink="http://www.w3.org/1999/xlink" x="0px" y="0px"
	 viewBox="0 0 487.1 511.1" style="enable-background:new 0 0 487.1 511.1;" xml:space="preserve">
<style type="text/css">
	.st0{fill:none;stroke:#32C0CF;stroke-width:20;stroke-linecap:round;stroke-miterlimit:10;}
	.st1{fill:none;stroke:#E8E8E8;stroke-width:20;stroke-linecap:round;stroke-miterlimit:10;}
</style>
<path class="st0" d="M304.2,353.6l59.9,103.6c0.3,0.6-0.1,1.3-0.8,1.3l-31.4-1.1c-0.3,0-0.6,0.2-0.8,0.5l-13.9,27
	c-0.3,0.6-1.1,0.6-1.5,0l-54.2-93.4"/>
<path class="st0" d="M224.9,391.4L170.5,486c-0.3,0.6-1.2,0.6-1.5,0l-14.8-27.7c-0.2-0.3-0.5-0.5-0.8-0.4l-30.3,1.5
	c-0.7,0-1.1-0.7-0.8-1.3L181,356"/>
<path class="st1" d="M184.1,356c0,0-162.1,0-162.1,0c-2.3-0.2-3.5-1.5-3.5-1.5c-0.9-0.9-1.5-2.2-1.5-3.5V42c0-2.8,2.2-5,5-5h442
	c2.8,0,5,2.2,5,5v309c0,2.8-2.2,5-5,5c-53.7,0-107.4,0-161.1,0"/>
<path class="st1" d="M184.3,299.8c-23.5,0-47,0-70.5,0c-0.2-0.2-1-0.4-1-1.1c0-20.3-15.5-35.7-36.3-36.4c-0.8,0-1.5-0.7-1.5-1.5
	V133.5c0-1.7,1.3-3.1,3-3.2c20.3-1.6,32.5-13.4,34.3-34.6c0.1-0.9,0.8-1.6,1.7-1.6c21,0,242,0,259.2,0c0.6,0,1.1,0.5,1.1,1.1
	c1.2,20.2,16.5,35.3,36.3,36.4c0.8,0,1.4,0.7,1.4,1.4l0,128.4c0,0.3-0.2,0.5-0.5,0.5c-19.1,0.8-36.6,12.7-37,36.5
	c0,0.9-0.7,1.5-1.6,1.5c-19.7,0-69.8,0-69.8,0"/>
<circle class="st0" cx="243.4" cy="328.2" r="65.8"/>
<line class="st1" x1="186.2" y1="205.7" x2="299.6" y2="205.7"/>
<line class="st0" x1="186.8" y1="151.1" x2="300.2" y2="151.1"/>
</svg>
