<?xml version="1.0" encoding="utf-8"?>
<!-- Generator: Adobe Illustrator 25.4.1, SVG Export Plug-In . SVG Version: 6.00 Build 0)  -->
<svg version="1.1" id="Layer_1" xmlns="http://www.w3.org/2000/svg" xmlns:xlink="http://www.w3.org/1999/xlink" x="0px" y="0px"
	 viewBox="0 0 86.1 129.6" style="enable-background:new 0 0 86.1 129.6;" xml:space="preserve">
<style type="text/css">
	.st0{fill:#B0B0B1;stroke:#FFFFFF;stroke-miterlimit:10;}
	.st1{fill:none;stroke:#FFFFFF;stroke-width:2;stroke-miterlimit:10;}
	.st2{fill:none;stroke:#FFFFFF;stroke-miterlimit:10;}
</style>
<g>
	<path class="st0" d="M57.3,112.1H32.1l2.3-1.1c0.5-0.3,0.9-0.8,0.9-1.4V88.2c0-0.8,0.6-1.4,1.4-1.4h16.5c0.8,0,1.4,0.6,1.4,1.4
		v21.3c0,0.7,0.4,1.3,1,1.6L57.3,112.1z"/>
	<path class="st1" d="M73.8,114.3c0,1.3-0.9,2.4-1.9,2.4H58.5H16.2c-1,0-1.9-0.9-1.9-1.9v-5.1c0-1,0.8-1.9,1.9-1.9l9.1-0.1
		c1.6,0,2.9-1.3,2.9-3c0-6.7,0-13.5,0-20.2c0-0.1,0-1,0.6-1.8c0.4-0.5,0.9-0.7,1.4-0.7h28.8c1.1,0,2,1.1,2,2.5v20.2
		c0,1.6,1.3,3,2.9,3H72c1,0,1.8,1,1.8,2.2V114.3z"/>
	<line class="st1" x1="28.2" y1="84" x2="32" y2="12.9"/>
	<line class="st1" x1="60.8" y1="83.5" x2="55.2" y2="13.2"/>
	<line class="st1" x1="31.3" y1="13.5" x2="55.9" y2="13.2"/>
	<path class="st2" d="M68.2,112.5"/>
	<line class="st2" x1="54.5" y1="112.1" x2="69.6" y2="112.1"/>
	<line class="st1" x1="73.5" y1="108.7" x2="63.3" y2="20"/>
	<line class="st1" x1="56.3" y1="20.5" x2="64" y2="20.6"/>
	<line class="st2" x1="20.5" y1="112.1" x2="35.2" y2="112.1"/>
	<line class="st1" x1="14.6" y1="108.7" x2="24.8" y2="20.3"/>
	<line class="st1" x1="23.9" y1="21" x2="31.7" y2="21.1"/>
</g>
</svg>
