<?xml version="1.0" encoding="utf-8"?>
<!-- Generator: Adobe Illustrator 25.4.1, SVG Export Plug-In . SVG Version: 6.00 Build 0)  -->
<svg version="1.1" id="Layer_1" xmlns="http://www.w3.org/2000/svg" xmlns:xlink="http://www.w3.org/1999/xlink" x="0px" y="0px"
	 viewBox="0 0 487.06 511.06" style="enable-background:new 0 0 487.06 511.06;" xml:space="preserve">
<style type="text/css">
	.st0{fill:none;stroke:#E8E8E8;stroke-width:20;stroke-miterlimit:10;}
	.st1{fill:none;stroke:#E8E8E8;stroke-width:20;stroke-linecap:round;stroke-miterlimit:10;}
	.st2{fill:none;stroke:#32C0CF;stroke-width:20;stroke-linecap:round;stroke-miterlimit:10;}
</style>
<path class="st0" d="M232.49,82.46c0,0,16.41,0,57.78,0c0.89,0,5.65,0.09,9.49,3.97c2.43,2.45,3.93,5.84,3.93,9.58v373.98
	c0,7.48-6.01,13.55-13.43,13.55H44.49c-7.42,0-13.43-6.06-13.43-13.55V96c0-7.48,6.01-13.55,13.43-13.55c43.06,0,59.55,0,59.55,0"/>
<path class="st1" d="M306.62,460.06h124.05c10.48,0,18.97-8.57,18.97-19.14V51.61c0-10.57-8.49-19.14-18.97-19.14H178.76"/>
<path class="st1" d="M213.06,111.61H125.2c-8.67,0-15.69-7.09-15.69-15.83v-21.2c0-8.74,7.02-15.83,15.69-15.83l17.37,0
	c13.52-29.55,39.8-29.55,52.54,0l17.95,0c8.67,0,15.69,7.09,15.69,15.83v21.2C228.75,104.52,221.73,111.61,213.06,111.61z"/>
<line class="st1" x1="174.38" y1="202.09" x2="249.69" y2="202.97"/>
<line class="st1" x1="80.68" y1="262.38" x2="249.69" y2="262.38"/>
<line class="st1" x1="178.76" y1="365.52" x2="249.69" y2="365.52"/>
<line class="st1" x1="80.68" y1="422.06" x2="249.69" y2="422.06"/>
<path class="st2" d="M78.93,187.07l16.42,15.48c2.26,2.54,6.24,2.44,8.38-0.2l37.38-42.96"/>
<path class="st2" d="M78.93,347.39l16.42,15.48c2.26,2.54,6.24,2.44,8.38-0.2l37.38-42.96"/>
</svg>
