<?xml version="1.0" encoding="utf-8"?>
<!-- Generator: Adobe Illustrator 25.4.1, SVG Export Plug-In . SVG Version: 6.00 Build 0)  -->
<svg version="1.1" id="Layer_1" xmlns="http://www.w3.org/2000/svg" xmlns:xlink="http://www.w3.org/1999/xlink" x="0px" y="0px"
	 viewBox="0 0 487.1 511.1" style="enable-background:new 0 0 487.1 511.1;" xml:space="preserve">
<style type="text/css">
	.st0{fill:none;stroke:#E8E8E8;stroke-width:20;stroke-miterlimit:10;}
	.st1{fill:none;stroke:#32C0CF;stroke-width:20;stroke-linecap:round;stroke-miterlimit:10;}
</style>
<path class="st0" d="M317,329.3H24c-6.1,0-11-4.9-11-11V71.2c0-6.1,4.9-11,11-11h293c6.1,0,11,4.9,11,11v247.1
	C328,324.4,323.1,329.3,317,329.3z"/>
<path class="st0" d="M361.7,426c-15.1,0-18.6,0-33.7,0c0-104.7,0-209.3,0-314h90.1c2.8,0,5.3,2.2,6.5,5.8l16.1,47.9l32.6,104.4
	c0.6,1.9,0.9,4,0.9,6.1c0,14.1,0,72.8,0,131.9c0,10.6-7.4,17.9-12.7,17.9c-10.6,0-11.6,0-22.2,0"/>
<path class="st0" d="M473.3,270.2h-82.5c-4.6,0-8.3-5.2-8.3-11.7v-55.4c0-5.1,2.9-9.1,6.5-9.1h60.5"/>
<line class="st0" x1="328" y1="426" x2="170.5" y2="426"/>
<path class="st0" d="M50.3,329.3v76.7c0,11,6.4,20,14.3,20h46.1"/>
<circle class="st0" cx="139.8" cy="428.1" r="40"/>
<circle class="st0" cx="401.6" cy="428.1" r="40"/>
<line class="st1" x1="268.6" y1="135.9" x2="268.6" y2="256.6"/>
<line class="st1" x1="202.7" y1="135.9" x2="202.7" y2="256.6"/>
<line class="st1" x1="136.8" y1="135.9" x2="136.8" y2="256.6"/>
<line class="st1" x1="70.4" y1="135.9" x2="70.4" y2="256.6"/>
</svg>
